<?xml version="1.0" standalone="no"?>
<!DOCTYPE svg PUBLIC "-//W3C//DTD SVG 20010904//EN"
 "http://www.w3.org/TR/2001/REC-SVG-20010904/DTD/svg10.dtd">
<svg version="1.0" xmlns="http://www.w3.org/2000/svg"
 width="512.000000pt" height="512.000000pt" viewBox="0 0 512.000000 512.000000"
 preserveAspectRatio="xMidYMid meet">

<g transform="translate(0.000000,512.000000) scale(0.100000,-0.100000)"
fill="#000000" stroke="none">
<path d="M320 4947 c-49 -16 -133 -102 -148 -153 -18 -60 -18 -4408 0 -4468
17 -58 100 -138 158 -154 35 -10 385 -12 1560 -10 l1515 3 43 25 43 26 90 -23
c368 -93 774 22 1049 297 418 418 440 1076 52 1527 -165 191 -418 330 -672
368 -140 22 -250 19 -402 -10 l-38 -7 -2 1214 -3 1215 -30 49 c-19 30 -49 60
-79 79 l-49 30 -1526 2 c-1094 1 -1536 -2 -1561 -10z m3065 -172 l25 -24 0
-1219 0 -1219 -52 -24 c-69 -32 -186 -108 -238 -155 -41 -37 -42 -37 -70 -21
-24 15 -63 17 -299 17 -258 0 -272 -1 -291 -20 -19 -19 -20 -33 -20 -291 0
-163 4 -278 10 -289 15 -28 72 -40 189 -40 102 0 103 0 98 -22 -3 -13 -9 -58
-13 -100 l-7 -78 -118 0 c-171 0 -159 24 -159 -311 0 -163 4 -278 10 -289 17
-31 75 -40 275 -40 l190 0 59 -75 c62 -80 134 -147 230 -214 l59 -41 -1447 0
-1447 0 -24 25 -25 24 0 2191 0 2191 25 24 24 25 1496 0 1496 0 24 -25z m690
-2565 c183 -49 305 -120 440 -255 136 -137 206 -259 256 -445 30 -110 33 -337
6 -444 -47 -186 -125 -324 -262 -461 -179 -178 -373 -267 -620 -281 -288 -17
-560 93 -762 310 -106 114 -180 251 -225 416 -29 109 -32 334 -5 444 44 178
128 327 257 457 150 152 331 246 535 279 96 15 288 5 380 -20z m-1155 -267 c0
-14 -13 -47 -30 -72 -16 -26 -47 -86 -70 -134 l-40 -87 -90 0 -90 0 0 160 0
160 160 0 160 0 0 -27z m-175 -890 c10 -43 30 -114 46 -157 16 -44 29 -81 29
-83 0 -2 -49 -3 -110 -3 l-110 0 0 160 0 160 64 0 64 0 17 -77z"/>
<path d="M680 4440 c-20 -20 -20 -33 -20 -591 0 -365 4 -577 10 -589 6 -11 27
-24 48 -30 24 -6 413 -10 1155 -10 1219 0 1175 -2 1197 56 7 17 10 224 8 586
l-3 560 -24 19 c-23 18 -56 19 -1187 19 -1151 0 -1164 0 -1184 -20z m2238
-597 l-3 -458 -1047 -3 -1048 -2 0 460 0 460 1050 0 1050 0 -2 -457z"/>
<path d="M680 2950 c-19 -19 -20 -33 -20 -291 0 -163 4 -278 10 -289 17 -32
76 -40 313 -40 252 0 289 7 308 56 6 18 9 124 7 287 -3 258 -3 259 -27 278
-22 18 -42 19 -297 19 -261 0 -275 -1 -294 -20z m458 -297 l-3 -158 -157 -3
-158 -3 0 161 0 160 160 0 161 0 -3 -157z"/>
<path d="M1570 2950 c-19 -19 -20 -33 -20 -291 0 -163 4 -278 10 -289 17 -32
76 -40 313 -40 252 0 289 7 308 56 6 18 9 124 7 287 -3 258 -3 259 -27 278
-22 18 -42 19 -297 19 -261 0 -275 -1 -294 -20z m458 -297 l-3 -158 -157 -3
-158 -3 0 161 0 160 160 0 161 0 -3 -157z"/>
<path d="M2460 2950 c-19 -19 -20 -33 -20 -291 0 -163 4 -278 10 -289 17 -32
76 -40 313 -40 252 0 289 7 308 56 6 18 9 124 7 287 -3 258 -3 259 -27 278
-22 18 -42 19 -297 19 -261 0 -275 -1 -294 -20z m458 -297 l-3 -158 -157 -3
-158 -3 0 161 0 160 160 0 161 0 -3 -157z"/>
<path d="M680 2110 c-19 -19 -20 -33 -20 -291 0 -163 4 -278 10 -289 17 -32
76 -40 313 -40 252 0 289 7 308 56 6 18 9 124 7 287 -3 258 -3 259 -27 278
-22 18 -42 19 -297 19 -261 0 -275 -1 -294 -20z m458 -297 l-3 -158 -157 -3
-158 -3 0 161 0 160 160 0 161 0 -3 -157z"/>
<path d="M1570 2110 c-19 -19 -20 -33 -20 -291 0 -163 4 -278 10 -289 17 -32
76 -40 313 -40 252 0 289 7 308 56 6 18 9 124 7 287 -3 258 -3 259 -27 278
-22 18 -42 19 -297 19 -261 0 -275 -1 -294 -20z m458 -297 l-3 -158 -157 -3
-158 -3 0 161 0 160 160 0 161 0 -3 -157z"/>
<path d="M680 1270 c-19 -19 -20 -33 -20 -291 0 -163 4 -278 10 -289 17 -32
76 -40 313 -40 252 0 289 7 308 56 6 18 9 124 7 287 -3 258 -3 259 -27 278
-22 18 -42 19 -297 19 -261 0 -275 -1 -294 -20z m458 -297 l-3 -158 -157 -3
-158 -3 0 161 0 160 160 0 161 0 -3 -157z"/>
<path d="M1570 1270 c-19 -19 -20 -33 -20 -291 0 -163 4 -278 10 -289 17 -32
76 -40 313 -40 252 0 289 7 308 56 6 18 9 124 7 287 -3 258 -3 259 -27 278
-22 18 -42 19 -297 19 -261 0 -275 -1 -294 -20z m458 -297 l-3 -158 -157 -3
-158 -3 0 161 0 160 160 0 161 0 -3 -157z"/>
<path d="M3785 2035 c-22 -21 -25 -33 -25 -98 l0 -74 -50 -21 c-219 -91 -272
-386 -98 -548 62 -58 119 -83 213 -93 132 -15 191 -77 183 -190 -5 -70 -35
-116 -92 -142 -54 -24 -100 -24 -153 2 -55 27 -78 60 -96 139 -9 36 -23 70
-33 77 -42 31 -122 3 -125 -44 -8 -139 75 -273 201 -325 l50 -21 0 -74 c0 -65
3 -77 25 -98 32 -33 78 -33 110 0 22 21 25 33 25 98 l0 74 49 21 c70 29 139
96 172 167 24 50 29 73 29 140 0 101 -33 178 -104 243 -61 56 -118 81 -211 91
-54 6 -87 16 -114 34 -108 71 -94 245 23 298 52 24 100 24 152 0 53 -24 79
-62 97 -141 9 -36 23 -70 33 -77 42 -31 122 -3 125 45 8 138 -75 272 -201 324
l-50 21 0 74 c0 65 -3 77 -25 98 -15 16 -36 25 -55 25 -19 0 -40 -9 -55 -25z"/>
<path d="M4082 4256 c-125 -124 -145 -148 -145 -175 0 -41 37 -81 76 -81 22 0
44 15 91 60 35 33 66 60 69 60 4 0 7 -299 7 -664 l0 -665 26 -20 c35 -28 67
-26 101 3 l28 24 3 663 3 663 64 -64 c51 -50 70 -63 95 -63 41 0 80 37 80 77
0 26 -22 53 -148 178 -122 123 -153 148 -177 148 -24 0 -54 -25 -173 -144z"/>
</g>
</svg>
