<svg id="icon-arrow-down" viewBox="0 0 51 32">
<path d="M25.6 30.077c-0.612 0-1.186-0.096-1.722-0.287s-1.033-0.517-1.492-0.976l-21.123-21.123c-0.842-0.842-1.263-1.913-1.263-3.214s0.421-2.373 1.263-3.214c0.842-0.842 1.913-1.263 3.214-1.263s2.372 0.421 3.214 1.263l17.909 17.909 17.909-17.909c0.842-0.842 1.913-1.263 3.214-1.263s2.372 0.421 3.214 1.263c0.842 0.842 1.263 1.913 1.263 3.214s-0.421 2.372-1.263 3.214l-21.123 21.123c-0.459 0.459-0.957 0.784-1.492 0.976s-1.11 0.287-1.722 0.287z"></path>
</svg>