<svg width="20" height="20" viewBox="0 0 20 20" fill="none" xmlns="http://www.w3.org/2000/svg">
<path d="M3 14.75V9.75C3 9.46667 3.09583 9.22917 3.2875 9.0375C3.47917 8.84583 3.71667 8.75 4 8.75C4.28333 8.75 4.52083 8.84583 4.7125 9.0375C4.90417 9.22917 5 9.46667 5 9.75V14.75C5 15.0333 4.90417 15.2708 4.7125 15.4625C4.52083 15.6542 4.28333 15.75 4 15.75C3.71667 15.75 3.47917 15.6542 3.2875 15.4625C3.09583 15.2708 3 15.0333 3 14.75ZM9 14.75V9.75C9 9.46667 9.09583 9.22917 9.2875 9.0375C9.47917 8.84583 9.71667 8.75 10 8.75C10.2833 8.75 10.5208 8.84583 10.7125 9.0375C10.9042 9.22917 11 9.46667 11 9.75V14.75C11 15.0333 10.9042 15.2708 10.7125 15.4625C10.5208 15.6542 10.2833 15.75 10 15.75C9.71667 15.75 9.47917 15.6542 9.2875 15.4625C9.09583 15.2708 9 15.0333 9 14.75ZM1 19.75C0.716667 19.75 0.479167 19.6542 0.2875 19.4625C0.0958333 19.2708 0 19.0333 0 18.75C0 18.4667 0.0958333 18.2292 0.2875 18.0375C0.479167 17.8458 0.716667 17.75 1 17.75H19C19.2833 17.75 19.5208 17.8458 19.7125 18.0375C19.9042 18.2292 20 18.4667 20 18.75C20 19.0333 19.9042 19.2708 19.7125 19.4625C19.5208 19.6542 19.2833 19.75 19 19.75H1ZM15 14.75V9.75C15 9.46667 15.0958 9.22917 15.2875 9.0375C15.4792 8.84583 15.7167 8.75 16 8.75C16.2833 8.75 16.5208 8.84583 16.7125 9.0375C16.9042 9.22917 17 9.46667 17 9.75V14.75C17 15.0333 16.9042 15.2708 16.7125 15.4625C16.5208 15.6542 16.2833 15.75 16 15.75C15.7167 15.75 15.4792 15.6542 15.2875 15.4625C15.0958 15.2708 15 15.0333 15 14.75ZM19 6.75H0.9C0.65 6.75 0.4375 6.6625 0.2625 6.4875C0.0875 6.3125 0 6.1 0 5.85V5.3C0 5.11667 0.0458333 4.95833 0.1375 4.825C0.229167 4.69167 0.35 4.58333 0.5 4.5L9.1 0.2C9.38333 0.0666667 9.68333 0 10 0C10.3167 0 10.6167 0.0666667 10.9 0.2L19.45 4.475C19.6333 4.55833 19.7708 4.68333 19.8625 4.85C19.9542 5.01667 20 5.19167 20 5.375V5.75C20 6.03333 19.9042 6.27083 19.7125 6.4625C19.5208 6.65417 19.2833 6.75 19 6.75ZM4.45 4.75H15.55L10 2L4.45 4.75Z" fill="white"/>
</svg>
