<?xml version="1.0" standalone="no"?>
<!DOCTYPE svg PUBLIC "-//W3C//DTD SVG 20010904//EN"
 "http://www.w3.org/TR/2001/REC-SVG-20010904/DTD/svg10.dtd">
<svg version="1.0" xmlns="http://www.w3.org/2000/svg"
 width="512.000000pt" height="512.000000pt" viewBox="0 0 512.000000 512.000000"
 preserveAspectRatio="xMidYMid meet">

<g transform="translate(0.000000,512.000000) scale(0.100000,-0.100000)"
fill="#000000" stroke="none">
<path d="M1706 4750 c-63 -16 -153 -70 -197 -117 -57 -62 -99 -156 -106 -240
l-6 -68 -70 -34 c-88 -42 -193 -141 -235 -218 -16 -32 -228 -494 -470 -1028
-242 -533 -465 -1019 -496 -1080 -147 -289 -165 -597 -52 -895 129 -345 436
-607 804 -687 97 -22 328 -24 427 -4 82 16 219 63 290 99 225 113 429 335 521
566 67 165 84 271 84 529 l0 187 359 0 359 0 5 -232 c6 -255 14 -308 70 -458
130 -345 436 -607 805 -687 97 -22 328 -24 427 -4 224 44 418 150 580 316 336
345 409 837 189 1270 -31 61 -254 547 -496 1080 -242 534 -454 996 -470 1028
-42 77 -147 176 -235 218 l-70 34 -6 70 c-13 142 -100 264 -235 328 -61 29
-76 32 -163 32 -90 0 -99 -2 -171 -37 -91 -45 -147 -103 -191 -196 l-32 -67
-3 -447 -3 -448 -359 0 -359 0 -3 448 -3 448 -37 76 c-68 136 -188 217 -336
224 -42 2 -94 -1 -116 -6z m204 -224 c67 -44 84 -85 89 -208 l3 -108 -65 44
c-82 55 -159 84 -260 99 l-78 11 6 36 c13 68 67 129 133 151 46 15 130 3 172
-25z m1520 0 c44 -29 76 -76 85 -126 l6 -36 -78 -11 c-101 -15 -178 -44 -259
-98 l-64 -43 0 86 c0 48 5 104 11 125 13 46 76 113 121 126 53 16 135 6 178
-23z m-1666 -404 c90 -42 149 -100 194 -190 l37 -76 3 -184 4 -183 -54 51
c-157 150 -373 230 -588 217 -52 -4 -120 -13 -150 -21 -30 -8 -56 -14 -57 -13
-1 1 25 61 56 132 68 150 112 207 199 253 79 42 122 52 214 48 61 -3 92 -11
142 -34z m1932 -6 c102 -51 143 -101 215 -261 31 -71 57 -131 56 -132 -1 -1
-27 5 -57 13 -251 66 -553 -15 -743 -200 l-49 -48 4 184 c3 182 3 184 35 250
40 85 97 147 172 186 79 43 122 52 215 47 66 -3 91 -9 152 -39z m-2152 -576
c113 -29 190 -73 277 -160 54 -53 86 -96 112 -147 65 -132 68 -162 65 -675
l-3 -457 -54 65 c-148 180 -380 319 -619 371 -97 22 -328 24 -427 4 -82 -16
-219 -63 -289 -98 -26 -13 -46 -21 -44 -16 3 4 105 230 228 501 218 483 223
493 267 523 143 99 322 131 487 89z m2299 5 c78 -16 156 -50 220 -94 44 -30
49 -40 267 -523 123 -271 225 -497 228 -501 2 -5 -18 3 -44 16 -70 35 -207 82
-289 98 -99 20 -330 18 -427 -4 -239 -52 -471 -191 -619 -371 l-54 -65 -3 457
c-3 513 0 543 65 675 45 90 160 207 250 255 125 66 269 86 406 57z m-923 -685
l0 -500 -360 0 -360 0 0 500 0 500 360 0 360 0 0 -500z m-1595 -530 c313 -81
560 -328 646 -645 18 -65 22 -107 22 -225 0 -118 -4 -160 -22 -225 -86 -317
-329 -561 -646 -646 -105 -29 -325 -32 -428 -6 -328 82 -580 328 -668 652 -31
114 -32 335 -1 450 92 340 367 594 715 661 98 19 279 11 382 -16z m2920 0
c314 -81 560 -327 646 -645 18 -65 22 -107 22 -225 0 -118 -4 -160 -22 -225
-86 -317 -329 -561 -646 -646 -105 -29 -325 -32 -428 -6 -328 82 -580 328
-668 652 -32 115 -32 335 0 450 93 343 364 594 714 661 98 19 279 11 382 -16z
m-1325 -270 l0 -100 -360 0 -360 0 0 100 0 100 360 0 360 0 0 -100z"/>
<path d="M1051 2146 c-87 -48 -50 -186 49 -186 51 0 100 49 100 99 0 75 -83
124 -149 87z"/>
<path d="M1434 2014 c-35 -17 -54 -50 -54 -95 0 -22 16 -46 70 -104 160 -174
193 -377 93 -585 -71 -147 -266 -270 -429 -270 -87 0 -136 -71 -102 -145 25
-56 91 -67 226 -39 214 44 391 181 486 376 101 206 101 413 0 616 -50 103
-154 224 -211 248 -40 17 -41 17 -79 -2z"/>
<path d="M3971 2146 c-87 -48 -50 -186 49 -186 51 0 100 49 100 99 0 75 -83
124 -149 87z"/>
<path d="M4354 2014 c-35 -17 -54 -50 -54 -95 0 -22 16 -46 70 -104 160 -174
193 -377 93 -585 -71 -147 -266 -270 -429 -270 -46 0 -87 -22 -102 -55 -35
-77 16 -145 108 -145 57 0 185 28 245 53 154 65 286 189 359 339 110 226 99
467 -32 678 -60 98 -174 201 -219 200 -4 0 -22 -7 -39 -16z"/>
</g>
</svg>
