<svg width="500" height="500" viewBox="0 0 500 500" fill="none" xmlns="http://www.w3.org/2000/svg">
<path d="M150.993 131.939C150.993 131.939 204.607 172.625 286.114 96.5498C358.5 28.9896 417.604 135.585 418.018 186.631C418.554 252.756 345.632 305.666 381.021 349.098C416.41 392.53 310.839 464.251 253.942 402.182C183.165 324.969 163.99 387.704 123.647 387.704C94.6923 387.704 35.2456 315.759 75.3893 262.234C109.17 217.194 90.7465 202.246 81.8248 186.631C68.9551 164.111 99.5183 102.985 150.993 131.939Z" fill="#DEE9FF"/>
<path d="M366.235 221.848C369.116 222.919 372.266 222.99 375.262 222.302C387.816 219.421 430.982 211.791 423.481 245.241C421.848 251.877 396.566 289.043 432.57 302.611C435.208 303.617 437.998 304.167 440.821 304.236C451.906 304.464 473.873 301.847 483.066 292.488C494.172 281.183 482.039 286.544 482.039 286.544C482.039 286.544 439.817 304.969 424.903 285.421C423.244 283.246 422.187 280.087 421.884 277.368C421.359 272.653 423.453 266.422 426.203 260.998C429.926 253.657 447.796 220.634 408.997 211.014C400.059 208.886 387.077 206.974 370.338 214.021C360.574 218.132 362.737 220.548 366.235 221.848Z" fill="#BDD6F9"/>
<path d="M374.875 209.52L363.637 213.726C359.758 215.178 357.79 219.499 359.242 223.379L359.799 224.867C361.251 228.746 365.573 230.714 369.452 229.262L380.69 225.056C384.57 223.604 386.537 219.283 385.085 215.403L384.528 213.915C383.077 210.036 378.755 208.068 374.875 209.52Z" fill="#0E84E5"/>
<path d="M305.894 221.69L268.831 235.561C266.892 236.287 265.908 238.448 266.634 240.388L266.78 240.778C267.506 242.717 269.667 243.701 271.606 242.975L308.669 229.104C310.608 228.378 311.592 226.217 310.866 224.278L310.72 223.888C309.994 221.948 307.833 220.964 305.894 221.69Z" fill="white"/>
<path d="M316.238 249.328L279.175 263.199C277.236 263.925 276.252 266.086 276.978 268.025L277.124 268.415C277.849 270.355 280.01 271.339 281.95 270.613L319.012 256.742C320.952 256.016 321.936 253.855 321.21 251.915L321.064 251.525C320.338 249.586 318.177 248.602 316.238 249.328Z" fill="white"/>
<path d="M350.455 202.829L320.417 214.071C316.537 215.523 314.57 219.845 316.021 223.724L326.277 251.126C327.729 255.006 332.051 256.974 335.93 255.522L365.968 244.279C369.848 242.828 371.816 238.506 370.364 234.626L360.108 207.224C358.656 203.345 354.334 201.377 350.455 202.829Z" fill="#5895F9"/>
<path d="M323.52 210.018L293.482 221.26C289.603 222.712 287.635 227.034 289.087 230.913L301.322 263.605C302.774 267.484 307.096 269.452 310.975 268L341.013 256.758C344.893 255.306 346.861 250.984 345.409 247.105L333.173 214.413C331.722 210.534 327.4 208.566 323.52 210.018Z" fill="#699CFF"/>
<path d="M328.223 203.383L327.987 203.472C325.401 204.439 324.089 207.321 325.057 209.907L342.198 255.704C343.166 258.291 346.047 259.603 348.633 258.635L348.869 258.546C351.455 257.579 352.767 254.697 351.799 252.111L334.658 206.314C333.69 203.727 330.809 202.415 328.223 203.383Z" fill="#208AF2"/>
<path d="M21.9311 232.665C21.9311 232.665 82.2581 215.711 73.4996 254.77C71.9786 260.951 50.0838 292.773 76.1638 308.052C81.7638 311.332 88.2263 312.786 94.7161 312.752C106.352 312.691 124.798 310.452 133.085 302.017C144.191 290.711 132.058 296.073 132.058 296.073C132.058 296.073 97.4111 310.324 79.5866 298.964C73.5003 295.085 70.7416 287.574 72.3943 280.549C73.2391 277.059 74.5255 273.691 76.2223 270.527C80.0988 263.266 97.8153 230.163 59.0153 220.543C50.0773 218.414 37.0956 216.502 20.3568 223.55C3.61809 230.597 21.9311 232.665 21.9311 232.665Z" fill="#BDD6F9"/>
<path d="M141.197 287.333L129.959 291.539C126.079 292.99 124.112 297.312 125.563 301.192L126.121 302.68C127.572 306.559 131.894 308.527 135.774 307.075L147.012 302.869C150.891 301.418 152.859 297.096 151.407 293.216L150.85 291.728C149.398 287.849 145.076 285.881 141.197 287.333Z" fill="#0E84E5"/>
<path d="M160.183 268.843L143.528 275.076C139.649 276.528 137.681 280.85 139.133 284.729L147.164 306.188C148.616 310.067 152.938 312.035 156.817 310.583L173.472 304.35C177.351 302.898 179.319 298.576 177.867 294.696L169.836 273.238C168.384 269.359 164.063 267.391 160.183 268.843Z" fill="#5895F9"/>
<path d="M187.911 252.322L163.073 261.618C159.194 263.07 157.226 267.391 158.678 271.271L170.913 303.962C172.365 307.842 176.687 309.81 180.566 308.358L205.404 299.062C209.283 297.61 211.251 293.288 209.799 289.409L197.564 256.717C196.112 252.838 191.79 250.87 187.911 252.322Z" fill="#699CFF"/>
<path d="M193.172 245.551L192.937 245.64C190.35 246.607 189.039 249.489 190.006 252.075L207.147 297.872C208.115 300.459 210.996 301.77 213.582 300.803L213.818 300.714C216.404 299.746 217.716 296.865 216.748 294.279L199.608 248.482C198.64 245.895 195.758 244.583 193.172 245.551Z" fill="#208AF2"/>
<path d="M256.597 216.375C255.702 216.275 254.881 215.833 254.306 215.14C253.731 214.448 253.448 213.56 253.515 212.662L255.368 178.812C255.478 176.79 257.186 175.254 259.124 175.433L261.824 175.683C263.761 175.861 265.149 177.683 264.878 179.69L260.324 213.29C260.219 214.185 259.773 215.006 259.079 215.58C258.384 216.155 257.495 216.439 256.597 216.375V216.375Z" fill="#418DF9"/>
<path d="M240.594 219.293C240.316 219.375 240.024 219.401 239.736 219.37C239.447 219.339 239.168 219.252 238.913 219.113C238.659 218.974 238.434 218.786 238.252 218.56C238.07 218.335 237.935 218.075 237.853 217.797L231.235 196.74C231.043 196.142 231.095 195.491 231.382 194.931C231.669 194.371 232.166 193.948 232.765 193.754L234.478 193.237C234.772 193.151 235.081 193.127 235.384 193.167C235.688 193.206 235.98 193.308 236.243 193.466C236.505 193.625 236.731 193.835 236.908 194.085C237.085 194.336 237.208 194.62 237.269 194.92L242.174 216.493C242.311 217.073 242.224 217.683 241.931 218.202C241.638 218.721 241.161 219.111 240.594 219.293V219.293Z" fill="#418DF9"/>
<path d="M231.664 231.436C230.478 232.905 228.093 232.888 226.258 231.396L193.665 204.916C191.719 203.334 191.144 200.716 192.402 199.158L194.155 196.986C195.413 195.428 197.997 195.556 199.839 197.267L230.679 225.92C232.415 227.534 232.85 229.967 231.664 231.436Z" fill="#418DF9"/>
<path d="M246.73 299.832C247.569 300.157 248.25 300.794 248.629 301.61C249.008 302.427 249.055 303.358 248.761 304.209L238.325 336.462C237.701 338.389 235.658 339.437 233.83 338.77L231.282 337.839C229.455 337.172 228.577 335.056 229.353 333.185L242.337 301.862C242.667 301.023 243.308 300.344 244.126 299.965C244.944 299.587 245.877 299.539 246.73 299.832V299.832Z" fill="#418DF9"/>
<path d="M262.947 301.098C263.237 301.09 263.525 301.139 263.796 301.242C264.067 301.346 264.315 301.502 264.525 301.701C264.736 301.9 264.905 302.139 265.024 302.404C265.142 302.669 265.207 302.954 265.215 303.244L266.236 325.293C266.269 325.921 266.051 326.536 265.631 327.004C265.211 327.472 264.622 327.755 263.994 327.789L262.205 327.852C261.899 327.859 261.595 327.804 261.311 327.688C261.027 327.572 260.771 327.399 260.558 327.179C260.345 326.959 260.179 326.698 260.072 326.411C259.965 326.124 259.919 325.818 259.936 325.512L260.704 303.401C260.72 302.806 260.96 302.238 261.375 301.811C261.791 301.384 262.352 301.129 262.947 301.098V301.098Z" fill="#418DF9"/>
<path d="M274.681 291.638C276.203 290.52 278.504 291.146 279.898 293.057L304.647 326.982C306.125 329.009 306.012 331.686 304.397 332.871L302.147 334.523C300.533 335.709 298.067 334.925 296.723 332.8L274.223 297.222C272.958 295.219 273.159 292.755 274.681 291.638Z" fill="#418DF9"/>
</svg>
