<svg width="19" height="21" viewBox="0 0 19 21" fill="none" xmlns="http://www.w3.org/2000/svg">
<path d="M1.5625 20.8333C1.14583 20.8333 0.78125 20.6771 0.46875 20.3646C0.15625 20.0521 0 19.6875 0 19.2708V3.125C0 2.70833 0.15625 2.34375 0.46875 2.03125C0.78125 1.71875 1.14583 1.5625 1.5625 1.5625H3.25521V0.833333C3.25521 0.597222 3.33507 0.399306 3.49479 0.239584C3.65451 0.0798614 3.85243 0 4.08854 0C4.33203 0 4.53614 0.0798614 4.70086 0.239584C4.86556 0.399306 4.94792 0.597222 4.94792 0.833333V1.5625H13.8021V0.833333C13.8021 0.597222 13.8819 0.399306 14.0417 0.239584C14.2014 0.0798614 14.3993 0 14.6354 0C14.8789 0 15.083 0.0798614 15.2477 0.239584C15.4124 0.399306 15.4948 0.597222 15.4948 0.833333V1.5625H17.1875C17.6042 1.5625 17.9688 1.71875 18.2812 2.03125C18.5938 2.34375 18.75 2.70833 18.75 3.125V19.2708C18.75 19.6875 18.5938 20.0521 18.2812 20.3646C17.9688 20.6771 17.6042 20.8333 17.1875 20.8333H1.5625ZM1.5625 19.2708H17.1875V8.07292H1.5625V19.2708ZM1.5625 6.51042H17.1875V3.125H1.5625V6.51042ZM9.375 12.5C9.07986 12.5 8.83247 12.4002 8.63281 12.2005C8.43316 12.0009 8.33333 11.7535 8.33333 11.4583C8.33333 11.1632 8.43316 10.9158 8.63281 10.7161C8.83247 10.5165 9.07986 10.4167 9.375 10.4167C9.67014 10.4167 9.91753 10.5165 10.1172 10.7161C10.3168 10.9158 10.4167 11.1632 10.4167 11.4583C10.4167 11.7535 10.3168 12.0009 10.1172 12.2005C9.91753 12.4002 9.67014 12.5 9.375 12.5ZM5.20833 12.5C4.91319 12.5 4.6658 12.4002 4.46615 12.2005C4.26649 12.0009 4.16667 11.7535 4.16667 11.4583C4.16667 11.1632 4.26649 10.9158 4.46615 10.7161C4.6658 10.5165 4.91319 10.4167 5.20833 10.4167C5.50347 10.4167 5.75087 10.5165 5.95052 10.7161C6.15017 10.9158 6.25 11.1632 6.25 11.4583C6.25 11.7535 6.15017 12.0009 5.95052 12.2005C5.75087 12.4002 5.50347 12.5 5.20833 12.5ZM13.5417 12.5C13.2465 12.5 12.9991 12.4002 12.7995 12.2005C12.5998 12.0009 12.5 11.7535 12.5 11.4583C12.5 11.1632 12.5998 10.9158 12.7995 10.7161C12.9991 10.5165 13.2465 10.4167 13.5417 10.4167C13.8368 10.4167 14.0842 10.5165 14.2839 10.7161C14.4835 10.9158 14.5833 11.1632 14.5833 11.4583C14.5833 11.7535 14.4835 12.0009 14.2839 12.2005C14.0842 12.4002 13.8368 12.5 13.5417 12.5ZM9.375 16.6667C9.07986 16.6667 8.83247 16.5668 8.63281 16.3672C8.43316 16.1675 8.33333 15.9201 8.33333 15.625C8.33333 15.3299 8.43316 15.0825 8.63281 14.8828C8.83247 14.6832 9.07986 14.5833 9.375 14.5833C9.67014 14.5833 9.91753 14.6832 10.1172 14.8828C10.3168 15.0825 10.4167 15.3299 10.4167 15.625C10.4167 15.9201 10.3168 16.1675 10.1172 16.3672C9.91753 16.5668 9.67014 16.6667 9.375 16.6667ZM5.20833 16.6667C4.91319 16.6667 4.6658 16.5668 4.46615 16.3672C4.26649 16.1675 4.16667 15.9201 4.16667 15.625C4.16667 15.3299 4.26649 15.0825 4.46615 14.8828C4.6658 14.6832 4.91319 14.5833 5.20833 14.5833C5.50347 14.5833 5.75087 14.6832 5.95052 14.8828C6.15017 15.0825 6.25 15.3299 6.25 15.625C6.25 15.9201 6.15017 16.1675 5.95052 16.3672C5.75087 16.5668 5.50347 16.6667 5.20833 16.6667ZM13.5417 16.6667C13.2465 16.6667 12.9991 16.5668 12.7995 16.3672C12.5998 16.1675 12.5 15.9201 12.5 15.625C12.5 15.3299 12.5998 15.0825 12.7995 14.8828C12.9991 14.6832 13.2465 14.5833 13.5417 14.5833C13.8368 14.5833 14.0842 14.6832 14.2839 14.8828C14.4835 15.0825 14.5833 15.3299 14.5833 15.625C14.5833 15.9201 14.4835 16.1675 14.2839 16.3672C14.0842 16.5668 13.8368 16.6667 13.5417 16.6667Z" fill="#4E4E4E"/>
</svg>
