<?xml version="1.0" standalone="no"?>
<!DOCTYPE svg PUBLIC "-//W3C//DTD SVG 20010904//EN"
 "http://www.w3.org/TR/2001/REC-SVG-20010904/DTD/svg10.dtd">
<svg version="1.0" xmlns="http://www.w3.org/2000/svg"
 width="512.000000pt" height="512.000000pt" viewBox="0 0 512.000000 512.000000"
 preserveAspectRatio="xMidYMid meet">

<g transform="translate(0.000000,512.000000) scale(0.100000,-0.100000)"
fill="#000000" stroke="none">
<path d="M266 4874 c-36 -11 -65 -31 -107 -73 -97 -98 -89 82 -89 -1912 0
-1957 -6 -1805 73 -1895 22 -25 63 -57 91 -72 l51 -27 1151 -5 1151 -5 -63
-139 c-40 -85 -64 -151 -64 -173 0 -46 45 -93 91 -93 30 0 256 35 289 45 11 4
38 -33 94 -130 80 -139 105 -165 160 -165 53 0 77 39 216 338 l135 290 51 16
c63 20 92 20 158 1 l51 -15 135 -291 c150 -323 165 -345 232 -336 22 3 45 10
53 17 8 6 48 71 91 143 42 73 77 133 78 133 0 1 60 -9 131 -22 177 -31 200
-31 236 5 45 45 39 82 -35 241 l-63 135 136 6 c121 5 142 8 186 31 59 31 104
76 136 138 l24 45 3 1765 c3 2015 11 1833 -87 1931 -99 98 146 89 -2405 88
-1966 0 -2247 -2 -2290 -15z m4553 -162 c66 -36 71 -57 71 -329 l0 -243 -2330
0 -2330 0 0 243 c0 272 5 293 71 329 32 17 123 18 2259 18 2136 0 2227 -1
2259 -18z m69 -2156 l-3 -1424 -25 -27 c-43 -47 -77 -55 -232 -55 l-144 0 -36
80 -37 81 27 10 c142 54 223 124 262 225 23 63 23 46 4 307 l-7 89 64 131 c59
120 64 137 67 207 6 125 -18 173 -148 300 -59 58 -112 114 -118 126 -6 11 -25
76 -42 144 -36 141 -56 186 -108 238 -70 70 -181 102 -355 102 -76 0 -104 13
-224 102 -114 85 -169 108 -258 108 -89 0 -144 -23 -258 -108 -120 -89 -148
-102 -224 -102 -111 0 -220 -18 -272 -44 -109 -56 -152 -125 -197 -321 l-27
-120 -117 -115 c-141 -139 -164 -184 -158 -311 3 -69 8 -86 66 -205 71 -143
71 -146 52 -313 -7 -57 -10 -124 -6 -148 18 -133 108 -227 278 -292 l27 -10
-36 -81 -36 -80 -1159 0 c-1256 0 -1195 -3 -1248 55 l-25 27 -3 1424 -2 1424
2330 0 2330 0 -2 -1424z m-1229 563 c19 -12 70 -48 113 -81 116 -88 148 -99
312 -110 216 -15 237 -31 282 -228 38 -160 59 -197 176 -309 55 -53 106 -108
114 -123 28 -55 18 -107 -47 -239 -34 -68 -64 -146 -69 -173 -4 -30 -2 -97 8
-178 24 -204 7 -234 -183 -314 -71 -29 -134 -63 -159 -85 -22 -20 -74 -86
-115 -147 -112 -167 -142 -177 -345 -117 -151 44 -194 44 -340 0 -207 -63
-240 -50 -358 135 -74 116 -123 156 -260 214 -192 81 -209 111 -185 317 20
167 16 190 -62 348 -93 188 -89 209 67 361 124 121 138 145 176 311 46 196 66
212 281 227 169 12 195 21 328 119 54 41 109 78 120 83 41 16 110 11 146 -11z
m-725 -2086 c30 -49 72 -105 93 -125 45 -44 135 -88 181 -88 17 0 32 -5 32
-11 0 -16 -151 -339 -159 -339 -3 0 -33 46 -66 103 -37 64 -70 106 -86 114
-20 10 -45 9 -135 -8 -60 -10 -114 -18 -120 -17 -8 2 193 458 202 458 1 0 27
-39 58 -87z m1449 -143 c62 -132 100 -226 93 -228 -6 -1 -60 7 -120 17 -90 17
-115 18 -135 8 -16 -7 -49 -51 -86 -115 -33 -56 -63 -102 -66 -102 -6 0 -159
325 -159 339 0 5 20 11 44 13 98 11 175 73 263 210 31 48 58 87 59 85 1 -1 49
-103 107 -227z"/>
<path d="M675 4546 c-52 -23 -70 -52 -70 -111 0 -43 5 -59 24 -79 34 -37 82
-50 126 -36 109 36 115 182 9 226 -40 17 -51 17 -89 0z"/>
<path d="M1143 4545 c-72 -31 -95 -135 -42 -191 33 -35 90 -50 129 -34 105 44
108 183 4 226 -41 17 -50 17 -91 -1z"/>
<path d="M1613 4545 c-39 -17 -73 -68 -73 -111 0 -68 82 -136 146 -120 15 4
42 22 61 41 27 27 33 40 33 78 0 53 -27 93 -76 113 -41 17 -50 17 -91 -1z"/>
<path d="M1235 3610 c-98 -14 -185 -39 -273 -81 -317 -147 -513 -454 -513
-802 0 -211 53 -376 173 -539 170 -232 431 -361 723 -360 784 3 1183 940 642
1509 -123 129 -291 224 -456 258 -90 19 -223 25 -296 15z m193 -160 c340 -43
595 -298 642 -642 20 -144 -20 -339 -94 -456 l-27 -43 -30 58 c-61 117 -148
207 -259 271 -25 14 -47 27 -49 29 -2 2 9 22 26 46 49 68 68 132 68 222 0 68
-5 90 -31 145 -116 245 -422 292 -604 93 -122 -134 -128 -336 -14 -472 14 -18
25 -33 23 -34 -2 -1 -26 -13 -54 -27 -74 -37 -214 -181 -255 -262 -19 -36 -39
-64 -44 -61 -17 11 -86 170 -101 234 -22 93 -20 258 5 353 32 128 91 228 195
332 141 142 283 204 505 223 9 0 53 -4 98 -9z m11 -340 c81 -41 126 -140 103
-227 -48 -180 -279 -216 -376 -59 -72 116 -14 263 122 307 38 12 105 3 151
-21z m82 -584 c129 -52 244 -174 283 -300 l19 -60 -34 -28 c-18 -15 -68 -46
-111 -68 -245 -128 -548 -105 -770 57 -56 41 -56 47 -1 162 61 127 178 222
316 257 83 21 219 12 298 -20z"/>
<path d="M3392 2770 c-201 -53 -387 -206 -476 -393 -53 -111 -69 -185 -69
-317 0 -131 16 -206 68 -316 68 -142 183 -259 327 -334 203 -106 453 -108 654
-7 196 99 334 267 390 477 24 89 24 272 0 360 -71 262 -275 465 -534 531 -100
25 -260 25 -360 -1z m322 -155 c154 -40 302 -159 370 -296 39 -79 66 -185 66
-259 0 -176 -103 -371 -249 -469 -96 -65 -182 -93 -296 -99 -169 -7 -313 47
-431 163 -114 113 -168 245 -168 410 1 111 21 187 77 285 67 119 217 231 353
264 79 19 207 19 278 1z"/>
<path d="M3823 2308 c-21 -18 -114 -102 -206 -186 l-169 -154 -78 76 c-63 62
-83 76 -109 76 -43 0 -81 -39 -81 -81 0 -27 17 -48 113 -145 158 -160 127
-167 419 98 128 116 238 219 245 227 20 26 15 70 -12 96 -34 35 -75 33 -122
-7z"/>
</g>
</svg>
