<?xml version="1.0" standalone="no"?>
<!DOCTYPE svg PUBLIC "-//W3C//DTD SVG 20010904//EN"
 "http://www.w3.org/TR/2001/REC-SVG-20010904/DTD/svg10.dtd">
<svg version="1.0" xmlns="http://www.w3.org/2000/svg"
 width="512.000000pt" height="512.000000pt" viewBox="0 0 512.000000 512.000000"
 preserveAspectRatio="xMidYMid meet">

<g transform="translate(0.000000,512.000000) scale(0.100000,-0.100000)"
fill="#000000" stroke="none">
<path d="M3465 5015 c-24 -23 -25 -29 -25 -160 l0 -135 -1415 0 -1416 0 -24
-25 -25 -24 0 -351 0 -351 25 -24 24 -25 496 0 495 0 0 -182 0 -183 -640 -640
c-586 -587 -640 -643 -640 -673 0 -22 8 -41 25 -57 l24 -25 273 0 272 0 383
382 383 383 383 -383 383 -382 272 0 273 0 24 25 c17 16 25 35 25 57 0 30 -54
86 -640 673 l-640 640 0 183 0 182 840 0 840 0 0 -1280 0 -1280 -55 0 c-46 0
-60 -4 -80 -25 l-25 -24 0 -376 0 -375 -320 0 -320 0 0 537 0 538 -463 462
c-432 433 -464 463 -497 463 -33 0 -65 -30 -497 -463 l-463 -462 0 -538 0
-537 -295 0 -296 0 -24 -25 c-25 -24 -25 -26 -25 -215 0 -189 0 -191 25 -215
l24 -25 2431 0 2431 0 24 25 c25 24 25 26 25 215 0 189 0 191 -25 215 l-24 25
-296 0 -295 0 0 375 0 376 -25 24 c-20 21 -34 25 -80 25 l-55 0 0 320 0 320
135 0 c131 0 137 1 160 25 l25 24 0 671 0 671 -25 24 c-23 24 -29 25 -160 25
l-135 0 0 240 0 240 160 0 160 0 0 -95 c0 -88 2 -98 25 -120 24 -25 26 -25
215 -25 189 0 191 0 215 25 l25 24 0 591 0 591 -25 24 c-24 25 -26 25 -215 25
-189 0 -191 0 -215 -25 -23 -22 -25 -32 -25 -120 l0 -95 -160 0 -160 0 0 135
c0 131 -1 137 -25 160 l-24 25 -351 0 -351 0 -24 -25z m437 -197 l-62 -63 -62
63 -63 62 125 0 125 0 -63 -62z m978 -498 l0 -480 -80 0 -80 0 0 480 0 480 80
0 80 0 0 -480z m-1218 258 l-62 -63 0 125 0 125 62 -63 63 -62 -63 -62z m418
60 l0 -123 -62 62 -63 63 60 60 c33 33 61 60 62 60 2 0 3 -55 3 -122z m-3195
-198 l120 -120 -120 -120 c-83 -83 -127 -120 -142 -120 l-23 0 0 240 0 240 23
0 c15 0 59 -37 142 -120z m297 58 l-62 -63 -62 63 -63 62 125 0 125 0 -63 -62z
m640 0 l-62 -63 -62 63 -63 62 125 0 125 0 -63 -62z m640 0 l-62 -63 -62 63
-63 62 125 0 125 0 -63 -62z m640 0 l-62 -63 -62 63 -63 62 125 0 125 0 -63
-62z m338 -178 l0 -240 -23 0 c-15 0 -59 37 -142 120 l-120 120 120 120 c83
83 127 120 142 120 l23 0 0 -240z m1120 0 l0 -240 -160 0 -160 0 0 240 0 240
160 0 160 0 0 -240z m-3015 100 l100 -100 -103 -103 -102 -102 -102 102 -103
103 100 100 c55 55 102 100 105 100 3 0 50 -45 105 -100z m640 0 l100 -100
-103 -103 -102 -102 -102 102 -103 103 100 100 c55 55 102 100 105 100 3 0 50
-45 105 -100z m640 0 l100 -100 -103 -103 -102 -102 -102 102 -103 103 100
100 c55 55 102 100 105 100 3 0 50 -45 105 -100z m1120 0 l100 -100 -103 -103
-102 -102 -102 102 -103 103 100 100 c55 55 102 100 105 100 3 0 50 -45 105
-100z m-2760 -280 l59 -60 -124 0 -124 0 59 60 c33 33 62 60 65 60 3 0 32 -27
65 -60z m640 0 l59 -60 -124 0 -124 0 59 60 c33 33 62 60 65 60 3 0 32 -27 65
-60z m640 0 l59 -60 -124 0 -124 0 59 60 c33 33 62 60 65 60 3 0 32 -27 65
-60z m640 0 l59 -60 -124 0 -124 0 59 60 c33 33 62 60 65 60 3 0 32 -27 65
-60z m557 -202 l-62 -63 0 125 0 125 62 -63 63 -62 -63 -62z m418 60 l0 -123
-62 62 -63 63 60 60 c33 33 61 60 62 60 2 0 3 -55 3 -122z m-135 -218 l100
-100 -103 -103 -102 -102 -102 102 -103 103 100 100 c55 55 102 100 105 100 3
0 50 -45 105 -100z m-283 -482 l-62 -63 0 125 0 125 62 -63 63 -62 -63 -62z
m418 60 l0 -123 -62 62 -63 63 60 60 c33 33 61 60 62 60 2 0 3 -55 3 -122z
m-1855 -498 l540 -540 -125 0 -125 0 -400 400 c-372 372 -403 400 -435 400
-32 0 -63 -28 -435 -400 l-400 -400 -125 0 -125 0 540 540 c297 297 542 540
545 540 3 0 248 -243 545 -540z m2175 -140 l0 -560 -80 0 -80 0 0 560 0 560
80 0 80 0 0 -560z m-455 420 l100 -100 -103 -103 -102 -102 -102 102 -103 103
100 100 c55 55 102 100 105 100 3 0 50 -45 105 -100z m-283 -482 l-62 -63 0
125 0 125 62 -63 63 -62 -63 -62z m418 60 l0 -123 -62 62 -63 63 60 60 c33 33
61 60 62 60 2 0 3 -55 3 -122z m-135 -218 l100 -100 -103 -103 -102 -102 -102
102 -103 103 100 100 c55 55 102 100 105 100 3 0 50 -45 105 -100z m-1863
-537 l398 -398 0 -502 0 -503 -200 0 -200 0 0 375 0 376 -25 24 -24 25 -351 0
-351 0 -24 -25 -25 -24 0 -376 0 -375 -200 0 -200 0 0 502 0 503 397 397 c219
219 400 398 403 398 3 0 184 -179 402 -397z m1580 55 l-62 -63 0 125 0 125 62
-63 63 -62 -63 -62z m418 60 l0 -123 -62 62 -63 63 60 60 c33 33 61 60 62 60
2 0 3 -55 3 -122z m-135 -218 l100 -100 -103 -103 -102 -102 -102 102 -103
103 100 100 c55 55 102 100 105 100 3 0 50 -45 105 -100z m-260 -460 c-23 -24
-48 -40 -62 -40 -22 0 -23 2 -23 102 l0 103 62 -62 62 -63 -39 -40z m395 60
c0 -98 -1 -100 -23 -100 -14 0 -39 16 -62 40 l-39 40 59 60 c33 33 61 60 62
60 2 0 3 -45 3 -100z m-2160 -580 l0 -320 -240 0 -240 0 0 320 0 320 240 0
240 0 0 -320z m2320 0 l0 -320 -400 0 -400 0 0 320 0 320 400 0 400 0 0 -320z
m640 -560 l0 -80 -2320 0 -2320 0 0 80 0 80 2320 0 2320 0 0 -80z"/>
</g>
</svg>
