<?xml version="1.0" standalone="no"?>
<!DOCTYPE svg PUBLIC "-//W3C//DTD SVG 20010904//EN"
 "http://www.w3.org/TR/2001/REC-SVG-20010904/DTD/svg10.dtd">
<svg version="1.0" xmlns="http://www.w3.org/2000/svg"
 width="512.000000pt" height="512.000000pt" viewBox="0 0 512.000000 512.000000"
 preserveAspectRatio="xMidYMid meet">

<g transform="translate(0.000000,512.000000) scale(0.100000,-0.100000)"
fill="#000000" stroke="none">
<path d="M1602 5113 c-7 -3 -19 -18 -27 -33 l-15 -28 -131 -4 c-130 -3 -131
-3 -156 -32 -24 -28 -24 -30 -21 -206 4 -232 -5 -220 174 -220 l132 0 19 -37
18 -38 125 -5 c75 -3 124 -9 124 -15 -1 -5 -21 -76 -45 -157 l-43 -147 -365
-3 c-349 -3 -368 -4 -412 -24 -113 -52 -189 -166 -189 -281 0 -132 77 -248
193 -292 54 -20 76 -21 337 -21 154 0 280 -4 280 -9 0 -5 -7 -26 -16 -47 -26
-62 -16 -185 21 -251 15 -29 36 -60 46 -69 18 -16 17 -18 -16 -56 -87 -103
-88 -284 -1 -384 l33 -39 -34 -44 c-97 -128 -77 -313 48 -425 65 -59 123 -76
253 -76 l101 -1 -55 -50 c-30 -27 -117 -97 -192 -155 -218 -167 -298 -267
-350 -434 -23 -75 -23 -75 -23 -660 l0 -585 27 -55 c53 -109 139 -182 247
-214 44 -13 109 -16 346 -16 281 0 293 1 319 21 33 26 36 77 5 105 -19 18 -44
19 -328 24 l-308 5 -49 30 c-30 19 -60 49 -79 79 l-30 49 -3 464 -3 463 626 0
625 0 0 -443 c0 -489 -3 -466 62 -482 22 -6 33 -1 58 23 l30 30 0 436 0 436
160 0 161 0 -3 -452 c-3 -411 -5 -457 -21 -493 -23 -51 -61 -91 -112 -118 -37
-20 -58 -22 -293 -27 -252 -5 -254 -5 -273 -29 -26 -32 -24 -67 6 -97 l26 -25
262 3 c260 3 262 4 320 30 73 35 156 113 191 181 48 95 49 128 44 1073 l-6
882 287 5 c312 5 349 10 467 68 34 17 99 63 145 101 130 110 235 147 416 148
128 0 123 -12 123 265 0 219 0 222 -23 243 -38 36 -88 28 -112 -19 -11 -21
-15 -66 -15 -182 l0 -153 -99 -12 c-162 -19 -264 -66 -396 -182 -127 -112
-216 -132 -570 -128 l-220 3 -3 601 c-2 596 -2 601 -23 620 -20 18 -43 19
-323 22 -165 2 -312 0 -325 -3 -14 -4 -90 -70 -170 -149 -125 -122 -153 -144
-194 -156 -55 -15 -131 -9 -178 15 -104 54 -149 194 -98 305 25 55 351 388
419 428 l45 27 485 3 c324 2 506 -1 549 -8 127 -22 209 -77 312 -210 65 -84
133 -142 214 -183 104 -52 147 -59 367 -64 l207 -5 3 -165 c3 -159 4 -165 27
-184 30 -25 76 -24 101 1 19 19 20 33 20 240 0 207 -1 221 -20 240 -19 19 -33
20 -238 20 -120 0 -245 5 -278 11 -98 18 -177 63 -247 142 -140 157 -179 195
-239 230 -112 66 -169 79 -380 85 l-188 4 0 65 c0 74 19 125 63 171 59 62 97
74 246 80 113 4 137 8 152 23 40 40 29 53 -244 326 l-262 263 -238 0 -238 0
-24 -25 c-14 -13 -25 -36 -25 -50 0 -14 11 -37 25 -50 24 -25 25 -25 232 -25
l208 0 159 -159 158 -158 -49 -7 c-109 -14 -227 -104 -279 -213 -22 -47 -29
-76 -32 -150 l-4 -93 -329 0 -329 0 -152 227 c-114 170 -159 229 -178 234 -14
4 -114 7 -222 8 l-198 1 0 155 0 155 383 0 384 0 21 23 c29 31 29 77 -1 105
-23 22 -25 22 -453 21 -236 0 -435 -3 -442 -6z m-42 -293 l0 -80 -80 0 -80 0
0 73 c0 41 3 77 7 80 3 4 39 7 80 7 l73 0 0 -80z m580 -419 c39 -61 70 -114
69 -119 -4 -11 -241 -215 -277 -239 -18 -12 -25 -13 -37 -3 -8 7 -15 19 -15
27 0 15 118 422 127 436 2 4 17 7 32 7 25 0 37 -13 101 -109z m-406 -385 c16
-65 104 -125 183 -126 60 0 86 13 171 85 l75 65 86 0 86 0 -160 -160 -160
-160 -479 0 c-469 0 -479 0 -516 21 -89 50 -107 186 -32 252 47 42 82 46 418
47 l322 0 6 -24z m208 -544 c3 -85 7 -106 34 -160 l31 -62 -81 0 c-153 0 -234
78 -204 197 19 77 81 119 180 122 l36 1 4 -98z m1330 -907 c2 -470 3 -926 3
-1012 l0 -158 -157 -3 -158 -3 0 1016 0 1015 155 0 155 0 2 -855z m-467 -1162
c-3 -10 -138 -13 -625 -13 l-620 0 6 28 c26 121 72 213 142 285 20 21 100 86
177 145 154 118 268 221 309 281 l27 38 107 5 c110 6 157 19 213 60 121 90
144 327 42 439 l-35 39 40 45 c49 56 66 113 60 208 -5 79 -24 125 -71 174 -17
18 -29 34 -26 36 2 1 24 16 48 32 24 16 80 69 125 118 l81 89 3 -998 c1 -550
0 -1005 -3 -1011z m-377 1669 c89 -64 86 -197 -8 -259 -32 -23 -39 -23 -312
-23 -220 0 -285 3 -306 14 -90 47 -114 160 -50 241 41 52 59 55 363 52 275 -2
281 -2 313 -25z m-52 -443 c137 -35 160 -225 34 -289 -36 -19 -58 -20 -306
-20 -225 0 -271 3 -300 16 -67 32 -104 111 -85 182 13 46 64 97 111 110 50 14
490 15 546 1z"/>
<path d="M374 4960 c-26 -10 -54 -48 -54 -71 0 -9 9 -28 21 -43 l20 -26 345 0
c331 0 345 1 364 20 38 38 22 100 -31 119 -38 13 -633 14 -665 1z"/>
<path d="M665 4487 c-348 -176 -361 -185 -336 -245 7 -18 25 -35 43 -43 29
-12 44 -5 350 147 176 87 331 169 344 181 49 45 18 124 -48 123 -22 -1 -142
-56 -353 -163z"/>
<path d="M673 3288 c-23 -11 -33 -31 -58 -123 -41 -149 -155 -296 -281 -363
-64 -33 -74 -45 -74 -91 0 -32 16 -48 88 -87 63 -33 157 -130 200 -205 16 -30
42 -90 57 -134 44 -132 45 -133 76 -144 31 -11 71 -2 84 19 3 5 15 42 26 81
50 180 152 314 299 391 95 50 91 110 -13 167 -126 69 -221 197 -277 372 -18
54 -37 102 -43 108 -20 16 -61 21 -84 9z m90 -398 c20 -32 66 -85 100 -117
l64 -59 -65 -59 c-36 -33 -86 -92 -112 -130 l-46 -71 -34 61 c-19 33 -68 93
-108 133 l-73 72 33 28 c58 47 117 115 150 174 27 47 35 55 43 41 6 -9 27 -42
48 -73z"/>
</g>
</svg>
