<?xml version="1.0" standalone="no"?>
<!DOCTYPE svg PUBLIC "-//W3C//DTD SVG 20010904//EN"
 "http://www.w3.org/TR/2001/REC-SVG-20010904/DTD/svg10.dtd">
<svg version="1.0" xmlns="http://www.w3.org/2000/svg"
 width="512.000000pt" height="512.000000pt" viewBox="0 0 512.000000 512.000000"
 preserveAspectRatio="xMidYMid meet">

<g transform="translate(0.000000,512.000000) scale(0.100000,-0.100000)"
fill="#000000" stroke="none">
<path d="M3932 4709 c-154 -20 -276 -82 -393 -199 -72 -71 -93 -100 -132 -180
-73 -149 -93 -296 -63 -440 l14 -65 -161 -162 -161 -162 -77 74 c-104 101
-164 129 -279 130 -158 0 -114 37 -931 -782 -669 -670 -718 -722 -737 -773
-52 -145 -29 -274 68 -382 l38 -43 -318 -320 c-283 -284 -322 -327 -349 -385
-173 -370 199 -742 569 -569 58 27 101 66 385 349 l320 318 43 -38 c108 -97
237 -120 382 -68 51 19 103 68 773 737 819 817 782 773 782 931 -1 113 -29
175 -125 274 l-69 72 163 163 163 163 77 -12 c149 -25 312 4 446 77 91 51 225
187 272 278 129 249 101 549 -69 760 -152 188 -396 286 -631 254z m265 -154
c233 -79 383 -284 383 -525 0 -167 -48 -288 -160 -400 -138 -140 -335 -199
-515 -155 -114 27 -100 35 -305 -170 l-185 -185 -145 145 -145 145 189 189
c159 160 188 193 183 213 -3 13 -13 57 -22 98 -52 229 62 482 270 600 131 75
310 92 452 45z m-1403 -1009 c52 -31 738 -720 760 -763 47 -94 26 -188 -64
-285 l-59 -63 -498 498 -498 498 64 60 c99 92 200 111 295 55z m46 -711 l495
-495 -493 -492 -492 -493 -497 497 -498 498 490 490 c269 269 492 490 495 490
3 0 228 -223 500 -495z m-1078 -1072 c269 -269 488 -493 488 -499 0 -18 -111
-115 -150 -132 -48 -20 -137 -19 -180 2 -48 25 -756 731 -782 781 -25 48 -28
133 -6 185 17 39 114 150 131 150 7 0 231 -219 499 -487z m-449 -865 c-365
-365 -362 -363 -498 -356 -93 5 -149 30 -203 93 -50 57 -65 94 -70 178 -8 135
-13 128 352 495 l321 322 207 -207 208 -208 -317 -317z"/>
<path d="M3945 4249 c-43 -12 -112 -74 -137 -123 -15 -28 -21 -60 -22 -102 0
-225 271 -324 418 -152 155 180 -27 445 -259 377z m151 -153 c40 -40 45 -83
14 -133 -22 -37 -69 -54 -115 -41 -86 24 -107 143 -32 188 50 31 93 26 133
-14z"/>
<path d="M2630 2773 c-261 -39 -353 -64 -487 -129 -167 -80 -268 -201 -294
-351 -29 -163 58 -336 204 -408 264 -129 539 40 656 404 48 147 81 384 60 433
-19 47 -63 63 -139 51z m10 -162 c0 -15 -7 -66 -15 -113 -62 -359 -238 -562
-449 -518 -138 29 -225 163 -196 304 32 157 201 271 489 331 159 33 171 32
171 -4z"/>
<path d="M749 967 c-18 -12 -44 -38 -57 -57 -20 -29 -23 -45 -20 -92 12 -171
234 -216 309 -62 54 112 -22 234 -146 234 -38 0 -61 -6 -86 -23z m116 -128
c14 -42 -45 -66 -61 -24 -10 25 4 45 30 45 16 0 27 -7 31 -21z"/>
<path d="M1710 4036 c-102 -18 -195 -36 -207 -40 -43 -14 -44 -93 -3 -112 20
-10 47 -8 129 6 l103 17 -468 -468 c-257 -258 -470 -466 -472 -464 -2 2 3 47
12 100 18 102 14 125 -25 146 -25 13 -74 -4 -83 -28 -3 -8 -22 -109 -41 -224
-49 -292 -58 -282 217 -239 223 36 254 44 269 72 15 27 4 65 -24 83 -20 13
-33 13 -117 0 -51 -9 -97 -14 -102 -13 -4 2 203 214 461 472 l468 468 -13 -73
c-18 -102 -18 -164 2 -179 21 -18 72 -17 90 2 10 10 28 91 51 237 l36 222 -23
24 c-29 31 -30 31 -260 -9z"/>
<path d="M3776 1955 c-127 -22 -204 -39 -214 -49 -19 -18 -20 -69 -2 -90 15
-20 77 -20 179 -2 l73 13 -468 -468 c-257 -257 -470 -466 -472 -464 -2 2 3 47
12 100 18 102 14 125 -25 146 -27 14 -66 4 -79 -22 -21 -37 -81 -438 -70 -459
22 -41 39 -42 260 -5 116 19 219 39 229 44 24 13 35 55 21 81 -20 38 -43 42
-145 24 -53 -9 -98 -14 -100 -12 -2 2 206 215 464 472 l468 468 -17 -103 c-19
-113 -15 -144 22 -158 39 -14 76 6 88 47 11 40 70 390 70 416 0 26 -37 56 -67
55 -16 -1 -118 -16 -227 -34z"/>
</g>
</svg>
