<svg width="10" height="10" viewBox="0 0 10 10" fill="none" xmlns="http://www.w3.org/2000/svg">
<path d="M0.742574 10C0.544554 10 0.371287 9.92583 0.222772 9.7775C0.0742574 9.62917 0 9.45612 0 9.25834V1.84178C0 1.644 0.0742574 1.47095 0.222772 1.32262C0.371287 1.17429 0.544554 1.10012 0.742574 1.10012H4.86386C4.98762 1.10012 5.08045 1.13852 5.14233 1.2153C5.20421 1.29209 5.23515 1.37656 5.23515 1.4687C5.23515 1.56085 5.20345 1.64607 5.14006 1.72435C5.07667 1.80264 4.9846 1.84178 4.86386 1.84178H0.742574V9.25834H8.16832V5.10507C8.16832 4.98146 8.20676 4.88875 8.28364 4.82695C8.36052 4.76514 8.44509 4.73424 8.53735 4.73424C8.62961 4.73424 8.71493 4.76514 8.79332 4.82695C8.8717 4.88875 8.91089 4.98146 8.91089 5.10507V9.25834C8.91089 9.45612 8.83663 9.62917 8.68812 9.7775C8.5396 9.92583 8.36634 10 8.16832 10H0.742574ZM2.9703 6.66255V5.24104C2.9703 5.13849 2.99092 5.04075 3.03218 4.94781C3.07343 4.85487 3.12706 4.77544 3.19307 4.70952L7.69802 0.210136C7.77228 0.13597 7.85479 0.0824063 7.94554 0.0494438C8.0363 0.0164813 8.12706 0 8.21782 0C8.30858 0 8.40065 0.0185414 8.49402 0.0556242C8.5874 0.092707 8.67272 0.148331 8.75 0.222497L9.77723 1.26082C9.84826 1.33464 9.90314 1.41614 9.94188 1.50534C9.98063 1.59454 10 1.68527 10 1.77754C10 1.86981 9.98144 1.96333 9.94431 2.0581C9.90718 2.15286 9.85149 2.23733 9.77723 2.3115L5.29703 6.81088C5.23102 6.8768 5.15149 6.93037 5.05844 6.97157C4.96539 7.01277 4.86752 7.03337 4.76485 7.03337H3.34158C3.23639 7.03337 3.14821 6.99784 3.07704 6.92676C3.00588 6.85569 2.9703 6.76761 2.9703 6.66255ZM3.71287 6.29172H4.76485L7.89604 3.1644L7.36386 2.64524L6.83168 2.12608L3.71287 5.22868V6.29172Z" fill="#828282"/>
</svg>
