<?xml version="1.0" standalone="no"?>
<!DOCTYPE svg PUBLIC "-//W3C//DTD SVG 20010904//EN"
 "http://www.w3.org/TR/2001/REC-SVG-20010904/DTD/svg10.dtd">
<svg version="1.0" xmlns="http://www.w3.org/2000/svg"
 width="512.000000pt" height="512.000000pt" viewBox="0 0 512.000000 512.000000"
 preserveAspectRatio="xMidYMid meet">

<g transform="translate(0.000000,512.000000) scale(0.100000,-0.100000)"
fill="#000000" stroke="none">
<path d="M328 4291 c-156 -50 -272 -171 -313 -326 -13 -52 -15 -227 -15 -1400
0 -1162 2 -1349 15 -1404 37 -155 158 -283 314 -331 62 -20 105 -20 2230 -20
1954 0 2173 2 2222 16 164 48 289 183 325 353 20 98 20 2664 0 2762 -19 89
-57 161 -119 227 -61 63 -115 97 -198 123 -59 18 -133 19 -2232 18 -2073 0
-2175 -1 -2229 -18z m4447 -184 l60 -28 -980 -977 c-1050 -1047 -1016 -1016
-1158 -1057 -74 -21 -200 -21 -274 0 -144 42 -106 7 -1157 1056 l-979 977 41
21 c23 12 59 25 79 30 22 5 949 8 2173 8 l2135 -2 60 -28z m-3983 -2009 l-612
-613 0 1202 c0 661 3 1209 6 1218 5 13 149 -125 613 -589 l606 -606 -613 -612z
m4147 582 l1 -1195 -612 612 -613 613 605 605 c533 533 606 602 612 583 3 -13
6 -561 7 -1218z m-3094 -408 c272 -270 319 -313 382 -345 102 -53 207 -78 328
-78 125 -1 215 20 325 73 82 40 97 54 398 352 l312 310 675 -674 c608 -608
674 -677 668 -700 -11 -47 -57 -122 -96 -156 -82 -69 99 -64 -2277 -64 -2382
0 -2195 -5 -2279 67 -42 35 -76 90 -92 148 -9 29 1 40 663 702 370 370 675
673 677 673 3 0 145 -139 316 -308z"/>
</g>
</svg>
