<?xml version="1.0" standalone="no"?>
<!DOCTYPE svg PUBLIC "-//W3C//DTD SVG 20010904//EN"
 "http://www.w3.org/TR/2001/REC-SVG-20010904/DTD/svg10.dtd">
<svg version="1.0" xmlns="http://www.w3.org/2000/svg"
 width="512.000000pt" height="512.000000pt" viewBox="0 0 512.000000 512.000000"
 preserveAspectRatio="xMidYMid meet">

<g transform="translate(0.000000,512.000000) scale(0.100000,-0.100000)"
fill="#000000" stroke="none">
<path d="M2386 4629 c-62 -15 -153 -68 -197 -116 -22 -24 -55 -74 -72 -111
-30 -63 -32 -75 -35 -209 -4 -141 -4 -142 21 -167 l26 -26 416 0 415 0 0 -160
0 -160 -328 0 -329 0 -404 -280 -404 -280 -244 0 c-162 0 -257 -4 -285 -12
-55 -16 -138 -99 -154 -154 -9 -30 -12 -186 -12 -578 l0 -536 -80 0 -80 0 0
375 0 376 -25 24 c-23 24 -31 25 -136 25 -61 0 -130 -5 -153 -12 -55 -16 -138
-99 -154 -154 -17 -59 -17 -1689 0 -1748 16 -55 99 -138 154 -154 23 -7 92
-12 153 -12 105 0 113 1 136 25 l25 24 0 376 0 375 80 0 80 0 0 -336 c0 -235
4 -349 12 -378 17 -58 100 -138 158 -154 35 -10 309 -12 1200 -10 l1155 3 47
28 c26 15 58 42 72 60 13 17 84 166 156 330 l132 297 270 0 269 0 24 25 25 24
0 456 0 455 80 0 80 0 0 -375 0 -376 25 -24 c23 -24 31 -25 136 -25 61 0 130
5 153 12 55 16 138 99 154 154 17 59 17 1689 0 1748 -16 55 -99 138 -154 154
-23 7 -92 12 -153 12 -105 0 -113 -1 -136 -25 l-25 -24 0 -376 0 -375 -80 0
-80 0 0 416 c0 298 -3 428 -12 458 -16 55 -99 138 -154 154 -28 8 -126 12
-298 12 l-256 0 0 160 0 160 415 0 416 0 26 26 c25 25 25 26 22 168 -4 141 -5
143 -41 218 -45 91 -103 147 -196 191 l-67 32 -875 2 c-508 1 -891 -3 -914 -8z
m1768 -161 c55 -16 138 -99 154 -154 7 -23 12 -67 12 -98 l0 -56 -1040 0
-1040 0 0 56 c0 31 5 75 12 98 15 51 99 137 148 153 52 16 1698 17 1754 1z
m-714 -628 l0 -160 -160 0 -160 0 0 160 0 160 160 0 160 0 0 -160z m695 -345
l25 -24 0 -1056 0 -1055 -254 0 c-227 0 -256 -2 -274 -17 -12 -10 -84 -162
-162 -338 -89 -203 -150 -328 -166 -343 l-25 -22 -1135 0 -1135 0 -24 25 -25
24 0 1111 0 1111 25 24 24 25 268 0 268 0 404 280 404 280 879 0 879 0 24 -25z
m640 -240 l25 -24 0 -831 0 -831 -25 -24 c-20 -21 -34 -25 -80 -25 l-55 0 0
880 0 880 55 0 c46 0 60 -4 80 -25z m-4295 -1655 l0 -880 -55 0 c-46 0 -60 4
-80 25 l-25 24 0 831 0 831 25 24 c20 21 34 25 80 25 l55 0 0 -880z m4000 800
l0 -80 -80 0 -80 0 0 80 0 80 80 0 80 0 0 -80z m-3680 -800 l0 -80 -80 0 -80
0 0 80 0 80 80 0 80 0 0 -80z"/>
<path d="M3520 3280 l0 -80 80 0 80 0 0 80 0 80 -80 0 -80 0 0 -80z"/>
<path d="M3840 3280 l0 -80 80 0 80 0 0 80 0 80 -80 0 -80 0 0 -80z"/>
<path d="M2761 3103 c-24 -20 -36 -62 -46 -165 -4 -38 -12 -68 -17 -68 -5 0
-44 27 -86 60 -111 86 -119 85 -241 -35 l-97 -95 -146 0 c-193 0 -195 -1 -213
-182 -4 -38 -12 -68 -17 -68 -5 0 -45 27 -87 60 -116 89 -116 89 -273 -68
-159 -159 -159 -158 -63 -280 42 -52 61 -84 53 -87 -7 -2 -53 -9 -102 -15 -98
-12 -120 -21 -136 -50 -13 -25 -13 -355 0 -380 16 -29 38 -38 136 -50 49 -6
95 -13 102 -15 8 -3 -12 -35 -53 -87 -96 -122 -96 -121 63 -280 157 -157 158
-158 274 -68 42 33 81 60 86 60 5 0 13 -30 17 -68 19 -184 16 -182 242 -182
100 0 182 4 193 10 29 16 38 38 50 136 6 49 13 95 15 102 3 8 35 -11 87 -53
117 -92 124 -91 247 30 l97 95 143 0 c78 0 151 5 161 10 29 16 38 38 50 136 6
49 13 95 15 102 3 8 35 -11 87 -53 122 -96 121 -96 280 63 159 159 159 158 63
280 -42 52 -61 84 -53 87 7 2 53 9 102 15 98 12 120 21 136 50 13 25 13 355 0
380 -16 29 -38 38 -136 50 -49 6 -95 13 -102 15 -8 3 11 35 53 87 96 122 96
121 -63 280 -159 159 -158 159 -280 63 -52 -42 -84 -61 -87 -53 -2 7 -9 53
-15 102 -12 98 -21 120 -50 136 -11 6 -93 10 -193 10 -152 0 -178 -2 -196 -17z
m283 -175 c3 -18 10 -66 15 -106 5 -40 15 -80 23 -89 20 -25 119 -65 143 -59
12 3 57 33 100 66 43 33 80 60 84 60 8 0 111 -103 111 -111 0 -3 -27 -41 -60
-84 -33 -43 -63 -88 -66 -100 -6 -24 34 -123 59 -143 9 -8 49 -18 89 -23 40
-4 88 -11 106 -14 l32 -6 0 -79 0 -79 -32 -5 c-18 -3 -66 -10 -106 -15 -40 -5
-80 -15 -89 -23 -25 -20 -65 -119 -59 -143 3 -12 33 -57 66 -100 33 -43 60
-80 60 -84 0 -8 -103 -111 -111 -111 -3 0 -41 27 -84 60 -43 33 -88 63 -100
66 -24 6 -123 -34 -143 -59 -8 -9 -18 -49 -23 -89 -5 -40 -12 -88 -15 -105
l-5 -33 -73 0 -74 0 -56 70 c-37 46 -53 72 -44 74 7 3 53 10 102 16 130 16
146 29 146 119 0 36 4 51 14 51 7 0 45 16 84 35 85 43 142 102 186 195 28 59
31 74 31 160 0 86 -3 101 -31 160 -58 122 -155 200 -283 230 -72 17 -169 7
-238 -25 l-56 -25 -48 45 c-69 65 -92 62 -199 -21 l-85 -66 -11 74 -10 73 55
58 c30 31 58 57 62 57 3 0 41 -27 84 -60 43 -33 88 -63 100 -66 24 -6 123 34
143 59 8 9 18 49 23 89 5 40 12 88 15 106 l5 32 79 0 79 0 5 -32z m-804 -295
c3 -53 32 -208 42 -220 20 -25 119 -65 143 -59 12 3 57 33 100 66 43 33 80 60
84 60 8 0 111 -103 111 -111 0 -3 -27 -41 -60 -84 -33 -43 -63 -88 -66 -100
-6 -24 34 -123 59 -143 9 -8 49 -18 89 -23 40 -5 88 -12 106 -15 l32 -5 0 -79
0 -79 -32 -6 c-18 -3 -66 -10 -106 -14 -40 -5 -80 -15 -89 -23 -25 -20 -65
-119 -59 -143 3 -12 33 -57 66 -100 33 -43 60 -80 60 -84 0 -8 -103 -111 -111
-111 -3 0 -41 27 -84 60 -43 33 -88 63 -100 66 -24 6 -123 -34 -143 -59 -8 -9
-18 -49 -23 -89 -5 -40 -12 -88 -15 -105 l-5 -33 -79 0 -79 0 -5 33 c-3 17
-10 65 -15 105 -5 40 -15 80 -23 89 -20 25 -119 65 -143 59 -12 -3 -57 -33
-100 -66 -43 -33 -80 -60 -84 -60 -8 0 -111 103 -111 111 0 3 27 41 60 84 33
43 63 88 66 100 6 24 -34 123 -59 143 -9 8 -49 18 -89 23 -40 5 -88 12 -105
15 l-33 5 0 79 0 79 33 5 c17 3 65 10 105 15 40 5 80 15 89 23 25 20 65 119
59 143 -3 12 -33 57 -66 100 -33 43 -60 80 -60 84 0 8 103 111 111 111 3 0 41
-27 84 -60 43 -33 88 -63 100 -66 24 -6 123 34 143 59 8 9 18 49 23 89 5 40
12 88 15 106 l5 32 79 0 c44 0 80 -3 80 -7z m810 -174 c96 -43 144 -117 144
-219 0 -90 -44 -168 -116 -206 -37 -19 -38 -19 -38 22 0 73 -21 88 -146 104
-49 6 -95 13 -102 15 -8 3 11 35 53 87 72 92 81 125 44 172 l-21 26 24 9 c39
16 111 12 158 -10z"/>
<path d="M2066 2310 c-63 -16 -153 -70 -197 -117 -22 -24 -55 -74 -72 -111
-29 -61 -32 -76 -32 -163 0 -90 2 -99 37 -171 45 -91 103 -147 196 -191 61
-29 76 -32 162 -32 86 0 101 3 162 32 93 44 151 100 196 191 35 72 37 81 37
172 0 91 -2 100 -37 172 -68 136 -188 217 -336 224 -42 2 -94 -1 -116 -6z
m168 -162 c86 -26 166 -136 166 -228 0 -124 -116 -240 -240 -240 -124 0 -240
116 -240 240 0 63 23 114 75 165 70 71 145 90 239 63z"/>
<path d="M1120 880 l0 -80 80 0 80 0 0 80 0 80 -80 0 -80 0 0 -80z"/>
<path d="M1440 880 l0 -80 80 0 80 0 0 80 0 80 -80 0 -80 0 0 -80z"/>
</g>
</svg>
