<svg width="15" height="16" viewBox="0 0 15 16" fill="none" xmlns="http://www.w3.org/2000/svg">
<path d="M1.70455 15.3409C1.2358 15.3409 0.834517 15.174 0.50071 14.8402C0.166903 14.5064 0 14.1051 0 13.6364V1.70455C0 1.2358 0.166903 0.834517 0.50071 0.50071C0.834517 0.166903 1.2358 0 1.70455 0H6.81818C7.05966 0 7.26207 0.0816761 7.42543 0.245028C7.58878 0.408381 7.67045 0.610795 7.67045 0.852273C7.67045 1.09375 7.58878 1.29616 7.42543 1.45952C7.26207 1.62287 7.05966 1.70455 6.81818 1.70455H1.70455V13.6364H6.81818C7.05966 13.6364 7.26207 13.718 7.42543 13.8814C7.58878 14.0447 7.67045 14.2472 7.67045 14.4886C7.67045 14.7301 7.58878 14.9325 7.42543 15.0959C7.26207 15.2592 7.05966 15.3409 6.81818 15.3409H1.70455ZM12.081 8.52273H5.96591C5.72443 8.52273 5.52202 8.44105 5.35866 8.2777C5.19531 8.11435 5.11364 7.91193 5.11364 7.67045C5.11364 7.42898 5.19531 7.22656 5.35866 7.06321C5.52202 6.89986 5.72443 6.81818 5.96591 6.81818H12.081L10.483 5.22017C10.3267 5.06392 10.2486 4.87216 10.2486 4.64489C10.2486 4.41761 10.3267 4.21875 10.483 4.0483C10.6392 3.87784 10.8381 3.78906 11.0795 3.78196C11.321 3.77486 11.527 3.85653 11.6974 4.02699L14.7443 7.07386C14.9148 7.24432 15 7.44318 15 7.67045C15 7.89773 14.9148 8.09659 14.7443 8.26705L11.6974 11.3139C11.527 11.4844 11.3246 11.5661 11.0902 11.5589C10.8558 11.5518 10.6534 11.4631 10.483 11.2926C10.3267 11.1222 10.2521 10.9197 10.2592 10.6854C10.2663 10.451 10.348 10.2557 10.5043 10.0994L12.081 8.52273Z" fill="white"/>
</svg>
