<svg width="21" height="15" viewBox="0 0 21 15" fill="none" xmlns="http://www.w3.org/2000/svg">
<path d="M10.5 11.7483C11.7238 11.7483 12.764 11.3199 13.6206 10.4633C14.4773 9.60664 14.9056 8.56643 14.9056 7.34266C14.9056 6.11888 14.4773 5.07867 13.6206 4.22203C12.764 3.36538 11.7238 2.93706 10.5 2.93706C9.27622 2.93706 8.23601 3.36538 7.37937 4.22203C6.52273 5.07867 6.09441 6.11888 6.09441 7.34266C6.09441 8.56643 6.52273 9.60664 7.37937 10.4633C8.23601 11.3199 9.27622 11.7483 10.5 11.7483ZM10.5 9.98601C9.76573 9.98601 9.14161 9.72902 8.62762 9.21504C8.11364 8.70105 7.85664 8.07692 7.85664 7.34266C7.85664 6.60839 8.11364 5.98427 8.62762 5.47028C9.14161 4.95629 9.76573 4.6993 10.5 4.6993C11.2343 4.6993 11.8584 4.95629 12.3724 5.47028C12.8864 5.98427 13.1434 6.60839 13.1434 7.34266C13.1434 8.07692 12.8864 8.70105 12.3724 9.21504C11.8584 9.72902 11.2343 9.98601 10.5 9.98601ZM10.5 14.6853C8.31352 14.6853 6.31876 14.0979 4.51573 12.9231C2.7127 11.7483 1.28904 10.1981 0.244755 8.27273C0.16317 8.12587 0.101981 7.97494 0.0611888 7.81993C0.0203963 7.66492 0 7.50583 0 7.34266C0 7.17949 0.0203963 7.0204 0.0611888 6.86539C0.101981 6.71037 0.16317 6.55944 0.244755 6.41259C1.28904 4.48718 2.7127 2.93706 4.51573 1.76224C6.31876 0.587413 8.31352 0 10.5 0C12.6865 0 14.6812 0.587413 16.4843 1.76224C18.2873 2.93706 19.711 4.48718 20.7552 6.41259C20.8368 6.55944 20.898 6.71037 20.9388 6.86539C20.9796 7.0204 21 7.17949 21 7.34266C21 7.50583 20.9796 7.66492 20.9388 7.81993C20.898 7.97494 20.8368 8.12587 20.7552 8.27273C19.711 10.1981 18.2873 11.7483 16.4843 12.9231C14.6812 14.0979 12.6865 14.6853 10.5 14.6853ZM10.5 12.7273C12.3438 12.7273 14.0367 12.2418 15.5787 11.271C17.1206 10.3001 18.2995 8.99068 19.1154 7.34266C18.2995 5.69464 17.1206 4.3852 15.5787 3.41434C14.0367 2.44347 12.3438 1.95804 10.5 1.95804C8.65618 1.95804 6.96329 2.44347 5.42133 3.41434C3.87937 4.3852 2.70047 5.69464 1.88462 7.34266C2.70047 8.99068 3.87937 10.3001 5.42133 11.271C6.96329 12.2418 8.65618 12.7273 10.5 12.7273Z" fill="#2E3092"/>
</svg>
