<svg width="8" height="10" viewBox="0 0 8 10" fill="none" xmlns="http://www.w3.org/2000/svg">
<path d="M2.3625 7.875H5.6375C5.74375 7.875 5.83281 7.83885 5.90469 7.76656C5.97656 7.69426 6.0125 7.60468 6.0125 7.49781C6.0125 7.39094 5.97656 7.30208 5.90469 7.23125C5.83281 7.16042 5.74375 7.125 5.6375 7.125H2.3625C2.25625 7.125 2.16719 7.16115 2.09531 7.23344C2.02344 7.30574 1.9875 7.39532 1.9875 7.50219C1.9875 7.60906 2.02344 7.69792 2.09531 7.76875C2.16719 7.83958 2.25625 7.875 2.3625 7.875ZM2.3625 5.75H5.6375C5.74375 5.75 5.83281 5.71385 5.90469 5.64156C5.97656 5.56926 6.0125 5.47968 6.0125 5.37281C6.0125 5.26594 5.97656 5.17708 5.90469 5.10625C5.83281 5.03542 5.74375 5 5.6375 5H2.3625C2.25625 5 2.16719 5.03615 2.09531 5.10844C2.02344 5.18074 1.9875 5.27032 1.9875 5.37719C1.9875 5.48406 2.02344 5.57292 2.09531 5.64375C2.16719 5.71458 2.25625 5.75 2.3625 5.75ZM0.75 10C0.55 10 0.375 9.925 0.225 9.775C0.075 9.625 0 9.45 0 9.25V0.75C0 0.55 0.075 0.375 0.225 0.225C0.375 0.075 0.55 0 0.75 0H4.95C5.0537 0 5.15254 0.0208333 5.24652 0.0625C5.34051 0.104167 5.42083 0.158333 5.4875 0.225L7.775 2.5125C7.84167 2.57917 7.89583 2.65949 7.9375 2.75348C7.97917 2.84746 8 2.9463 8 3.05V9.25C8 9.45 7.925 9.625 7.775 9.775C7.625 9.925 7.45 10 7.25 10H0.75ZM4.8875 2.7V0.75H0.75V9.25H7.25V3.075H5.2625C5.15625 3.075 5.06719 3.03906 4.99531 2.96719C4.92344 2.89531 4.8875 2.80625 4.8875 2.7Z" fill="#F58244"/>
</svg>
