<?xml version="1.0" encoding="UTF-8"?>
<!DOCTYPE svg PUBLIC "-//W3C//DTD SVG 1.1//EN" "http://www.w3.org/Graphics/SVG/1.1/DTD/svg11.dtd">
<svg xmlns="http://www.w3.org/2000/svg" version="1.1" width="512px" height="512px" style="shape-rendering:geometricPrecision; text-rendering:geometricPrecision; image-rendering:optimizeQuality; fill-rule:evenodd; clip-rule:evenodd" xmlns:xlink="http://www.w3.org/1999/xlink">
<g><path style="opacity:0.975" fill="#000000" d="M 73.5,7.5 C 178.834,7.33334 284.167,7.5 389.5,8C 394,9.83333 397.167,13 399,17.5C 399.667,26.8333 399.667,36.1667 399,45.5C 396.186,52.4898 391.019,55.8231 383.5,55.5C 383.201,59.1055 382.035,62.4388 380,65.5C 369.707,83.252 359.54,101.085 349.5,119C 408.648,117.649 453.815,141.816 485,191.5C 505.09,228.807 509.09,267.807 497,308.5C 481.323,352.844 451.489,383.344 407.5,400C 391.956,405.424 375.956,407.924 359.5,407.5C 359.5,418.167 359.5,428.833 359.5,439.5C 380.263,440.134 393.43,450.467 399,470.5C 399.5,481.495 399.667,492.495 399.5,503.5C 287.5,503.5 175.5,503.5 63.5,503.5C 63.3335,492.495 63.5002,481.495 64,470.5C 69.5705,450.467 82.7372,440.134 103.5,439.5C 103.5,415.5 103.5,391.5 103.5,367.5C 87.5,367.5 71.5,367.5 55.5,367.5C 55.6663,374.841 55.4997,382.174 55,389.5C 53.1667,394 50,397.167 45.5,399C 36.1667,399.667 26.8333,399.667 17.5,399C 13,397.167 9.83333,394 8,389.5C 7.33333,358.833 7.33333,328.167 8,297.5C 13.0452,288.106 20.8785,284.772 31.5,287.5C 42.1215,284.772 49.9548,288.106 55,297.5C 55.4997,304.826 55.6663,312.159 55.5,319.5C 71.5,319.5 87.5,319.5 103.5,319.5C 103.333,300.497 103.5,281.497 104,262.5C 108.167,246.333 118.333,236.167 134.5,232C 148.512,231.833 162.512,231.333 176.5,230.5C 145.333,175.5 114.167,120.5 83,65.5C 80.9653,62.4388 79.7986,59.1055 79.5,55.5C 71.9807,55.8231 66.814,52.4898 64,45.5C 63.3333,36.1667 63.3333,26.8333 64,17.5C 66.0223,12.98 69.189,9.6467 73.5,7.5 Z M 79.5,23.5 C 180.833,23.5 282.167,23.5 383.5,23.5C 383.5,28.8333 383.5,34.1667 383.5,39.5C 282.167,39.5 180.833,39.5 79.5,39.5C 79.5,34.1667 79.5,28.8333 79.5,23.5 Z M 97.5,56.5 C 186.666,55.3343 275.999,55.1676 365.5,56C 332.627,114.248 299.627,172.415 266.5,230.5C 243.167,231.833 219.833,231.833 196.5,230.5C 163.473,172.437 130.473,114.437 97.5,56.5 Z M 339.5,135.5 C 340.833,135.5 342.167,135.5 343.5,135.5C 343.5,146.167 343.5,156.833 343.5,167.5C 336.468,167.83 329.468,167.497 322.5,166.5C 328.625,156.386 334.291,146.053 339.5,135.5 Z M 359.5,135.5 C 375.622,136.158 391.289,139.324 406.5,145C 407.428,145.388 408.095,146.055 408.5,147C 404.021,156.146 398.687,164.646 392.5,172.5C 381.787,168.89 370.787,167.224 359.5,167.5C 359.5,156.833 359.5,146.167 359.5,135.5 Z M 424.5,154.5 C 439.493,163.321 452.159,174.821 462.5,189C 453.999,194.418 445.332,199.585 436.5,204.5C 428.741,195.072 419.741,187.072 409.5,180.5C 414.512,171.806 419.512,163.139 424.5,154.5 Z M 312.5,183.5 C 328.503,183.333 344.503,183.5 360.5,184C 396.937,186.455 421.771,204.622 435,238.5C 444.8,277.11 433.634,307.944 401.5,331C 388.636,338.506 374.802,342.673 360,343.5C 359.667,316.5 359.333,289.5 359,262.5C 355.44,247.939 346.606,238.106 332.5,233C 317.209,231.897 301.875,231.064 286.5,230.5C 295.445,214.94 304.111,199.273 312.5,183.5 Z M 471.5,203.5 C 480.517,219.563 485.517,236.897 486.5,255.5C 476.167,255.5 465.833,255.5 455.5,255.5C 454.66,242.806 451.327,230.806 445.5,219.5C 454.471,214.502 463.138,209.168 471.5,203.5 Z M 143.5,247.5 C 202.168,247.333 260.834,247.5 319.5,248C 333.333,249.833 341.167,257.667 343,271.5C 343.5,327.499 343.667,383.499 343.5,439.5C 338.167,439.5 332.833,439.5 327.5,439.5C 327.667,384.166 327.5,328.832 327,273.5C 325.167,269 322,265.833 317.5,264C 260.167,263.333 202.833,263.333 145.5,264C 141,265.833 137.833,269 136,273.5C 135.5,328.832 135.333,384.166 135.5,439.5C 130.167,439.5 124.833,439.5 119.5,439.5C 119.333,383.499 119.5,327.499 120,271.5C 122.029,257.639 129.862,249.639 143.5,247.5 Z M 455.5,271.5 C 465.833,271.5 476.167,271.5 486.5,271.5C 485.405,289.879 480.572,307.212 472,323.5C 463.298,317.968 454.465,312.635 445.5,307.5C 451.327,296.194 454.66,284.194 455.5,271.5 Z M 151.5,279.5 C 162.167,279.5 172.833,279.5 183.5,279.5C 183.5,295.5 183.5,311.5 183.5,327.5C 215.5,327.5 247.5,327.5 279.5,327.5C 279.5,311.5 279.5,295.5 279.5,279.5C 290.167,279.5 300.833,279.5 311.5,279.5C 311.5,332.833 311.5,386.167 311.5,439.5C 258.167,439.5 204.833,439.5 151.5,439.5C 151.5,386.167 151.5,332.833 151.5,279.5 Z M 199.5,279.5 C 220.833,279.5 242.167,279.5 263.5,279.5C 263.5,290.167 263.5,300.833 263.5,311.5C 242.167,311.5 220.833,311.5 199.5,311.5C 199.5,300.833 199.5,290.167 199.5,279.5 Z M 23.5,303.5 C 28.8333,303.5 34.1667,303.5 39.5,303.5C 39.5,330.167 39.5,356.833 39.5,383.5C 34.1667,383.5 28.8333,383.5 23.5,383.5C 23.5,356.833 23.5,330.167 23.5,303.5 Z M 435.5,322.5 C 444.771,327.137 453.771,332.304 462.5,338C 452.205,351.965 439.705,363.465 425,372.5C 419.582,363.999 414.415,355.332 409.5,346.5C 419.767,340.233 428.434,332.233 435.5,322.5 Z M 55.5,335.5 C 71.5,335.5 87.5,335.5 103.5,335.5C 103.5,340.833 103.5,346.167 103.5,351.5C 87.5,351.5 71.5,351.5 55.5,351.5C 55.5,346.167 55.5,340.833 55.5,335.5 Z M 392.5,353.5 C 398.443,361.871 403.776,370.704 408.5,380C 400.138,384.565 391.138,387.565 381.5,389C 374.284,389.858 367.117,390.692 360,391.5C 359.5,380.839 359.333,370.172 359.5,359.5C 371.096,360.045 382.096,358.045 392.5,353.5 Z M 103.5,455.5 C 188.834,455.333 274.167,455.5 359.5,456C 377.022,459.043 385.022,469.543 383.5,487.5C 282.167,487.5 180.833,487.5 79.5,487.5C 78.1939,469.511 86.1939,458.844 103.5,455.5 Z"/></g>
<g><path style="opacity:1" fill="#000000" d="M 167.5,343.5 C 210.167,343.5 252.833,343.5 295.5,343.5C 295.5,348.833 295.5,354.167 295.5,359.5C 252.833,359.5 210.167,359.5 167.5,359.5C 167.5,354.167 167.5,348.833 167.5,343.5 Z"/></g>
<g><path style="opacity:1" fill="#000000" d="M 167.5,375.5 C 210.167,375.5 252.833,375.5 295.5,375.5C 295.5,380.833 295.5,386.167 295.5,391.5C 252.833,391.5 210.167,391.5 167.5,391.5C 167.5,386.167 167.5,380.833 167.5,375.5 Z"/></g>
<g><path style="opacity:1" fill="#000000" d="M 167.5,407.5 C 210.167,407.5 252.833,407.5 295.5,407.5C 295.5,412.833 295.5,418.167 295.5,423.5C 252.833,423.5 210.167,423.5 167.5,423.5C 167.5,418.167 167.5,412.833 167.5,407.5 Z"/></g>
</svg>
