<?xml version="1.0" standalone="no"?>
<!DOCTYPE svg PUBLIC "-//W3C//DTD SVG 20010904//EN"
 "http://www.w3.org/TR/2001/REC-SVG-20010904/DTD/svg10.dtd">
<svg version="1.0" xmlns="http://www.w3.org/2000/svg"
 width="512.000000pt" height="512.000000pt" viewBox="0 0 512.000000 512.000000"
 preserveAspectRatio="xMidYMid meet">

<g transform="translate(0.000000,512.000000) scale(0.100000,-0.100000)"
fill="#000000" stroke="none">
<path d="M457 4070 c-98 -17 -153 -54 -309 -210 -122 -121 -148 -151 -148
-175 0 -23 25 -54 142 -172 120 -121 147 -143 172 -143 25 0 51 20 151 120
l122 120 506 0 507 0 0 -85 0 -84 -342 -3 c-392 -3 -393 -4 -435 -88 -23 -44
-23 -49 -23 -462 l0 -418 -26 0 c-41 0 -91 -36 -113 -84 -20 -40 -21 -59 -21
-335 l0 -293 -54 -59 c-111 -119 -133 -279 -62 -435 69 -150 252 -244 419
-213 146 26 284 149 312 277 l7 32 677 0 677 0 42 -64 c132 -201 383 -296 612
-231 178 50 328 198 380 373 7 23 15 42 17 42 2 0 80 -38 173 -85 l170 -85 0
-58 c1 -100 50 -171 139 -201 51 -17 897 -15 931 2 32 16 47 58 32 91 -14 31
-792 617 -841 634 -44 15 -108 15 -146 -2 -30 -12 -33 -10 -317 203 l-288 216
0 62 0 61 238 4 c214 3 241 5 282 24 53 25 113 88 129 135 6 19 56 306 111
639 55 333 102 614 105 625 2 13 17 24 37 30 45 14 66 52 49 93 -7 17 -25 35
-40 42 -20 8 -165 10 -507 8 -474 -3 -480 -3 -523 -25 -25 -13 -45 -22 -46
-20 -1 1 -7 20 -13 42 -15 52 -63 110 -115 138 l-42 22 -1340 1 c-737 1 -1362
-2 -1388 -6z m1143 -225 l0 -85 -526 0 c-365 0 -532 -3 -547 -11 -12 -6 -65
-53 -117 -105 l-95 -94 -68 68 -68 68 99 96 c98 95 140 125 197 139 17 4 276
7 578 8 l547 1 0 -85z m1559 70 c44 -22 51 -58 51 -275 l0 -198 -60 -4 c-71
-5 -100 -26 -100 -73 0 -53 20 -69 92 -75 l63 -5 0 -405 0 -405 -941 -3 c-928
-2 -941 -2 -959 -22 -25 -28 -23 -76 4 -103 l22 -22 1019 -3 1020 -2 0 -110
c0 -61 -1 -110 -3 -110 -1 0 -30 10 -62 22 -50 19 -81 23 -180 23 -146 0 -206
-17 -312 -88 -158 -106 -243 -265 -243 -459 l0 -88 -650 0 c-611 0 -651 1
-656 18 -43 127 -116 215 -222 265 -57 27 -81 33 -159 35 l-93 4 0 244 0 244
119 0 c161 0 201 16 201 82 0 45 -23 63 -92 68 l-63 5 0 405 0 405 943 5 c920
5 944 5 958 24 21 29 18 80 -7 102 -20 18 -46 19 -560 22 l-539 3 0 244 0 245
690 0 c588 0 695 -2 719 -15z m1071 -161 c0 -8 -5 -46 -11 -84 l-12 -69 -319
-3 -320 -3 -19 -24 c-18 -22 -19 -44 -19 -420 0 -378 1 -398 20 -429 41 -67
61 -72 287 -72 111 0 204 -3 206 -7 10 -18 -21 -125 -42 -146 -21 -22 -28 -22
-331 -25 l-310 -3 0 586 c0 629 0 624 50 670 45 41 80 44 458 45 321 0 362 -2
362 -16z m-51 -316 c0 -7 -24 -152 -52 -323 l-53 -310 -197 -3 -197 -2 0 325
0 325 250 0 c194 0 250 -3 249 -12z m-889 -1474 c103 -48 180 -137 218 -249
21 -64 18 -190 -7 -257 -41 -108 -131 -197 -239 -239 -74 -28 -195 -30 -269
-5 -71 24 -162 92 -201 151 -57 86 -74 148 -70 251 3 77 9 101 35 155 50 102
141 181 246 215 26 9 75 13 132 11 76 -2 100 -8 155 -33z m480 -144 l240 -180
0 -80 0 -80 -168 84 -168 84 -12 64 c-14 73 -57 166 -107 229 -33 42 -42 59
-30 59 3 0 113 -81 245 -180z m-2795 -159 c47 -21 99 -70 122 -114 9 -18 18
-61 20 -97 4 -57 1 -72 -24 -120 -35 -69 -94 -115 -166 -130 -200 -41 -360
167 -268 349 24 46 93 108 136 120 52 16 137 12 180 -8z m3544 -243 l296 -223
-308 -3 c-201 -1 -315 1 -327 8 -19 10 -20 22 -20 213 0 212 3 227 44 227 10
0 152 -100 315 -222z"/>
<path d="M1175 3110 c-49 -19 -64 -82 -30 -120 17 -19 30 -20 292 -20 260 0
274 1 293 20 38 38 22 100 -31 119 -37 13 -493 14 -524 1z"/>
<path d="M1184 2793 c-53 -10 -75 -83 -39 -123 17 -19 30 -20 292 -20 260 0
274 1 293 20 38 38 22 100 -31 119 -30 10 -465 14 -515 4z"/>
<path d="M1305 1810 c-25 -28 -23 -76 4 -103 l22 -22 508 0 c486 0 510 1 530
19 27 25 28 79 1 106 -19 19 -33 20 -533 20 -502 0 -514 0 -532 -20z"/>
<path d="M2968 1773 c-53 -49 -78 -103 -78 -174 -1 -193 219 -303 372 -186 81
62 121 196 69 238 -26 21 -62 25 -91 9 -11 -6 -26 -34 -35 -66 -14 -47 -21
-58 -50 -70 -38 -15 -59 -11 -92 19 -36 33 -31 85 12 127 41 40 47 88 15 120
-32 32 -74 26 -122 -17z"/>
<path d="M828 1493 c-39 -45 -27 -104 24 -122 52 -18 98 15 98 72 0 54 -87 89
-122 50z"/>
</g>
</svg>
