<?xml version="1.0" encoding="UTF-8"?>
<!DOCTYPE svg PUBLIC "-//W3C//DTD SVG 1.1//EN" "http://www.w3.org/Graphics/SVG/1.1/DTD/svg11.dtd">
<!-- Creator: CorelDRAW 2021 (64 Bit) -->
<svg xmlns="http://www.w3.org/2000/svg" xml:space="preserve" width="87.2066mm" height="71.12mm" version="1.1" style="shape-rendering:geometricPrecision; text-rendering:geometricPrecision; image-rendering:optimizeQuality; fill-rule:evenodd; clip-rule:evenodd"
viewBox="0 0 8720.66 7112"
 xmlns:xlink="http://www.w3.org/1999/xlink"
 xmlns:xodm="http://www.corel.com/coreldraw/odm/2003">
 <defs>
  <style type="text/css">
   <![CDATA[
    .fil0 {fill:#BDBFC1}
   ]]>
  </style>
 </defs>
 <g id="Camada_x0020_1">
  <metadata id="CorelCorpID_0Corel-Layer"/>
  <polygon class="fil0" points="1493.87,55.49 1481.66,1905 2416.02,1339.84 2428.8,576.8 "/>
  <polygon class="fil0" points="7167.81,1888.52 7180.02,39.02 6245.65,604.17 6232.88,1367.22 "/>
  <path class="fil0" d="M7864.29 2379.33c-1308.16,892.79 -2484.72,1911.15 -3447.18,3133.74 -1151.08,-1288.03 -2341.86,-2311.39 -3560.35,-3150.25 -272.81,166.69 -545.64,333.38 -818.46,500.08 1624.83,1189.51 3082.28,2559.06 4299.87,4186.5 1281.33,-1593.09 2703.3,-3010.04 4336.13,-4163.08 -270,-169 -540,-337.99 -810.01,-506.99z"/>
  <path class="fil0" d="M3741.89 3685.42c-463.2,-1716.67 -1492.63,-1417.03 -1002.96,-897.93l1002.96 897.93z"/>
  <path class="fil0" d="M5013.92 3696.25c463.2,-1716.67 1492.63,-1417.03 1002.96,-897.93l-1002.96 897.93z"/>
  <polygon class="fil0" points="1493.87,55.49 1481.66,1905 2416.02,1339.84 2428.8,576.8 "/>
  <polygon class="fil0" points="7167.81,1888.52 7180.02,39.02 6245.65,604.17 6232.88,1367.22 "/>
  <path class="fil0" d="M7864.29 2379.33c-1308.16,892.79 -2484.72,1911.15 -3447.18,3133.74 -1151.08,-1288.03 -2341.86,-2311.39 -3560.35,-3150.25 -272.81,166.69 -545.64,333.38 -818.46,500.08 1624.83,1189.51 3082.28,2559.06 4299.87,4186.5 1281.33,-1593.09 2703.3,-3010.04 4336.13,-4163.08 -270,-169 -540,-337.99 -810.01,-506.99z"/>
  <path class="fil0" d="M3741.89 3685.42c-463.2,-1716.67 -1492.63,-1417.03 -1002.96,-897.93l1002.96 897.93z"/>
  <path class="fil0" d="M5013.92 3696.25c463.2,-1716.67 1492.63,-1417.03 1002.96,-897.93l-1002.96 897.93z"/>
  <polygon class="fil0" points="1493.87,55.49 1481.66,1905 2416.02,1339.84 2428.8,576.8 "/>
  <polygon class="fil0" points="7167.81,1888.52 7180.02,39.02 6245.65,604.17 6232.88,1367.22 "/>
  <path class="fil0" d="M7864.29 2379.33c-1308.16,892.79 -2484.72,1911.15 -3447.18,3133.74 -1151.08,-1288.03 -2341.86,-2311.39 -3560.35,-3150.25 -272.81,166.69 -545.64,333.38 -818.46,500.08 1624.83,1189.51 3082.28,2559.06 4299.87,4186.5 1281.33,-1593.09 2703.3,-3010.04 4336.13,-4163.08 -270,-169 -540,-337.99 -810.01,-506.99z"/>
  <path class="fil0" d="M3741.89 3685.42c-463.2,-1716.67 -1492.63,-1417.03 -1002.96,-897.93l1002.96 897.93z"/>
  <path class="fil0" d="M5013.92 3696.25c463.2,-1716.67 1492.63,-1417.03 1002.96,-897.93l-1002.96 897.93z"/>
  <polygon class="fil0" points="1493.87,55.49 1481.66,1905 2416.02,1339.84 2428.8,576.8 "/>
  <polygon class="fil0" points="7167.81,1888.52 7180.02,39.02 6245.65,604.17 6232.88,1367.22 "/>
  <path class="fil0" d="M7864.29 2379.33c-1308.16,892.79 -2484.72,1911.15 -3447.18,3133.74 -1151.08,-1288.03 -2341.86,-2311.39 -3560.35,-3150.25 -272.81,166.69 -545.64,333.38 -818.46,500.08 1624.83,1189.51 3082.28,2559.06 4299.87,4186.5 1281.33,-1593.09 2703.3,-3010.04 4336.13,-4163.08 -270,-169 -540,-337.99 -810.01,-506.99z"/>
  <path class="fil0" d="M3741.89 3685.42c-463.2,-1716.67 -1492.63,-1417.03 -1002.96,-897.93l1002.96 897.93z"/>
  <path class="fil0" d="M5013.92 3696.25c463.2,-1716.67 1492.63,-1417.03 1002.96,-897.93l-1002.96 897.93z"/>
 </g>
</svg>
