<?xml version="1.0" encoding="UTF-8"?>
<!DOCTYPE svg PUBLIC "-//W3C//DTD SVG 1.1//EN" "http://www.w3.org/Graphics/SVG/1.1/DTD/svg11.dtd">
<!-- Creator: CorelDRAW 2021 (64 Bit) -->
<svg xmlns="http://www.w3.org/2000/svg" xml:space="preserve" width="25.8232mm" height="5.7572mm" version="1.1" style="shape-rendering:geometricPrecision; text-rendering:geometricPrecision; image-rendering:optimizeQuality; fill-rule:evenodd; clip-rule:evenodd"
viewBox="0 0 2582.32 575.72"
 xmlns:xlink="http://www.w3.org/1999/xlink"
 xmlns:xodm="http://www.corel.com/coreldraw/odm/2003">
 <defs>
  <style type="text/css">
   <![CDATA[
    .fil0 {fill:white;fill-rule:nonzero}
   ]]>
  </style>
 </defs>
 <g id="Camada_x0020_1">
  <metadata id="CorelCorpID_0Corel-Layer"/>
  <path class="fil0" d="M136.78 408.15l0 -285.58 100.89 0 86.49 97.58 80.72 -88.97 0 -111.93 -357.48 0c0,0 -33.14,1.44 -33.14,41.62l0 304.22c0,0 5.77,41.62 43.24,43.06 37.47,1.43 79.28,0 79.28,0z"/>
  <path class="fil0" d="M244.88 306.25l0 255.38 334.42 0c0,0 60.53,2.92 60.53,-47.29l0 -324.32c0,0 0,-53.1 -47.57,-53.1l-82.16 0 4.33 315.71 -109.55 1.44 0 -143.51 -80.72 90.4 -79.28 -94.71z"/>
  <path class="fil0" d="M1012.05 184.1l0 192.46 63.32 0 0 -322.51 -62.42 0 -90.92 186.16 -91.43 -186.16 -62.29 0 0 322.51 63.19 0 0 -192.46 59.19 120.95c8.64,17.2 19.48,25.8 31.34,25.8 11.35,0 23.22,-7.7 31.85,-24.52l58.17 -122.23zm166.56 -130.95c0,-28.12 -5.93,-33.9 -34.17,-33.9 -28.11,0 -34.56,5.78 -34.56,33.9 0,28.12 6.45,34.41 34.56,34.41 28.24,0 34.17,-6.29 34.17,-34.41zm-5.03 323.41l0 -249.08 -59.06 0 0 249.08 59.06 0zm176.11 -94.62c-0.9,30.3 -3.74,48.01 -47.33,48.01 -41.39,0 -45.52,-34.92 -45.52,-72.02l0 -23.63c0,-38.9 5.42,-67.02 45.52,-67.02 37.27,0 46.43,14.51 46.43,39.42l53.64 0c0,-57 -33.27,-92.44 -100.07,-92.44 -35.07,0 -63.32,13.61 -77.76,29.02 -21.41,22.21 -26.95,60.21 -26.95,102.84 0,43.01 5.54,85.63 26.95,107.84 14.44,15.41 42.69,28.89 77.76,28.89 34.95,0 68.22,-13.48 82.79,-28.89 16.77,-17.72 15.87,-39.42 18.19,-72.54l-53.65 0.52zm281.09 94.62l0 -175.25c0,-49.82 -16.77,-86.15 -73.26,-86.15l-75.05 33.64 0 -112.86 -59.07 0 0 340.62 59.07 0 0 -181.67 56.49 -22.21c18.56,0 32.75,10.53 32.75,41.72l0 162.16 59.07 0zm230.14 -115.55c0.51,-12.59 0.9,-25.81 0.9,-37.11 0,-60.21 -23.6,-109.12 -98.66,-109.12 -75.05,0 -112.32,37.1 -112.32,123.12 0,113.75 34.05,144.57 114.13,144.57 55.45,0 96.46,-26.33 96.46,-93.73l-53.26 0c0,11.68 -9.54,40.31 -42.68,40.31 -47.85,0 -55.97,-24.9 -55.97,-68.04l151.4 0zm-150.11 -40.32c0,-41.6 22.31,-57 50.55,-57 31.34,0 46.81,16.31 46.81,57l-97.36 0zm238.91 155.87l0 -340.62 -59.19 0 0 341.13 59.19 -0.51zm235.56 -115.55c0.51,-12.59 0.9,-25.81 0.9,-37.11 0,-60.21 -23.6,-109.12 -98.66,-109.12 -75.05,0 -112.32,37.1 -112.32,123.12 0,113.75 34.05,144.57 114.13,144.57 55.45,0 96.46,-26.33 96.46,-93.73l-53.26 0c0,11.68 -9.54,40.31 -42.68,40.31 -47.85,0 -55.97,-24.9 -55.97,-68.04l151.4 0zm-150.11 -40.32c0,-41.6 22.31,-57 50.55,-57 31.34,0 46.81,16.31 46.81,57l-97.36 0zm292.94 155.87l0 -49.82 -25.92 0c-14.05,0 -20.5,-7.7 -20.5,-21.31l0 -132.24 41.91 0 0 -44.81 -41.91 0 0 -50.71 -59.06 0 0 50.71 -25.03 0 0 44.81 25.03 0 0 135.84c0,33.51 20.5,67.53 68.73,67.53l36.75 0zm167.09 -116.84c0,30.82 -5.03,70.23 -50.56,70.23 -41.39,0 -50.03,-39.41 -50.03,-72.02l0 -23.63c0,-34.41 10.05,-67.02 50.03,-67.02 45.53,0 50.56,31.72 50.56,68.82l0 23.62zm59.06 -13.6c0,-80.63 -24.12,-131.86 -109.62,-131.86 -88.72,0 -109.22,56.62 -109.22,131.86 0,81.52 20.11,136.73 109.22,136.73 90.53,0 109.62,-54.31 109.62,-136.73z"/>
  <path class="fil0" d="M766.81 504.03c0,-3.43 1.87,-5.14 5.57,-5.14l5.55 0c1.51,0 2.7,0.42 3.54,1.32 0.84,0.9 1.26,2.13 1.26,3.7l0 1.84c0,2.33 1,4.14 2.97,5.47 1.99,1.35 4.49,2.02 7.48,2.02l9.56 0c3.12,0 5.69,-0.71 7.66,-2.1 1.98,-1.39 2.97,-3.47 2.97,-6.23l0 -2.86c0,-1.24 -0.8,-2.45 -2.42,-3.61 -1.63,-1.19 -3.72,-2.31 -6.28,-3.39 -2.56,-1.09 -5.41,-2.21 -8.54,-3.41 -3.13,-1.21 -6.25,-2.58 -9.39,-4.17 -3.12,-1.57 -5.97,-3.29 -8.53,-5.17 -2.56,-1.88 -4.65,-4.18 -6.28,-6.94 -1.62,-2.76 -2.42,-5.74 -2.42,-8.97l0 -7.84c0,-5.02 2.05,-9.37 6.16,-13.01 4.09,-3.66 9.52,-5.47 16.24,-5.47l10.83 0c7.2,0 13.03,1.88 17.42,5.65 4.41,3.76 6.62,8.21 6.62,13.36l0 3.9c0,3.98 -1.8,5.99 -5.42,5.99l-4.92 0c-1.85,0 -3.22,-0.45 -4.14,-1.33 -0.92,-0.88 -1.39,-2.04 -1.39,-3.53l0 -1.62c0,-2.59 -0.95,-4.61 -2.81,-6.1 -1.89,-1.48 -4.27,-2.21 -7.16,-2.21l-6.2 0c-2.72,0 -4.96,0.69 -6.71,2.1 -1.72,1.39 -2.6,3.31 -2.6,5.74l0 3.04c0,1.33 0.63,2.6 1.89,3.8 1.27,1.23 2.91,2.33 4.96,3.29 2.05,0.98 4.37,2.04 7,3.15 2.62,1.12 5.31,2.2 8.05,3.26 2.75,1.07 5.45,2.31 8.05,3.74 2.62,1.43 4.96,2.94 7.01,4.5 2.04,1.55 3.69,3.41 4.97,5.59 1.24,2.17 1.89,4.49 1.89,6.97l0 8.96c0,5.31 -2.26,9.8 -6.77,13.48 -4.52,3.66 -10.47,5.49 -17.87,5.49l-12.33 0c-7.66,0 -13.8,-1.89 -18.48,-5.67 -4.66,-3.8 -6.99,-8.34 -6.99,-13.65l0 -3.94zm110.02 0.59c0,2.68 0.89,4.78 2.66,6.32 1.76,1.53 3.99,2.3 6.72,2.3l11.65 0c2.74,0 5.01,-0.77 6.81,-2.3 1.79,-1.54 2.69,-3.64 2.69,-6.32l0 -41.88c0,-2.68 -0.88,-4.76 -2.67,-6.29 -1.78,-1.52 -4.05,-2.27 -6.83,-2.27l-11.65 0c-2.73,0 -4.96,0.75 -6.72,2.27 -1.77,1.53 -2.66,3.61 -2.66,6.29l0 41.88zm46.4 3.35c0,5.31 -2.15,9.85 -6.43,13.65 -4.29,3.78 -9.98,5.67 -17.07,5.67l-14.42 0c-7.36,0 -13.29,-1.89 -17.77,-5.67 -4.45,-3.8 -6.68,-8.34 -6.68,-13.65l0 -48.64c0,-5.27 2.23,-9.79 6.72,-13.59 4.5,-3.79 10.41,-5.67 17.73,-5.67l14.42 0c7.05,0 12.74,1.88 17.05,5.67 4.3,3.8 6.45,8.32 6.45,13.59l0 48.64zm78.74 4.5c3.59,0 5.4,1.84 5.4,5.55l0 3.05c0,3.67 -1.81,5.51 -5.4,5.51l-39.13 0c-3.8,0 -5.71,-1.84 -5.71,-5.51l0 -74.86c0,-3.69 1.85,-5.55 5.54,-5.55l4.81 0c3.81,0 5.7,1.86 5.7,5.55l0 66.26 28.79 0zm97.77 -4.5c0,5.31 -2.15,9.85 -6.44,13.65 -4.29,3.78 -9.97,5.67 -17.06,5.67l-14.25 0c-7.34,0 -13.24,-1.89 -17.75,-5.67 -4.52,-3.8 -6.75,-8.34 -6.75,-13.65l0 -61.76c0,-3.69 1.87,-5.55 5.63,-5.55l4.8 0c3.7,0 5.55,1.86 5.55,5.55l0 58.41c0,2.68 0.9,4.78 2.7,6.32 1.81,1.53 4.07,2.3 6.79,2.3l11.47 0c2.73,0 4.96,-0.77 6.71,-2.3 1.73,-1.54 2.6,-3.64 2.6,-6.32l0 -58.41c0,-3.69 1.89,-5.55 5.66,-5.55l4.8 0c3.69,0 5.54,1.86 5.54,5.55l0 61.76zm59.54 29.25c-1.11,0 -1.91,-0.41 -2.41,-1.22 -0.47,-0.82 -0.49,-1.7 -0.06,-2.66l2.36 -6.05 -1.39 0c-7.36,0 -13.29,-1.89 -17.77,-5.67 -4.45,-3.8 -6.68,-8.34 -6.68,-13.65l0 -48.64c0,-5.27 2.23,-9.79 6.72,-13.59 4.5,-3.79 10.41,-5.67 17.73,-5.67l13.29 0c7.12,0 12.86,1.88 17.19,5.67 4.31,3.8 6.48,8.32 6.48,13.59l0 5.27c0,3.34 -1.68,5.02 -5.04,5.02l-6.32 0c-3.03,0 -4.56,-1.55 -4.56,-4.68l0 -2.2c0,-2.68 -0.89,-4.76 -2.7,-6.29 -1.81,-1.52 -4.09,-2.27 -6.85,-2.27l-10.59 0c-2.73,0 -4.96,0.75 -6.73,2.27 -1.76,1.53 -2.65,3.61 -2.65,6.29l0 41.88c0,2.68 0.89,4.78 2.65,6.32 1.77,1.53 4,2.3 6.73,2.3l10.59 0c2.72,0 4.98,-0.77 6.81,-2.3 1.83,-1.54 2.74,-3.64 2.74,-6.32l0 -2.69c0,-3 1.53,-4.49 4.56,-4.49l5.82 0c3.69,0 5.54,1.49 5.54,4.49l0 6.04c0,5.31 -2.17,9.85 -6.48,13.65 -4.33,3.78 -10.07,5.67 -17.19,5.67l-2.17 0 -0.66 1.62 -0.72 1.61c5.33,1.64 7.99,4.98 7.99,10.01 0,3.43 -1.2,6.19 -3.58,8.27 -2.38,2.1 -6.16,3.15 -11.32,3.15l-4.02 0c-2.22,0 -3.32,-1.07 -3.32,-3.17l0 -1.98c0,-2.35 1.22,-3.53 3.67,-3.53l4.2 0c3.29,0 4.94,-1.03 4.94,-3.11 0,-1.96 -1.45,-2.94 -4.32,-2.94l-2.48 0zm83.9 -32.6c0,2.68 0.88,4.78 2.65,6.32 1.77,1.53 4,2.3 6.73,2.3l11.65 0c2.73,0 5,-0.77 6.81,-2.3 1.79,-1.54 2.68,-3.64 2.68,-6.32l0 -41.88c0,-2.68 -0.87,-4.76 -2.66,-6.29 -1.79,-1.52 -4.06,-2.27 -6.83,-2.27l-11.65 0c-2.73,0 -4.96,0.75 -6.73,2.27 -1.77,1.53 -2.65,3.61 -2.65,6.29l0 41.88zm46.4 3.35c0,5.31 -2.15,9.85 -6.44,13.65 -4.29,3.78 -9.97,5.67 -17.06,5.67l-14.43 0c-7.36,0 -13.28,-1.89 -17.76,-5.67 -4.45,-3.8 -6.68,-8.34 -6.68,-13.65l0 -48.64c0,-5.27 2.23,-9.79 6.72,-13.59 4.5,-3.79 10.4,-5.67 17.72,-5.67l14.43 0c7.05,0 12.73,1.88 17.04,5.67 4.31,3.8 6.46,8.32 6.46,13.59l0 48.64zm-25.47 -88.86c1.48,0 2.21,-0.69 2.21,-2.08l0 -0.72c0,-1.65 0.78,-2.47 2.34,-2.47l5.78 0c2.96,0 4.43,1.53 4.43,4.56l0 3.06c0,7.41 -3.24,11.11 -9.72,11.11 -2.01,0 -4.17,-0.43 -6.5,-1.31 -2.32,-0.87 -4.41,-1.75 -6.23,-2.63 -1.85,-0.88 -3.19,-1.31 -3.98,-1.31 -1.48,0 -2.22,0.82 -2.22,2.45l0 0.35c0,1.49 -0.74,2.23 -2.24,2.23l-6.54 0c-2.6,0 -3.9,-1.35 -3.9,-4.03l0 -2.2c0,-4.43 0.72,-7.68 2.19,-9.76 1.46,-2.07 4.09,-3.11 7.91,-3.11 2.15,0 5.1,0.98 8.86,2.94 3.75,1.94 6.27,2.92 7.61,2.92zm107.26 93.36c3.7,0 5.55,1.84 5.55,5.55l0 3.05c0,3.67 -1.85,5.51 -5.55,5.51l-42.19 0c-3.8,0 -5.7,-1.84 -5.7,-5.51l0 -74.86c0,-3.69 1.9,-5.55 5.7,-5.55l41.01 0c3.66,0 5.51,1.86 5.51,5.55l0 3.19c0,3.57 -1.85,5.37 -5.51,5.37l-30.67 0 0 21.08 26.56 0c3.7,0 5.54,1.78 5.54,5.37l0 3.19c0,3.69 -1.84,5.55 -5.54,5.55l-26.56 0 0 22.51 31.85 0zm38.11 -8.44c0,-3.43 1.87,-5.14 5.57,-5.14l5.55 0c1.51,0 2.7,0.42 3.54,1.32 0.84,0.9 1.26,2.13 1.26,3.7l0 1.84c0,2.33 1,4.14 2.97,5.47 1.99,1.35 4.49,2.02 7.48,2.02l9.56 0c3.12,0 5.69,-0.71 7.66,-2.1 1.98,-1.39 2.97,-3.47 2.97,-6.23l0 -2.86c0,-1.24 -0.8,-2.45 -2.42,-3.61 -1.63,-1.19 -3.72,-2.31 -6.28,-3.39 -2.56,-1.09 -5.41,-2.21 -8.54,-3.41 -3.13,-1.21 -6.25,-2.58 -9.39,-4.17 -3.12,-1.57 -5.97,-3.29 -8.53,-5.17 -2.56,-1.88 -4.65,-4.18 -6.28,-6.94 -1.62,-2.76 -2.42,-5.74 -2.42,-8.97l0 -7.84c0,-5.02 2.05,-9.37 6.16,-13.01 4.09,-3.66 9.52,-5.47 16.24,-5.47l10.83 0c7.2,0 13.03,1.88 17.42,5.65 4.41,3.76 6.62,8.21 6.62,13.36l0 3.9c0,3.98 -1.8,5.99 -5.42,5.99l-4.92 0c-1.85,0 -3.22,-0.45 -4.14,-1.33 -0.92,-0.88 -1.39,-2.04 -1.39,-3.53l0 -1.62c0,-2.59 -0.95,-4.61 -2.81,-6.1 -1.89,-1.48 -4.27,-2.21 -7.16,-2.21l-6.2 0c-2.72,0 -4.96,0.69 -6.71,2.1 -1.72,1.39 -2.6,3.31 -2.6,5.74l0 3.04c0,1.33 0.63,2.6 1.89,3.8 1.27,1.23 2.91,2.33 4.96,3.29 2.05,0.98 4.37,2.04 7,3.15 2.62,1.12 5.31,2.2 8.05,3.26 2.75,1.07 5.45,2.31 8.05,3.74 2.62,1.43 4.96,2.94 7.01,4.5 2.04,1.55 3.69,3.41 4.97,5.59 1.24,2.17 1.89,4.49 1.89,6.97l0 8.96c0,5.31 -2.26,9.8 -6.77,13.48 -4.52,3.66 -10.47,5.49 -17.87,5.49l-12.33 0c-7.66,0 -13.8,-1.89 -18.48,-5.67 -4.66,-3.8 -6.99,-8.34 -6.99,-13.65l0 -3.94zm166.88 17.04c0,3.67 -1.89,5.51 -5.71,5.51l-4.8 0c-3.69,0 -5.54,-1.84 -5.54,-5.51l0 -74.86c0,-3.69 1.85,-5.55 5.54,-5.55l4.8 0c3.82,0 5.71,1.86 5.71,5.55l0 28.8 30.47 0 0 -28.8c0,-3.69 1.87,-5.55 5.59,-5.55l4.76 0c3.7,0 5.57,1.86 5.57,5.55l0 74.86c0,3.67 -1.87,5.51 -5.57,5.51l-4.76 0c-3.72,0 -5.59,-1.84 -5.59,-5.51l0 -32.01 -30.47 0 0 32.01zm97.77 0c0,3.67 -1.89,5.51 -5.7,5.51l-4.8 0c-3.7,0 -5.55,-1.84 -5.55,-5.51l0 -74.86c0,-3.69 1.85,-5.55 5.55,-5.55l4.8 0c3.81,0 5.7,1.86 5.7,5.55l0 74.86zm40.93 5.51c-3.8,0 -5.71,-1.84 -5.71,-5.51l0 -74.73c0,-3.7 1.91,-5.56 5.71,-5.56l33.19 0c7.03,0 12.74,1.9 17.07,5.68 4.33,3.8 6.47,8.31 6.47,13.58l0 47.16c0,5.31 -2.14,9.86 -6.45,13.66 -4.31,3.82 -10.02,5.72 -17.09,5.72l-33.19 0zm40.82 -63.13c0,-2.67 -0.9,-4.76 -2.69,-6.27 -1.78,-1.53 -4.01,-2.29 -6.75,-2.29l-21.04 0 0 57.58 21.04 0c2.74,0 4.97,-0.78 6.75,-2.29 1.79,-1.51 2.69,-3.61 2.69,-6.27l0 -40.46zm65.86 57.62c0,3.67 -1.89,5.51 -5.7,5.51l-4.8 0c-3.7,0 -5.55,-1.84 -5.55,-5.51l0 -74.86c0,-3.69 1.91,-5.55 5.71,-5.55l30.89 0c7.22,0 13.03,1.86 17.39,5.6 4.39,3.73 6.58,8.16 6.58,13.31l0 18.24c0,3.47 -1.16,6.72 -3.54,9.76 -2.36,3.02 -5.48,5.25 -9.37,6.64l11.55 25.61c0.79,1.88 0.81,3.47 0.06,4.78 -0.77,1.33 -2.22,1.98 -4.33,1.98l-3.62 0c-2.44,0 -4.24,-0.53 -5.41,-1.59 -1.15,-1.04 -2.21,-2.7 -3.17,-4.93l-10.94 -23.65 -15.75 0 0 24.66zm28.67 -58.09c0,-2.55 -0.94,-4.53 -2.83,-5.96 -1.89,-1.41 -4.27,-2.13 -7.16,-2.13l-18.68 0 0 27.47 19.29 0c2.74,0 4.98,-0.71 6.73,-2.16 1.77,-1.43 2.65,-3.37 2.65,-5.8l0 -11.42zm71.09 -17.3c1.36,-3.51 3.78,-5.27 7.26,-5.27l4.94 0c3.55,0 6.03,1.76 7.39,5.27l24.81 74.26c0.57,1.68 0.44,3.21 -0.36,4.58 -0.8,1.37 -2.06,2.06 -3.77,2.06l-4.45 0c-3.33,0 -5.59,-1.76 -6.79,-5.27l-4.52 -13.83 -29.68 0 -4.45 13.83c-0.55,1.8 -1.32,3.13 -2.28,3.98 -0.96,0.86 -2.3,1.29 -3.98,1.29l-4.8 0c-1.71,0 -3.03,-0.61 -3.95,-1.82 -0.93,-1.22 -1.13,-2.65 -0.62,-4.29l25.25 -74.79zm9.62 14.85l-10.58 32.84 21.14 0 -10.56 -32.84zm-6.07 -27.71c-3.45,1.04 -5.85,-0.15 -7.22,-3.54l-0.78 -1.61c-1.35,-3.47 -0.29,-5.88 3.24,-7.23l19.06 -7.72c3.31,-1.41 5.69,-0.37 7.15,3.1l1.32 3.54c1.21,3.43 0.1,5.68 -3.31,6.76l-19.46 6.7zm133.95 75.15c0,5.31 -2.15,9.85 -6.44,13.65 -4.29,3.78 -9.97,5.67 -17.06,5.67l-14.25 0c-7.34,0 -13.24,-1.89 -17.75,-5.67 -4.52,-3.8 -6.75,-8.34 -6.75,-13.65l0 -61.76c0,-3.69 1.87,-5.55 5.63,-5.55l4.8 0c3.7,0 5.55,1.86 5.55,5.55l0 58.41c0,2.68 0.9,4.78 2.7,6.32 1.81,1.53 4.07,2.3 6.79,2.3l11.47 0c2.73,0 4.96,-0.77 6.71,-2.3 1.73,-1.54 2.6,-3.64 2.6,-6.32l0 -58.41c0,-3.69 1.89,-5.55 5.66,-5.55l4.8 0c3.69,0 5.54,1.86 5.54,5.55l0 61.76zm79.86 4.5c3.59,0 5.4,1.84 5.4,5.55l0 3.05c0,3.67 -1.81,5.51 -5.4,5.51l-39.14 0c-3.79,0 -5.7,-1.84 -5.7,-5.51l0 -74.86c0,-3.69 1.85,-5.55 5.54,-5.55l4.8 0c3.82,0 5.71,1.86 5.71,5.55l0 66.26 28.79 0zm51.91 8.6c0,3.67 -1.89,5.51 -5.71,5.51l-4.8 0c-3.69,0 -5.54,-1.84 -5.54,-5.51l0 -74.86c0,-3.69 1.85,-5.55 5.54,-5.55l4.8 0c3.82,0 5.71,1.86 5.71,5.55l0 74.86zm79.28 -19.14c0,-3 1.53,-4.49 4.56,-4.49l5.82 0c3.69,0 5.54,1.49 5.54,4.49l0 6.04c0,5.31 -2.17,9.85 -6.48,13.65 -4.33,3.78 -10.07,5.67 -17.19,5.67l-13.29 0c-7.36,0 -13.29,-1.89 -17.77,-5.67 -4.45,-3.8 -6.68,-8.34 -6.68,-13.65l0 -48.64c0,-5.27 2.23,-9.79 6.72,-13.59 4.5,-3.79 10.41,-5.67 17.73,-5.67l13.29 0c7.12,0 12.86,1.88 17.19,5.67 4.31,3.8 6.48,8.32 6.48,13.59l0 5.27c0,3.34 -1.68,5.02 -5.04,5.02l-6.32 0c-3.03,0 -4.56,-1.55 -4.56,-4.68l0 -2.2c0,-2.68 -0.89,-4.76 -2.7,-6.29 -1.81,-1.52 -4.09,-2.27 -6.85,-2.27l-10.59 0c-2.73,0 -4.96,0.75 -6.73,2.27 -1.76,1.53 -2.65,3.61 -2.65,6.29l0 41.88c0,2.68 0.89,4.78 2.65,6.32 1.77,1.53 4,2.3 6.73,2.3l10.59 0c2.72,0 4.98,-0.77 6.81,-2.3 1.83,-1.54 2.74,-3.64 2.74,-6.32l0 -2.69zm70.25 -56.25c1.36,-3.51 3.78,-5.27 7.27,-5.27l4.94 0c3.54,0 6.02,1.76 7.38,5.27l24.82 74.26c0.56,1.68 0.43,3.21 -0.37,4.58 -0.8,1.37 -2.05,2.06 -3.77,2.06l-4.45 0c-3.33,0 -5.59,-1.76 -6.79,-5.27l-4.52 -13.83 -29.68 0 -4.45 13.83c-0.55,1.8 -1.31,3.13 -2.28,3.98 -0.96,0.86 -2.3,1.29 -3.98,1.29l-4.8 0c-1.71,0 -3.03,-0.61 -3.95,-1.82 -0.93,-1.22 -1.13,-2.65 -0.62,-4.29l25.25 -74.79zm9.63 14.85l-10.59 32.84 21.14 0 -10.55 -32.84zm63.63 43.5c0,-3.43 1.87,-5.14 5.57,-5.14l5.55 0c1.52,0 2.7,0.42 3.54,1.32 0.85,0.9 1.26,2.13 1.26,3.7l0 1.84c0,2.33 1,4.14 2.97,5.47 1.99,1.35 4.49,2.02 7.48,2.02l9.57 0c3.11,0 5.68,-0.71 7.65,-2.1 1.99,-1.39 2.97,-3.47 2.97,-6.23l0 -2.86c0,-1.24 -0.8,-2.45 -2.42,-3.61 -1.63,-1.19 -3.71,-2.31 -6.28,-3.39 -2.56,-1.09 -5.41,-2.21 -8.53,-3.41 -3.14,-1.21 -6.26,-2.58 -9.39,-4.17 -3.13,-1.57 -5.98,-3.29 -8.54,-5.17 -2.56,-1.88 -4.65,-4.18 -6.28,-6.94 -1.61,-2.76 -2.42,-5.74 -2.42,-8.97l0 -7.84c0,-5.02 2.05,-9.37 6.16,-13.01 4.1,-3.66 9.52,-5.47 16.24,-5.47l10.84 0c7.2,0 13.02,1.88 17.41,5.65 4.41,3.76 6.62,8.21 6.62,13.36l0 3.9c0,3.98 -1.8,5.99 -5.41,5.99l-4.92 0c-1.85,0 -3.23,-0.45 -4.14,-1.33 -0.93,-0.88 -1.4,-2.04 -1.4,-3.53l0 -1.62c0,-2.59 -0.94,-4.61 -2.81,-6.1 -1.89,-1.48 -4.27,-2.21 -7.16,-2.21l-6.2 0c-2.72,0 -4.96,0.69 -6.71,2.1 -1.72,1.39 -2.6,3.31 -2.6,5.74l0 3.04c0,1.33 0.63,2.6 1.89,3.8 1.27,1.23 2.91,2.33 4.96,3.29 2.05,0.98 4.37,2.04 7,3.15 2.62,1.12 5.31,2.2 8.06,3.26 2.75,1.07 5.44,2.31 8.04,3.74 2.62,1.43 4.96,2.94 7.01,4.5 2.04,1.55 3.7,3.41 4.97,5.59 1.25,2.17 1.89,4.49 1.89,6.97l0 8.96c0,5.31 -2.26,9.8 -6.77,13.48 -4.52,3.66 -10.46,5.49 -17.87,5.49l-12.33 0c-7.65,0 -13.8,-1.89 -18.48,-5.67 -4.66,-3.8 -6.99,-8.34 -6.99,-13.65l0 -3.94z"/>
 </g>
</svg>
