<?xml version="1.0" encoding="UTF-8"?>
<!DOCTYPE svg PUBLIC "-//W3C//DTD SVG 1.1//EN" "http://www.w3.org/Graphics/SVG/1.1/DTD/svg11.dtd">
<!-- Creator: CorelDRAW 2021 (64 Bit) -->
<svg xmlns="http://www.w3.org/2000/svg" xml:space="preserve" width="87.2066mm" height="71.12mm" version="1.1" style="shape-rendering:geometricPrecision; text-rendering:geometricPrecision; image-rendering:optimizeQuality; fill-rule:evenodd; clip-rule:evenodd"
viewBox="0 0 8720.66 7112"
 xmlns:xlink="http://www.w3.org/1999/xlink"
 xmlns:xodm="http://www.corel.com/coreldraw/odm/2003">
 <defs>
  <style type="text/css">
   <![CDATA[
    .fil0 {fill:#FEFEFE}
   ]]>
  </style>
 </defs>
 <g id="Camada_x0020_1">
  <metadata id="CorelCorpID_0Corel-Layer"/>
  <polygon class="fil0" points="1502.34,63.96 1490.13,1913.47 2424.49,1348.31 2437.27,585.27 "/>
  <polygon class="fil0" points="7176.28,1896.99 7188.49,47.49 6254.12,612.64 6241.35,1375.69 "/>
  <path class="fil0" d="M7872.76 2387.8c-1308.16,892.79 -2484.72,1911.15 -3447.18,3133.74 -1151.08,-1288.03 -2341.86,-2311.39 -3560.35,-3150.25 -272.81,166.69 -545.64,333.38 -818.46,500.08 1624.83,1189.51 3082.28,2559.06 4299.87,4186.5 1281.33,-1593.09 2703.3,-3010.04 4336.13,-4163.08 -270,-169 -540,-337.99 -810.01,-506.99z"/>
  <path class="fil0" d="M3750.36 3693.89c-463.2,-1716.67 -1492.63,-1417.03 -1002.96,-897.93l1002.96 897.93z"/>
  <path class="fil0" d="M5022.39 3704.72c463.2,-1716.67 1492.63,-1417.03 1002.96,-897.93l-1002.96 897.93z"/>
  <polygon class="fil0" points="1502.34,63.96 1490.13,1913.47 2424.49,1348.31 2437.27,585.27 "/>
  <polygon class="fil0" points="7176.28,1896.99 7188.49,47.49 6254.12,612.64 6241.35,1375.69 "/>
  <path class="fil0" d="M7872.76 2387.8c-1308.16,892.79 -2484.72,1911.15 -3447.18,3133.74 -1151.08,-1288.03 -2341.86,-2311.39 -3560.35,-3150.25 -272.81,166.69 -545.64,333.38 -818.46,500.08 1624.83,1189.51 3082.28,2559.06 4299.87,4186.5 1281.33,-1593.09 2703.3,-3010.04 4336.13,-4163.08 -270,-169 -540,-337.99 -810.01,-506.99z"/>
  <path class="fil0" d="M3750.36 3693.89c-463.2,-1716.67 -1492.63,-1417.03 -1002.96,-897.93l1002.96 897.93z"/>
  <path class="fil0" d="M5022.39 3704.72c463.2,-1716.67 1492.63,-1417.03 1002.96,-897.93l-1002.96 897.93z"/>
  <polygon class="fil0" points="1502.34,63.96 1490.13,1913.47 2424.49,1348.31 2437.27,585.27 "/>
  <polygon class="fil0" points="7176.28,1896.99 7188.49,47.49 6254.12,612.64 6241.35,1375.69 "/>
  <path class="fil0" d="M7872.76 2387.8c-1308.16,892.79 -2484.72,1911.15 -3447.18,3133.74 -1151.08,-1288.03 -2341.86,-2311.39 -3560.35,-3150.25 -272.81,166.69 -545.64,333.38 -818.46,500.08 1624.83,1189.51 3082.28,2559.06 4299.87,4186.5 1281.33,-1593.09 2703.3,-3010.04 4336.13,-4163.08 -270,-169 -540,-337.99 -810.01,-506.99z"/>
  <path class="fil0" d="M3750.36 3693.89c-463.2,-1716.67 -1492.63,-1417.03 -1002.96,-897.93l1002.96 897.93z"/>
  <path class="fil0" d="M5022.39 3704.72c463.2,-1716.67 1492.63,-1417.03 1002.96,-897.93l-1002.96 897.93z"/>
  <polygon class="fil0" points="1502.34,63.96 1490.13,1913.47 2424.49,1348.31 2437.27,585.27 "/>
  <polygon class="fil0" points="7176.28,1896.99 7188.49,47.49 6254.12,612.64 6241.35,1375.69 "/>
  <path class="fil0" d="M7872.76 2387.8c-1308.16,892.79 -2484.72,1911.15 -3447.18,3133.74 -1151.08,-1288.03 -2341.86,-2311.39 -3560.35,-3150.25 -272.81,166.69 -545.64,333.38 -818.46,500.08 1624.83,1189.51 3082.28,2559.06 4299.87,4186.5 1281.33,-1593.09 2703.3,-3010.04 4336.13,-4163.08 -270,-169 -540,-337.99 -810.01,-506.99z"/>
  <path class="fil0" d="M3750.36 3693.89c-463.2,-1716.67 -1492.63,-1417.03 -1002.96,-897.93l1002.96 897.93z"/>
  <path class="fil0" d="M5022.39 3704.72c463.2,-1716.67 1492.63,-1417.03 1002.96,-897.93l-1002.96 897.93z"/>
 </g>
</svg>
