<?xml version="1.0" standalone="no"?>
<!DOCTYPE svg PUBLIC "-//W3C//DTD SVG 20010904//EN"
 "http://www.w3.org/TR/2001/REC-SVG-20010904/DTD/svg10.dtd">
<svg version="1.0" xmlns="http://www.w3.org/2000/svg"
 width="512.000000pt" height="512.000000pt" viewBox="0 0 512.000000 512.000000"
 preserveAspectRatio="xMidYMid meet">

<g transform="translate(0.000000,512.000000) scale(0.100000,-0.100000)"
fill="#000000" stroke="none">
<path d="M2020 4870 c0 -192 -3 -251 -12 -254 -134 -38 -303 -103 -423 -162
l-149 -75 -176 176 -175 175 -342 -342 -343 -343 177 -177 c171 -171 177 -179
164 -201 -70 -110 -221 -481 -221 -542 0 -13 -32 -15 -255 -15 l-255 0 0 -485
0 -485 255 0 c223 0 255 -2 255 -15 0 -9 20 -77 45 -151 40 -118 111 -278 171
-381 l19 -33 -177 -177 -178 -178 342 -342 343 -343 177 177 177 177 58 -33
c139 -77 305 -146 453 -188 l65 -19 3 -252 2 -252 485 0 485 0 0 250 c0 192 3
251 13 254 152 44 308 104 427 163 l144 73 82 -81 81 -81 7 -71 c16 -177 78
-310 200 -433 91 -90 155 -130 269 -169 166 -55 335 -42 531 40 l39 17 -221
221 -222 222 24 88 c12 48 25 89 27 91 2 3 42 15 89 29 l85 24 223 -221 c177
-176 224 -218 232 -206 5 8 23 52 39 97 144 394 -71 802 -475 908 -32 8 -74
15 -93 15 -30 0 -46 12 -134 99 l-100 99 27 47 c77 131 148 297 196 463 l21
72 249 0 250 0 0 485 0 485 -250 0 -249 0 -11 43 c-38 141 -118 338 -192 469
l-40 71 178 178 179 179 -343 342 -342 343 -179 -179 -179 -179 -34 21 c-110
68 -316 155 -475 202 l-73 21 0 249 0 250 -485 0 -485 0 0 -250z m820 -135 l0
-234 38 -10 c20 -5 73 -19 117 -30 163 -41 348 -120 504 -215 l94 -58 166 166
166 166 238 -238 237 -237 -165 -166 -166 -165 57 -94 c117 -195 195 -392 248
-632 l6 -28 235 0 235 0 0 -335 0 -335 -235 0 -235 0 -6 -27 c-35 -157 -85
-307 -144 -438 -33 -73 -141 -265 -150 -265 -3 0 -159 154 -348 343 l-343 343
20 55 c65 176 74 384 25 574 -21 81 -94 233 -148 309 -110 153 -288 286 -464
347 -148 51 -357 65 -506 34 -291 -60 -533 -249 -666 -518 -77 -157 -94 -230
-94 -422 0 -191 16 -263 93 -420 120 -242 334 -423 596 -500 167 -50 396 -46
564 11 l75 25 342 -342 c189 -189 341 -346 339 -349 -8 -14 -191 -117 -270
-153 -110 -50 -200 -81 -335 -116 l-115 -29 -3 -236 -2 -236 -335 0 -335 0 0
238 0 237 -82 18 c-186 41 -393 125 -567 230 -52 31 -97 57 -100 57 -3 0 -80
-74 -171 -165 l-165 -165 -232 232 c-128 128 -233 237 -233 243 0 6 72 82 160
170 88 88 160 163 160 166 0 4 -25 49 -56 100 -103 171 -178 353 -226 551
l-23 98 -237 0 -238 0 0 335 0 335 238 0 237 0 19 83 c41 187 126 394 229 566
31 52 57 99 57 105 0 6 -73 84 -162 173 l-163 163 235 235 235 235 166 -166
166 -166 88 51 c193 114 344 178 550 231 l110 28 3 236 2 236 335 0 335 0 0
-235z m-82 -1341 c240 -79 443 -282 517 -516 31 -97 48 -235 40 -313 -9 -82
-35 -195 -45 -195 -22 0 -30 29 -21 71 17 73 13 218 -8 301 -75 292 -322 496
-625 514 -107 7 -190 -8 -315 -56 l-83 -32 222 -223 223 -223 -23 -87 c-13
-50 -30 -89 -39 -94 -9 -4 -49 -16 -89 -27 l-73 -18 -224 224 -224 224 -12
-30 c-50 -127 -71 -206 -76 -290 -20 -311 160 -583 459 -692 65 -24 88 -27
216 -28 121 -2 146 -4 162 -19 11 -10 17 -21 15 -26 -11 -17 -149 -39 -247
-39 -466 0 -829 381 -805 844 7 131 24 202 78 313 120 250 377 430 648 452
109 9 241 -5 329 -35z m-44 -304 c171 -44 310 -172 368 -340 19 -52 23 -87 23
-175 0 -130 -18 -196 -73 -269 -20 -27 -41 -55 -47 -62 -7 -10 4 -27 43 -66
60 -60 45 -63 119 28 l32 39 530 -529 530 -530 56 13 c125 28 265 12 376 -45
59 -29 158 -120 198 -181 60 -90 99 -241 85 -330 l-7 -45 -168 168 -168 167
-158 -42 c-87 -24 -165 -47 -173 -51 -9 -5 -34 -76 -61 -177 l-47 -168 165
-165 c90 -91 161 -169 157 -173 -11 -10 -102 -8 -170 4 -130 23 -274 119 -345
230 -75 118 -105 275 -75 400 16 71 61 156 125 237 l39 49 -52 52 -53 52 -40
-48 c-21 -26 -50 -64 -63 -83 -13 -19 -25 -37 -27 -40 -2 -2 -244 236 -537
529 l-533 533 -58 -12 c-346 -72 -655 176 -655 526 l0 79 169 -169 170 -170
166 45 c92 24 170 46 175 49 5 3 30 82 55 175 l46 169 -166 166 c-91 91 -163
169 -159 173 14 14 132 7 208 -13z"/>
<path d="M2292 4120 c-142 -20 -333 -80 -463 -145 -30 -15 -96 -54 -146 -87
l-93 -60 46 -59 c28 -37 50 -57 57 -52 7 4 37 23 67 44 137 92 347 174 519
203 108 18 314 21 426 5 41 -5 120 -23 174 -38 l99 -27 21 60 c12 34 21 66 21
72 0 12 -96 43 -215 69 -82 19 -416 28 -513 15z"/>
<path d="M1396 3649 c-31 -34 -56 -65 -56 -68 1 -3 26 -26 56 -50 61 -49 58
-50 124 29 l39 47 -53 52 -53 52 -57 -62z"/>
<path d="M1006 2843 c-3 -16 -9 -84 -12 -153 -31 -597 297 -1159 834 -1429
217 -109 436 -161 685 -161 l137 0 0 44 c0 24 -3 58 -6 75 l-6 31 -124 0
c-253 0 -484 62 -691 184 -117 69 -170 110 -267 204 -230 224 -368 505 -407
826 -11 95 -7 313 7 362 5 20 0 23 -58 33 -86 15 -85 15 -92 -16z"/>
<path d="M2956 1324 c-38 -13 -71 -26 -74 -28 -2 -3 4 -35 13 -71 21 -77 25
-78 130 -36 46 18 69 32 67 42 -8 36 -47 119 -56 118 -6 0 -42 -11 -80 -25z"/>
<path d="M3125 2050 l-49 -50 54 -55 54 -55 48 47 c26 26 48 52 48 58 0 10
-91 105 -101 105 -2 0 -27 -23 -54 -50z"/>
<path d="M3365 1810 l-50 -50 178 -178 177 -177 52 53 53 52 -175 175 c-96 96
-177 175 -180 175 -3 0 -28 -23 -55 -50z"/>
</g>
</svg>
