<svg width="10" height="10" viewBox="0 0 10 10" fill="none" xmlns="http://www.w3.org/2000/svg">
<path d="M4.28571 5.71429H0.714286C0.511905 5.71429 0.342262 5.64583 0.205357 5.50893C0.0684524 5.37202 0 5.20238 0 5C0 4.79762 0.0684524 4.62798 0.205357 4.49107C0.342262 4.35417 0.511905 4.28571 0.714286 4.28571H4.28571V0.714286C4.28571 0.511905 4.35417 0.342262 4.49107 0.205357C4.62798 0.0684524 4.79762 0 5 0C5.20238 0 5.37202 0.0684524 5.50893 0.205357C5.64583 0.342262 5.71429 0.511905 5.71429 0.714286V4.28571H9.28572C9.4881 4.28571 9.65774 4.35417 9.79464 4.49107C9.93155 4.62798 10 4.79762 10 5C10 5.20238 9.93155 5.37202 9.79464 5.50893C9.65774 5.64583 9.4881 5.71429 9.28572 5.71429H5.71429V9.28572C5.71429 9.4881 5.64583 9.65774 5.50893 9.79464C5.37202 9.93155 5.20238 10 5 10C4.79762 10 4.62798 9.93155 4.49107 9.79464C4.35417 9.65774 4.28571 9.4881 4.28571 9.28572V5.71429Z" fill="white"/>
</svg>
