<svg width="30" height="30" viewBox="0 0 30 30" fill="none" xmlns="http://www.w3.org/2000/svg">
<path d="M2.75378 0.122332C1.50029 0.460247 0.436931 1.53735 0.105952 2.79045C0.0144047 3.15653 0.000320494 4.63491 0.000320494 15.0047C0.000320494 28.0144 -0.0278479 27.1696 0.443973 28.0567C0.732699 28.6058 1.39466 29.2675 1.9369 29.5562C2.83829 30.0278 1.99324 29.9997 15.0141 29.9997C28.0138 29.9997 27.1688 30.0278 28.0561 29.5562C28.6053 29.2675 29.2673 28.6058 29.556 28.0567C30.0278 27.1696 29.9997 28.0144 29.9997 15.0047C29.9997 4.63491 29.9856 3.15653 29.894 2.79045C29.5631 1.51623 28.4927 0.446167 27.2181 0.115292C26.6054 -0.039587 3.34532 -0.039587 2.75378 0.122332ZM14.2254 3.75492C14.2254 5.07842 14.2535 6.13441 14.2958 6.28929C14.3944 6.63424 14.831 7.02144 15.2042 7.08479C15.4296 7.12 15.5704 7.09184 15.8873 6.95104C16.4436 6.6976 16.7605 6.71168 17.0845 6.99328C17.4436 7.31007 17.6056 7.69023 17.6056 8.24638C17.6056 8.80253 17.4436 9.18269 17.0845 9.49948C16.7605 9.78108 16.4436 9.79516 15.8873 9.54172C15.5704 9.40092 15.4296 9.37276 15.2042 9.40796C14.831 9.47132 14.3944 9.85852 14.2958 10.2035C14.2606 10.3513 14.2254 11.2947 14.2254 12.3436V14.2303H12.6691C11.2254 14.2303 11.1198 14.2233 11.148 14.1036C11.2606 13.7093 11.2677 13.5404 11.1902 13.1814C10.7959 11.2454 8.56352 10.2598 6.73961 11.2243C6.27483 11.4707 5.72555 12.0338 5.51429 12.4844C5.34528 12.8364 5.19035 13.5404 5.2326 13.7164C5.25373 13.7868 5.28894 13.9276 5.31007 14.0332L5.35232 14.2303H3.41574H1.47212L1.49325 8.68285L1.51437 3.14245L1.69043 2.79045C1.99324 2.18502 2.57069 1.70631 3.20448 1.55143C3.32419 1.52327 5.84527 1.50215 8.82408 1.49511L14.2254 1.48807V3.75492ZM27.1828 1.68519C27.6899 1.93159 27.9856 2.21318 28.2462 2.69894L28.4856 3.14245L28.5068 8.68285L28.5279 14.2303H26.2533C24.9294 14.2303 23.8731 14.2585 23.7181 14.3007C23.3731 14.3993 22.9857 14.8357 22.9224 15.2088C22.8872 15.4341 22.9153 15.5749 23.0562 15.8917C23.3097 16.4479 23.2956 16.7647 23.0139 17.0885C22.697 17.4475 22.3167 17.6094 21.7604 17.6094C21.2041 17.6094 20.8238 17.4475 20.5069 17.0885C20.2252 16.7647 20.2112 16.4479 20.4647 15.8917C20.6055 15.5749 20.6337 15.4341 20.5985 15.2088C20.5351 14.8357 20.1478 14.3993 19.8027 14.3007C19.6548 14.2655 18.7112 14.2303 17.6619 14.2303H15.7746V12.6745C15.7746 11.2313 15.7817 11.1257 15.9014 11.1539C16.2957 11.2665 16.4648 11.2735 16.8239 11.1961C18.3943 10.8723 19.3591 9.40092 19.0985 7.71839C18.9013 6.47232 18.0281 5.54306 16.8169 5.28962C16.5915 5.24738 16.3521 5.22626 16.2887 5.24034C16.2183 5.26146 16.0774 5.29666 15.9718 5.31778L15.7746 5.36002V3.42405V1.48103L21.3238 1.50215L26.8659 1.52327L27.1828 1.68519ZM8.979 12.5337C9.13393 12.6041 9.36632 12.773 9.49308 12.9209C9.77476 13.2447 9.78884 13.5615 9.53533 14.1177C9.39449 14.4345 9.36632 14.5753 9.40153 14.8005C9.46491 15.1736 9.85222 15.6101 10.1973 15.7087C10.3452 15.7439 11.2888 15.7791 12.3451 15.7791H14.2254V17.3349C14.2254 18.7781 14.2183 18.8837 14.1057 18.8555C13.7043 18.7429 13.5352 18.7358 13.1761 18.8133C12.6198 18.9259 12.2325 19.1301 11.8029 19.5173C10.2888 20.8971 10.6339 23.5441 12.4367 24.4593C12.8169 24.6494 13.5212 24.8183 13.7113 24.769C13.7817 24.7479 13.9226 24.7127 14.0352 24.6916L14.2254 24.6494V26.5853V28.5283L8.68323 28.5072L3.13406 28.4861L2.6904 28.2467C2.2045 27.9863 1.92281 27.6906 1.67634 27.1837L1.51437 26.8669L1.49325 21.3195L1.47212 15.7791H3.74672C5.07064 15.7791 6.12695 15.7509 6.28188 15.7087C6.62694 15.6101 7.01426 15.1736 7.07763 14.8005C7.11284 14.5753 7.08468 14.4345 6.94383 14.1177C6.69032 13.5615 6.7044 13.2447 6.98609 12.9209C7.30298 12.5618 7.68326 12.3999 8.23958 12.3999C8.53535 12.3999 8.79591 12.4492 8.979 12.5337ZM18.8309 15.9692C18.8098 16.0818 18.7746 16.2226 18.7534 16.293C18.7394 16.3563 18.7605 16.5957 18.8027 16.821C19.1337 18.3979 20.6055 19.3624 22.2886 19.1019C23.5209 18.9118 24.4716 18.0178 24.7111 16.828C24.7885 16.469 24.7815 16.3 24.6688 15.8988C24.6406 15.7861 24.7674 15.7791 26.5843 15.7791H28.5279L28.5068 21.3195L28.4856 26.8669L28.2955 27.226C28.0138 27.761 27.8025 27.9792 27.3096 28.2467L26.8659 28.4861L21.3238 28.5072L15.7746 28.5283V26.2545C15.7746 24.9309 15.7465 23.875 15.7042 23.7201C15.6056 23.3751 15.169 22.9879 14.7958 22.9246C14.5704 22.8894 14.4296 22.9175 14.1127 23.0583C13.5564 23.3118 13.2395 23.2977 12.9155 23.0161C12.5564 22.6993 12.3944 22.3191 12.3944 21.763C12.3944 21.2068 12.5564 20.8267 12.9155 20.5099C13.2395 20.2283 13.5564 20.2142 14.1127 20.4677C14.4296 20.6084 14.5704 20.6366 14.7958 20.6014C15.169 20.538 15.6056 20.1509 15.7042 19.8059C15.7394 19.6581 15.7746 18.7147 15.7746 17.6587V15.7791H17.3239H18.8732L18.8309 15.9692Z" fill="white"/>
</svg>
