<svg width="493" height="493" viewBox="0 0 493 493" fill="none" xmlns="http://www.w3.org/2000/svg">
<path d="M330.968 391.935C327.27 400.973 302.456 399.823 299.58 407.547C296.704 415.27 322.011 414.531 321.19 424.227C320.368 433.922 305.085 435.401 277.641 436.962C250.198 438.524 244.117 445.754 216.674 454.71C189.23 463.667 177.152 452.081 161.786 443.7C146.503 435.401 117.17 450.684 107.967 437.784C98.7646 424.802 123.825 420.2 145.928 415.188C168.113 410.094 158.089 407.711 157.514 396.947C157.432 394.729 158.089 393.003 159.321 391.606C164.334 386.183 178.877 386.101 196.296 386.43C218.235 386.923 223.74 379.61 254.306 380.267C282.489 380.843 326.695 382.568 330.721 389.881C331.214 390.538 331.296 391.196 330.968 391.935Z" fill="#99ADF9"/>
<path d="M373.859 407.957C373.612 408.45 373.201 408.943 372.708 409.519C369.175 413.38 357.59 415.763 348.305 415.928C336.801 416.01 324.805 415.27 324.394 408.286C324.066 401.302 353.481 400.891 363.752 402.041C372.626 402.863 375.42 404.917 373.859 407.957Z" fill="#99ADF9"/>
<path d="M146.504 406.807C146.339 407.218 146.011 407.629 145.6 408.04C142.806 411.08 133.686 413.052 126.373 413.134C117.334 413.216 107.803 412.641 107.557 406.972C107.31 401.384 130.481 401.056 138.533 401.96C145.518 402.699 147.818 404.342 146.504 406.807Z" fill="#99ADF9"/>
<path d="M293.663 450.602C285.611 453.807 255.538 453.971 255.62 450.027C255.62 449.534 255.785 449.041 256.113 448.63C258.332 445.508 267.534 443.782 275.833 443.454C285.611 443.125 292.267 444.193 295.225 445.754C297.936 447.233 297.525 449.041 293.663 450.602Z" fill="#99ADF9"/>
<path d="M216.921 440.824C209.526 443.536 186.026 442.879 186.19 438.031C186.19 437.456 186.355 436.88 186.601 436.305C188.573 432.526 194.736 431.129 201.802 430.882C210.019 430.554 216.756 431.868 219.468 433.429C222.919 435.319 223.001 438.524 216.921 440.824Z" fill="#C5DFFF"/>
<path d="M308.043 394.729C303.688 396.865 287.83 396.701 287.912 393.907C287.912 393.578 287.995 393.25 288.159 392.921C289.391 390.785 294.239 389.634 298.676 389.47C303.853 389.306 307.386 390.128 308.865 391.278C310.344 392.346 310.097 393.661 308.043 394.729Z" fill="#C5DFFF"/>
<path d="M303.771 424.144C300.237 425.87 287.255 425.705 287.337 423.487C287.337 423.24 287.419 422.912 287.584 422.665C288.57 420.94 292.596 419.954 296.211 419.872C300.484 419.707 303.36 420.447 304.592 421.351C305.66 422.254 305.496 423.323 303.771 424.144Z" fill="#C5DFFF"/>
<path d="M264.495 422.748C227.191 433.019 171.236 415.928 171.729 406.15C171.811 404.918 172.304 403.849 173.208 402.863C179.617 395.797 205.746 393.825 229.492 395.222C257.346 396.947 276.163 401.384 284.379 406.15C291.856 410.341 283.558 417.489 264.495 422.748Z" fill="#2E3092"/>
<path d="M169.756 425.459C166.223 427.431 153.076 427.267 153.241 424.72C153.241 424.391 153.323 424.144 153.487 423.816C154.473 421.844 158.499 420.776 162.115 420.611C166.387 420.447 169.263 421.186 170.496 422.255C171.646 423.323 171.482 424.555 169.756 425.459Z" fill="#C5DFFF"/>
<path d="M289.555 136.725C289.555 136.725 287.419 130.07 294.814 129.659C302.209 129.33 294.814 118.402 302.209 112.075C309.604 105.748 318.396 108.542 318.724 117.005C319.053 125.468 317.656 130.727 318.724 132.863C319.792 135 322.915 129.001 326.777 133.192C330.638 137.382 306.728 218.317 306.728 218.317L293.746 215.112L289.555 136.725Z" fill="#D2E9FF"/>
<path d="M313.055 149.625C309.522 151.269 302.291 199.583 308.289 194.817C309.686 193.749 322.093 145.435 313.055 149.625Z" fill="#E3F0FF"/>
<path d="M374.269 98.5999C373.941 100.901 373.366 103.037 372.79 104.927C367.039 122.346 351.345 123.003 351.098 125.386C350.852 128.016 362.437 136.725 351.591 147.325C340.745 157.924 318.643 144.449 312.809 143.956C304.592 143.299 287.501 157.924 275.752 142.723C268.192 132.946 280.353 127.44 277.559 124.729C274.766 122.017 252.909 121.524 252.909 96.9566C252.909 96.4636 252.909 95.9706 252.909 95.4776C253.731 70.9097 275.587 72.6352 276.655 67.7874C277.724 62.9396 277.477 34.5099 311.987 33.2774C346.579 32.0449 345.511 67.0479 348.633 68.6912C351.92 70.4167 377.967 74.9359 374.269 98.5999Z" fill="#E3F0FF"/>
<path d="M346.826 119.059C354.221 116.019 365.313 110.596 372.708 104.927C366.957 122.346 351.263 123.003 351.016 125.386C350.77 128.016 362.355 136.725 351.509 147.325C340.663 157.924 318.56 144.449 312.727 143.956C304.51 143.299 287.419 157.924 275.669 142.723C268.11 132.946 280.271 127.44 277.477 124.729C274.683 122.017 252.827 121.524 252.827 96.9565C254.717 100.818 258.661 106.324 267.124 110.185C281.339 116.677 291.363 109.446 296.375 116.43C301.388 123.414 290.87 127.769 295.554 131.877C300.319 135.986 307.714 125.633 319.546 131.138C331.461 136.643 338.856 140.258 343.539 135.246C348.469 130.152 336.308 123.414 346.826 119.059Z" fill="#D2E9FF"/>
<path d="M290.706 84.1386C290.706 84.1386 290.624 84.0565 290.377 83.8921C290.131 83.7278 289.884 83.4813 289.473 83.0705C288.734 82.331 287.748 81.1806 286.926 79.6195C286.515 78.88 286.104 77.9761 285.776 76.9901C285.447 76.0041 285.283 74.936 285.118 73.7856C285.036 72.6353 285.036 71.485 285.201 70.3346C285.283 69.7595 285.365 69.1843 285.529 68.6091C285.611 68.2805 285.611 68.1161 285.776 67.6231L286.022 66.8015C286.269 65.8155 286.926 64.583 287.583 63.5148C288.241 62.5288 289.145 61.5428 290.048 60.8033C291.034 60.0638 292.02 59.4886 293.006 59.0778C293.992 58.667 295.061 58.4205 295.964 58.2561C296.868 58.0918 297.772 58.0918 298.512 58.0918C299.251 58.0918 299.908 58.0918 300.484 58.174C301.059 58.2561 301.47 58.2561 301.716 58.3383C302.045 58.4205 302.209 58.4205 302.209 58.4205C303.277 58.667 303.935 59.653 303.688 60.7211C303.442 61.7893 302.456 62.4466 301.387 62.2001H301.305H301.141C301.141 62.2001 301.059 62.2001 300.894 62.118C300.648 62.0358 300.401 61.9536 299.908 61.9536C299.498 61.8715 299.005 61.7893 298.347 61.7893C297.772 61.7893 297.115 61.7071 296.375 61.7893C295.636 61.8715 294.896 61.9536 294.157 62.2823C293.417 62.5288 292.596 62.8575 291.938 63.3505C291.199 63.8435 290.541 64.5008 289.966 65.2403C289.391 65.9798 288.98 66.6371 288.569 67.7875L288.241 68.527L288.076 69.1843C287.912 69.6773 287.748 70.1703 287.748 70.6633C287.583 71.6493 287.501 72.6353 287.501 73.5391C287.501 74.443 287.666 75.429 287.83 76.2506C287.994 77.0723 288.323 77.894 288.652 78.5513C289.309 79.9481 290.131 81.0163 290.706 81.6736C291.034 82.0023 291.281 82.2488 291.445 82.4131C291.61 82.5775 291.692 82.6596 291.692 82.6596H291.774C292.103 82.9883 292.185 83.5635 291.856 83.8921C291.61 84.303 291.117 84.3851 290.706 84.1386Z" fill="#D2E9FF"/>
<path d="M300.648 59.9818C300.648 59.9818 300.648 59.8175 300.73 59.4066C300.812 59.078 300.976 58.585 301.141 57.9276C301.551 56.6951 302.209 54.9696 303.606 53.0798C304.263 52.176 305.167 51.19 306.235 50.4505C307.303 49.6288 308.536 48.9715 309.85 48.3963C310.508 48.1498 311.247 47.9855 311.987 47.739C312.726 47.5746 313.466 47.4925 314.205 47.4103C314.945 47.3281 315.684 47.3281 316.424 47.3281H316.999H317.081H317.327H317.41H317.656L318.642 47.4103C318.971 47.4925 319.217 47.4925 319.628 47.5746L320.861 47.9033C321.271 48.0676 321.682 48.1498 322.093 48.3141L323.161 48.8071C323.901 49.1358 324.558 49.5466 325.133 50.0396C325.791 50.4505 326.284 51.0256 326.859 51.5186C328.913 53.655 330.063 56.2021 330.721 58.2563C331.378 60.3926 331.707 62.2003 331.871 63.4328C331.953 64.0901 331.953 64.5831 332.035 64.9118C332.035 65.3226 332.035 65.487 332.035 65.487C332.117 66.966 330.967 68.1985 329.488 68.1985C328.009 68.2806 326.777 67.1303 326.777 65.6513V65.5691V65.4048C326.777 65.4048 326.777 65.3226 326.777 65.0761C326.777 64.8296 326.777 64.4188 326.694 63.9258C326.612 62.9398 326.448 61.3786 325.955 59.7353C325.462 58.092 324.64 56.2021 323.326 54.7231C322.997 54.3945 322.668 53.9836 322.257 53.655C321.847 53.3263 321.436 52.9976 321.025 52.8333L320.368 52.4225C320.121 52.3403 319.957 52.2581 319.71 52.176L319.053 51.9295C318.806 51.8473 318.396 51.8473 318.149 51.7651L317.163 51.6008H316.917H316.834C316.67 51.6008 317.081 51.6008 316.999 51.6008H316.917H316.506C315.931 51.6008 315.355 51.5186 314.78 51.6008C314.205 51.683 313.63 51.683 313.137 51.7651C312.644 51.9295 312.069 52.0116 311.576 52.176C310.59 52.5046 309.686 52.9155 308.946 53.4906C308.207 53.9836 307.55 54.641 307.057 55.2983C305.988 56.613 305.413 57.9276 305.085 58.9136C304.92 59.4066 304.838 59.7353 304.756 59.9818C304.674 60.2283 304.674 60.3105 304.674 60.3105V60.4748C304.427 61.543 303.441 62.1181 302.373 61.9538C301.058 61.9538 300.483 60.9678 300.648 59.9818Z" fill="#D2E9FF"/>
<path d="M341.485 72.0601C341.485 72.0601 342.06 72.0601 342.964 72.1422C343.868 72.2244 345.1 72.3887 346.579 72.7996C348.058 73.2104 349.784 73.8677 351.427 75.1824C352.249 75.8397 352.988 76.5792 353.646 77.4831C353.974 77.9761 354.221 78.3869 354.467 78.9621L354.796 79.7016L354.96 80.5232C355.207 81.3449 355.453 82.5774 355.453 83.5634C355.535 84.6316 355.453 85.6176 355.207 86.5214C354.796 88.4112 354.056 90.0546 353.235 91.2871C352.413 92.5196 351.509 93.4234 350.934 93.9986C350.277 94.5737 349.866 94.9024 349.866 94.9024C349.455 95.2311 348.798 95.1489 348.469 94.7381C348.14 94.3272 348.223 93.6699 348.633 93.3412C348.551 93.4234 350.03 92.2731 351.263 90.0546C351.92 88.9864 352.413 87.5896 352.577 86.0284C352.66 85.2889 352.66 84.4672 352.577 83.7277C352.495 82.9061 352.331 82.3309 352.002 81.3449L351.838 80.7697L351.591 80.2767C351.427 79.9481 351.181 79.6194 351.016 79.3729C350.605 78.7977 350.03 78.3869 349.455 77.9761C348.223 77.2366 346.908 76.7436 345.675 76.4971C344.443 76.2506 343.457 76.1684 342.717 76.1684C341.978 76.1684 341.649 76.1684 341.649 76.1684C340.499 76.1684 339.513 75.2646 339.513 74.1142C339.431 73.0461 340.335 72.0601 341.485 72.0601Z" fill="#D2E9FF"/>
<path d="M286.926 82.0849C286.926 82.0849 286.844 82.0849 286.762 82.0849C286.597 82.0849 286.433 82.167 286.186 82.2492C285.611 82.4135 284.872 82.66 284.05 83.2352C283.639 83.4817 283.228 83.8104 282.9 84.2212C282.489 84.632 282.16 85.125 281.914 85.7002C281.667 86.2754 281.421 86.8505 281.256 87.59C281.092 88.2474 281.01 89.069 281.01 89.7264C281.01 90.6302 281.092 91.2054 281.256 91.8627C281.421 92.52 281.667 93.1774 282.078 93.7525C282.818 94.9029 283.804 95.7245 284.79 96.2997C285.776 96.8749 286.679 97.2035 287.337 97.3679C287.994 97.5322 288.405 97.6144 288.323 97.6144C288.734 97.6144 289.062 98.0252 288.98 98.436C288.98 98.8469 288.569 99.1755 288.158 99.0934C288.158 99.0934 287.665 99.0934 286.926 98.929C286.186 98.7647 285.118 98.5182 283.804 98.0252C282.571 97.45 281.174 96.5462 280.024 95.1494C279.449 94.4099 279.038 93.5882 278.709 92.7665C278.545 92.3557 278.463 91.7805 278.298 91.3697C278.134 90.8767 278.134 90.548 278.052 90.055C278.052 89.8085 277.97 89.7264 277.97 89.3155V88.6582C277.97 88.1652 277.97 87.7544 278.052 87.2614C278.134 86.3575 278.298 85.3715 278.627 84.5499C278.956 83.646 279.367 82.8244 279.942 82.167C280.435 81.4275 281.01 80.8524 281.667 80.3594C282.818 79.3734 283.968 78.8804 284.79 78.5517C285.2 78.3874 285.529 78.3052 285.776 78.223C286.022 78.1409 286.186 78.1409 286.186 78.1409C287.337 77.8944 288.487 78.5517 288.734 79.702C288.98 80.8524 288.323 82.0027 287.172 82.2492C287.09 82.0849 287.008 82.0849 286.926 82.0849Z" fill="#D2E9FF"/>
<path d="M337.294 106.899C337.294 106.899 337.294 107.474 337.13 108.378C336.966 109.282 336.719 110.514 336.226 111.994C335.733 113.473 334.994 115.198 333.597 116.759C332.94 117.499 332.118 118.238 331.132 118.813C330.639 119.06 330.146 119.388 329.653 119.553L328.831 119.799L328.092 119.964C327.27 120.21 326.038 120.292 325.052 120.292C323.983 120.292 322.997 120.128 322.094 119.964C320.204 119.471 318.643 118.649 317.41 117.745C316.178 116.841 315.356 115.938 314.781 115.28C314.206 114.623 313.959 114.212 313.959 114.13C313.63 113.719 313.795 113.062 314.206 112.733C314.616 112.404 315.274 112.569 315.602 112.979C315.602 112.897 316.588 114.376 318.807 115.773C319.875 116.43 321.272 117.088 322.751 117.334C323.49 117.499 324.312 117.499 325.052 117.416C325.873 117.334 326.448 117.252 327.434 116.924L328.01 116.759L328.503 116.513C328.831 116.348 329.16 116.184 329.406 115.938C329.982 115.527 330.475 114.952 330.885 114.459C331.707 113.308 332.2 111.994 332.529 110.761C332.857 109.528 332.94 108.542 333.022 107.803C333.104 107.063 333.022 106.735 333.022 106.735C333.022 105.584 334.008 104.681 335.158 104.681C336.391 104.763 337.377 105.667 337.294 106.899Z" fill="#D2E9FF"/>
<path d="M272.053 174.85L268.602 165.237C268.602 165.237 276.573 164.004 272.382 153.569C269.999 147.735 263.262 152.337 263.262 152.337C263.262 152.337 262.111 143.874 253.319 145.763C246.417 147.242 246.253 158.335 248.965 161.868C251.594 165.401 254.305 165.073 254.305 165.073C254.305 165.073 248.554 164.908 249.458 170.167C250.361 175.426 254.881 175.672 258.332 173.947C259.975 173.125 261.207 171.071 261.207 171.071L268.685 177.233C269.342 177.808 270.328 177.891 271.15 177.48C272.053 177.069 272.464 175.919 272.053 174.85Z" fill="#D2E9FF"/>
<path d="M354.056 196.378C353.727 197.94 353.152 199.336 352.495 200.076C350.523 202.377 347.401 202.623 347.401 202.623C347.401 202.623 350.194 204.184 348.14 207.553C346.579 210.018 341.978 208.539 340.745 206.978C339.43 205.417 339.43 203.609 339.43 203.609L333.843 208.375C332.939 209.196 331.46 209.114 330.639 208.128C329.899 207.307 329.899 205.992 330.639 205.17L331.378 204.349L335.897 199.008C335.897 199.008 329.488 196.378 331.789 191.613C333.843 187.258 337.951 189.312 339.02 190.463C340.006 191.531 340.17 193.338 340.17 193.338C340.17 193.338 342.06 186.025 348.88 187.669C353.974 188.819 354.713 193.01 354.056 196.378Z" fill="#D2E9FF"/>
<path d="M179.37 296.868C180.685 298.676 180.767 301.141 179.452 303.031L178.959 303.688C178.466 304.345 177.727 304.674 176.987 304.674C176.412 304.674 175.919 304.51 175.426 304.099L167.538 297.197C167.538 297.197 163.676 306.153 153.159 304.099C145.846 302.62 143.956 296.375 144.778 291.199C145.107 288.652 146.093 286.351 147.407 284.954C149.708 282.489 152.666 282.16 154.802 282.243C152.666 281.585 149.626 279.86 148.475 275.587C147.736 272.876 147.9 270.164 148.886 268.028C150.447 264.659 153.981 262.523 158.993 263.098C167.292 264.166 167.456 275.916 167.456 275.916C167.456 275.916 170.332 267.946 178.22 271.397C185.122 274.437 183.15 283.639 178.466 287.255C176.001 289.145 173.865 289.555 173.865 289.555L179.37 296.868Z" fill="#E1ECFF"/>
<path d="M161.54 283.722C161.54 283.722 158.171 283.064 154.884 282.161C152.748 281.503 149.708 279.86 148.475 275.505C147.736 272.794 147.9 270.082 148.886 267.946C149.379 270.822 150.694 275.341 153.898 278.299C158.91 282.9 161.54 283.722 161.54 283.722Z" fill="#C5DFFF"/>
<path d="M178.959 303.606C178.466 304.263 177.727 304.592 176.987 304.592C176.412 304.592 175.919 304.428 175.426 304.017L167.538 297.115C167.538 297.115 163.676 306.071 153.159 304.017C145.846 302.538 143.956 296.293 144.778 291.117C145.928 293.582 148.475 296.375 154.309 297.361C165.977 299.416 166.306 292.103 166.306 292.103L178.959 303.606Z" fill="#C5DFFF"/>
<path d="M210.265 278.709C209.196 278.709 205.663 278.463 202.459 275.505C199.254 272.547 197.611 267.863 197.529 261.701C197.364 247.157 194.571 245.185 191.531 244.281C187.258 243.049 182.657 244.692 182.657 244.692C181.013 245.35 179.206 244.528 178.548 242.885C177.891 241.241 178.713 239.434 180.356 238.776C180.602 238.694 186.847 236.311 193.256 238.119C201.801 240.584 203.691 248.883 203.773 261.536C203.856 265.809 204.842 269.014 206.567 270.739C208.21 272.3 210.1 272.3 210.1 272.3C211.826 272.136 213.305 273.615 213.387 275.34C213.469 277.066 212.154 278.545 210.429 278.627C210.511 278.709 210.429 278.709 210.265 278.709Z" fill="#F58D55"/>
<path d="M207.718 234.504C206.896 235.243 204.513 237.872 204.185 242.145C203.938 246.5 205.91 251.019 210.101 255.62C219.878 266.302 219.303 269.671 217.66 272.382C215.359 276.244 210.922 278.134 210.922 278.134C209.279 278.791 208.539 280.599 209.197 282.242C209.854 283.886 211.662 284.625 213.305 283.968C213.552 283.886 219.796 281.339 223.165 275.587C227.684 267.863 223.329 260.633 214.866 251.266C211.99 248.143 210.511 245.103 210.594 242.638C210.676 240.337 212.073 239.105 212.155 239.023C213.469 237.955 213.552 235.9 212.401 234.586C211.251 233.271 209.361 233.107 207.964 234.257C207.882 234.339 207.8 234.421 207.718 234.504Z" fill="#2E3092"/>
<path d="M353.316 253.32C350.194 253.32 346.743 252.334 343.621 249.869C338.28 245.761 334.747 248.554 334.747 248.637C333.432 249.787 331.378 249.623 330.31 248.226C329.159 246.911 329.324 244.857 330.721 243.789C333.268 241.652 340.088 239.105 347.565 244.857C351.591 247.979 355.864 247.158 357.507 245.596C359.068 244.2 359.972 240.173 360.136 237.791C360.218 236.065 361.78 234.668 363.505 234.832C365.231 234.915 366.545 236.476 366.463 238.201C366.381 239.023 365.806 246.665 361.78 250.28C359.725 252.17 356.685 253.32 353.316 253.32Z" fill="#2E3092"/>
<path d="M351.673 292.431L377.884 321.765C377.884 321.765 370.243 308.618 363.669 300.319C356.767 291.774 351.673 292.431 351.673 292.431Z" fill="#E1ECFF"/>
<path d="M372.297 305.906C372.297 305.906 365.559 297.854 364.573 296.622C361.944 293.417 360.054 292.431 360.054 292.431C360.054 292.431 362.437 292.102 365.559 296.046C368.681 299.908 372.297 305.906 372.297 305.906Z" fill="#E1ECFF"/>
<path d="M332.117 278.545L343.949 258.167L336.883 276.984L347.318 287.337L332.117 278.545Z" fill="#FEC272"/>
<path d="M350.604 268.356L333.596 277.476L337.786 279.038L350.604 268.356Z" fill="#FEC272"/>
<path d="M178.794 232.45L172.632 225.301C171.892 224.397 171.975 223.083 172.878 222.261C173.782 221.521 175.097 221.604 175.919 222.507C176.083 222.672 176.165 222.836 176.247 223L180.191 231.546C180.356 231.957 180.191 232.45 179.78 232.614C179.452 232.86 179.041 232.778 178.794 232.45Z" fill="#FEC272"/>
<path d="M173.125 240.256L161.54 241.406C160.389 241.488 159.321 240.666 159.239 239.516C159.157 238.366 159.979 237.297 161.129 237.215C161.293 237.215 161.458 237.215 161.622 237.215L173.125 238.612C173.618 238.694 173.865 239.105 173.865 239.516C173.783 239.927 173.536 240.256 173.125 240.256Z" fill="#FEC272"/>
<path d="M178.22 249.787L172.55 256.853C171.811 257.757 170.496 257.921 169.592 257.182C168.688 256.442 168.524 255.128 169.264 254.224C169.346 254.06 169.51 253.895 169.674 253.813L177.069 248.554C177.48 248.308 177.973 248.39 178.302 248.719C178.548 249.047 178.466 249.458 178.22 249.787Z" fill="#FEC272"/>
<path d="M212.566 228.259L216.92 222.508C217.496 221.768 218.482 221.686 219.221 222.179C219.961 222.754 220.043 223.74 219.55 224.48C219.468 224.562 219.385 224.726 219.221 224.808L213.469 229.163C213.223 229.41 212.812 229.327 212.566 229.081C212.401 228.834 212.401 228.506 212.566 228.259Z" fill="#FEC272"/>
<path d="M205.828 225.301L203.034 216.838C202.788 216.016 203.199 215.03 204.102 214.784C204.924 214.537 205.91 214.948 206.157 215.852C206.157 215.934 206.239 216.099 206.239 216.181L207.06 225.055C207.06 225.383 206.814 225.712 206.485 225.712C206.157 225.712 205.91 225.548 205.828 225.301Z" fill="#FEC272"/>
<path d="M199.501 230.642L193.256 227.52C192.435 227.109 192.106 226.123 192.517 225.301C192.928 224.479 193.914 224.151 194.735 224.562C194.9 224.644 194.982 224.726 195.146 224.808L200.323 229.492C200.569 229.738 200.651 230.149 200.405 230.478C200.076 230.724 199.747 230.806 199.501 230.642Z" fill="#FEC272"/>
<path d="M365.231 219.96L363.752 228.423C363.67 228.916 363.259 229.163 362.766 229.081C362.355 228.998 362.109 228.67 362.027 228.341L360.958 219.796C360.794 218.645 361.616 217.577 362.848 217.413C363.999 217.249 365.067 218.07 365.231 219.303C365.313 219.549 365.313 219.714 365.231 219.96Z" fill="#FEC272"/>
<path d="M380.104 227.93L371.476 233.6C370.901 233.928 370.161 233.846 369.833 233.271C369.504 232.778 369.586 232.121 369.997 231.71L377.556 224.644C378.378 223.822 379.775 223.904 380.514 224.726C381.336 225.547 381.254 226.944 380.432 227.684C380.268 227.766 380.186 227.848 380.104 227.93Z" fill="#FEC272"/>
<path d="M378.706 246.007L371.311 242.474C370.818 242.227 370.572 241.652 370.818 241.077C370.983 240.666 371.476 240.419 371.887 240.502L379.939 241.898C381.089 242.063 381.911 243.213 381.664 244.363C381.5 245.514 380.35 246.335 379.199 246.089C379.117 246.171 378.953 246.089 378.706 246.007Z" fill="#FEC272"/>
<path d="M262.933 205.745C262.933 205.745 228.341 247.157 227.026 246.089C226.698 245.843 226.123 243.953 225.383 240.913C223.411 232.285 220.7 214.208 220.371 194.981C219.96 169.099 220.617 161.211 227.519 158.006C232.614 155.624 246.5 178.548 255.62 193.913C258.907 199.172 261.454 203.527 262.933 205.745Z" fill="#F58D55"/>
<path d="M262.933 205.745C262.933 205.745 228.341 247.157 227.026 246.089C226.697 245.842 226.122 243.953 225.383 240.912C228.752 232.285 232.86 223.164 237.379 216.262C244.692 205.252 251.265 198.104 255.62 193.913C258.907 199.172 261.454 203.527 262.933 205.745Z" fill="#F58244"/>
<path d="M382.732 348.14C380.596 352.577 360.794 346.415 344.607 340.827C341.485 339.759 338.444 338.691 335.651 337.705C329.242 335.487 324.969 329.406 324.969 322.586C325.051 306.728 323.572 281.503 326.612 280.188C330.228 278.545 348.14 296.211 364.491 315.191C381.418 334.829 385.937 341.32 382.732 348.14Z" fill="#F58244"/>
<path d="M344.607 340.828C341.485 339.76 338.444 338.692 335.651 337.706C329.242 335.487 324.969 329.407 324.969 322.587C325.051 306.729 323.572 281.504 326.612 280.189C326.695 280.189 333.432 301.059 338.034 317.493C340.663 327.024 342.881 334.83 344.607 340.828Z" fill="#F58D55"/>
<path d="M332.775 239.105C332.2 261.536 328.913 298.84 315.52 335.815C303.935 367.86 293.91 389.141 287.255 401.713C281.75 412.066 278.545 416.667 278.545 416.667C278.545 416.667 269.836 421.022 253.074 422.337C243.707 423.076 231.875 422.912 217.66 420.529C177.891 413.873 173.701 401.384 173.701 401.384C173.701 401.384 173.125 394.236 175.015 380.185C177.398 362.108 183.971 332.693 201.144 292.513C220.453 247.568 242.474 221.11 256.114 207.717C264.166 199.829 269.343 196.46 269.343 196.46C269.343 196.46 280.024 192.106 302.127 199.008C310.919 201.719 317.574 205.252 322.258 208.621C329.489 213.633 332.447 218.07 332.447 218.07C332.447 218.07 333.186 226.123 332.775 239.105Z" fill="#E1ECFF"/>
<path d="M332.775 239.105C332.2 261.536 328.913 298.84 315.52 335.815C303.934 367.86 293.91 389.141 287.255 401.713C281.749 412.066 278.545 416.667 278.545 416.667C278.545 416.667 269.835 421.022 253.073 422.337C263.755 407.711 279.613 382.321 295.389 343.867C321.025 281.421 322.586 226.533 322.34 208.621C329.57 213.633 332.528 218.07 332.528 218.07C332.528 218.07 333.186 226.123 332.775 239.105Z" fill="#C5DFFF"/>
<path d="M184.383 376.652C184.136 376.652 183.972 376.652 183.725 376.57C181.425 376.241 179.863 374.022 180.192 371.722C180.439 370.325 185.697 336.472 200.241 302.373C214.784 268.356 226.288 251.676 226.781 250.937C228.095 249.047 230.725 248.554 232.697 249.869C234.586 251.183 235.079 253.813 233.765 255.785C233.683 255.949 222.179 272.547 208.047 305.66C193.914 338.773 188.573 372.626 188.573 372.954C188.162 375.173 186.355 376.652 184.383 376.652Z" fill="#F8FBFF"/>
<path d="M332.775 239.106C329.9 236.558 326.202 233.6 321.765 230.56C319.957 229.328 317.985 228.013 315.849 226.698C314.699 226.041 313.548 225.302 312.316 224.644C307.468 221.851 301.963 219.221 295.965 216.921C295.472 216.756 295.061 216.592 294.568 216.428C293.664 216.099 292.842 215.77 292.021 215.524C285.119 213.059 279.038 211.415 273.862 210.265C272.383 209.936 270.904 209.69 269.589 209.361C263.838 208.293 259.401 207.964 256.278 207.8C264.331 199.912 269.507 196.543 269.507 196.543C269.507 196.543 272.794 195.229 279.532 195.229C281.01 195.229 282.654 195.311 284.461 195.475C288.734 195.804 293.911 196.708 299.991 198.433C300.73 198.68 301.552 198.844 302.292 199.09C302.867 199.255 303.442 199.419 304.017 199.666C308.783 201.309 312.891 203.117 316.342 204.924C317.739 205.664 318.971 206.403 320.204 207.225C321.026 207.718 321.683 208.211 322.422 208.704C329.653 213.716 332.611 218.153 332.611 218.153C332.611 218.153 333.186 226.123 332.775 239.106Z" fill="#1C3177"/>
<path d="M332.776 239.105C329.9 236.558 326.203 233.6 321.766 230.559C322.423 220.946 322.423 213.469 322.423 208.703C329.654 213.715 332.612 218.152 332.612 218.152C332.612 218.152 333.187 226.122 332.776 239.105Z" fill="#142966"/>
<path d="M320.203 207.224L316.424 225.711C316.342 226.122 316.177 226.451 315.849 226.78C314.698 226.122 313.548 225.383 312.315 224.725L316.342 205.005C317.738 205.745 319.053 206.484 320.203 207.224Z" fill="#142966"/>
<path d="M304.017 199.665L295.965 216.92C295.472 216.755 295.061 216.591 294.568 216.427C293.664 216.098 292.842 215.769 292.021 215.523L299.909 198.432C300.648 198.679 301.47 198.843 302.209 199.089C302.867 199.336 303.442 199.5 304.017 199.665Z" fill="#142966"/>
<path d="M284.461 195.474C284.379 195.639 284.297 195.803 284.214 195.967L273.862 210.264C272.383 209.935 270.904 209.689 269.589 209.36C269.671 209.032 269.753 208.703 270 208.374L279.531 195.146C281.01 195.228 282.653 195.31 284.461 195.474Z" fill="#142966"/>
<path d="M225.009 391.132C244.325 397.758 267.432 381.417 276.621 354.632C285.81 327.847 277.6 300.762 258.284 294.136C238.968 287.509 215.861 303.851 206.672 330.635C197.483 357.42 205.693 384.505 225.009 391.132Z" fill="#C5DFFF"/>
<path d="M227.654 389.029C246.97 395.655 269.995 379.557 279.08 353.073C288.166 326.589 279.873 299.747 260.557 293.12C241.241 286.494 218.217 302.592 209.131 329.076C200.045 355.561 208.338 382.402 227.654 389.029Z" fill="#1C3177"/>
<path d="M229.568 379.857C244.892 385.114 263.272 372.012 270.62 350.593C277.968 329.174 271.502 307.548 256.178 302.291C240.854 297.034 222.475 310.136 215.127 331.555C207.779 352.975 214.244 374.6 229.568 379.857Z" fill="#99ADF9"/>
<path d="M237.338 328.618C241.716 330.12 246.973 326.362 249.079 320.223C251.184 314.085 249.342 307.892 244.964 306.39C240.585 304.888 235.329 308.646 233.223 314.784C231.118 320.922 232.96 327.116 237.338 328.618Z" fill="#C5DFFF"/>
<path d="M227.296 355.612C229.657 356.422 232.478 354.434 233.597 351.172C234.716 347.91 233.71 344.608 231.349 343.799C228.988 342.989 226.167 344.977 225.048 348.239C223.929 351.501 224.935 354.802 227.296 355.612Z" fill="#C5DFFF"/>
<path d="M270.657 350.605C263.262 372.051 244.939 385.115 229.573 379.856C221.521 377.063 215.852 369.75 213.469 360.301C215.441 361.615 217.577 362.766 219.878 363.505C238.94 370.079 261.865 353.727 270.985 327.023C271.561 325.38 272.054 323.737 272.464 322.093C274.519 330.556 274.108 340.663 270.657 350.605Z" fill="#7C99F2"/>
<path d="M287.337 401.795C281.832 412.148 278.627 416.749 278.627 416.749C278.627 416.749 269.918 421.104 253.156 422.419C243.789 423.158 231.957 422.994 217.742 420.611C203.034 418.146 193.256 414.859 186.683 411.737C175.508 406.396 173.783 401.466 173.783 401.466C173.783 401.466 173.207 394.318 175.097 380.267C178.548 383.472 183.15 387.087 189.23 390.456C198.597 395.632 211.333 400.48 228.67 403.027C241.652 404.917 254.059 405.164 265.152 404.424C273.369 404.013 280.846 402.945 287.337 401.795Z" fill="#FB9E6D"/>
<path d="M287.337 401.795C281.831 412.148 278.627 416.749 278.627 416.749C278.627 416.749 269.917 421.104 253.155 422.419C256.688 417.571 260.715 411.655 265.152 404.424C273.368 404.013 280.845 402.945 287.337 401.795Z" fill="#F58244"/>
<path d="M189.23 390.538L186.683 411.819C175.508 406.479 173.783 401.549 173.783 401.549C173.783 401.549 173.207 394.4 175.097 380.35C178.548 383.554 183.15 387.087 189.23 390.538Z" fill="#F58D55"/>
</svg>
