<?xml version="1.0" standalone="no"?>
<!DOCTYPE svg PUBLIC "-//W3C//DTD SVG 20010904//EN"
 "http://www.w3.org/TR/2001/REC-SVG-20010904/DTD/svg10.dtd">
<svg version="1.0" xmlns="http://www.w3.org/2000/svg"
 width="512.000000pt" height="512.000000pt" viewBox="0 0 512.000000 512.000000"
 preserveAspectRatio="xMidYMid meet">

<g transform="translate(0.000000,512.000000) scale(0.100000,-0.100000)"
fill="#000000" stroke="none">
<path d="M3920 4463 c-105 -16 -170 -40 -251 -94 -111 -74 -193 -196 -235
-346 l-17 -62 -281 -163 c-296 -171 -346 -210 -391 -299 -81 -159 -79 -394 7
-639 71 -202 209 -415 358 -552 l81 -74 -538 -314 c-508 -296 -541 -313 -596
-318 -53 -4 -66 -1 -132 32 -205 105 -384 403 -385 640 0 80 14 133 44 170 11
14 224 143 471 286 248 143 460 272 473 286 54 61 -7 142 -84 109 -47 -20
-895 -514 -934 -544 -175 -137 -155 -502 43 -796 22 -33 60 -83 84 -111 l43
-52 -451 -262 c-503 -293 -474 -282 -563 -221 -78 54 -148 167 -171 277 -13
61 -8 125 12 145 4 4 168 101 363 214 195 114 363 214 373 222 42 38 7 123
-51 123 -17 0 -122 -55 -286 -150 l-259 -151 -66 27 c-57 24 -81 28 -171 28
-98 1 -110 -1 -171 -30 -246 -117 -308 -443 -146 -769 101 -204 289 -368 473
-411 162 -38 329 26 417 159 38 57 72 152 82 227 l6 45 361 210 c199 116 365
211 369 213 5 2 39 -11 76 -29 84 -41 212 -52 277 -25 21 9 295 165 608 347
l570 331 81 -27 c105 -35 226 -38 302 -8 28 11 171 90 318 176 l268 157 57
-16 c256 -70 509 21 650 233 74 112 120 318 109 489 -36 550 -449 1134 -907
1282 -106 35 -212 47 -290 35z m162 -157 c92 -18 159 -44 245 -97 290 -176
533 -530 619 -904 23 -98 25 -313 5 -395 -59 -239 -234 -375 -456 -357 -125
11 -257 67 -397 169 -51 37 -60 40 -90 32 -18 -6 -39 -21 -47 -36 -29 -51 -2
-84 153 -191 17 -12 11 -17 -70 -64 -49 -28 -155 -89 -236 -136 -165 -95 -201
-105 -295 -83 -312 72 -628 496 -674 901 -16 149 15 277 84 343 18 17 132 89
254 160 l222 130 5 -41 c17 -156 29 -225 41 -244 28 -43 92 -42 121 2 15 23
15 34 3 108 -17 102 -17 274 0 347 36 153 124 274 238 327 93 43 163 50 275
29z m-3619 -2583 c4 -3 -6 -14 -22 -24 -35 -21 -75 -73 -90 -118 -19 -58 -13
-188 12 -262 86 -254 328 -427 487 -350 24 11 45 19 47 17 9 -9 -37 -83 -73
-119 -38 -38 -110 -67 -165 -67 -44 0 -145 35 -198 69 -183 118 -323 385 -308
587 12 167 109 273 248 274 31 0 59 -3 62 -7z"/>
<path d="M3926 4159 c-95 -23 -158 -86 -198 -196 -17 -47 -21 -81 -20 -178 0
-173 35 -311 125 -490 143 -287 353 -495 577 -572 153 -53 296 -5 358 120 168
337 -104 986 -520 1239 -115 70 -235 99 -322 77z m147 -160 c278 -93 571 -523
594 -870 13 -191 -43 -289 -157 -276 -202 24 -473 303 -590 609 -81 209 -86
439 -12 521 37 42 78 45 165 16z"/>
<path d="M4037 3808 c-61 -47 -25 -178 50 -178 30 0 73 42 73 72 0 42 -21 98
-40 108 -26 14 -63 13 -83 -2z"/>
<path d="M4170 3482 c-79 -25 -63 -103 50 -247 97 -123 196 -199 242 -187 24
6 58 49 58 73 0 11 -42 61 -93 112 -51 50 -115 125 -142 166 -49 73 -78 95
-115 83z"/>
</g>
</svg>
