<?xml version="1.0" standalone="no"?>
<!DOCTYPE svg PUBLIC "-//W3C//DTD SVG 20010904//EN"
 "http://www.w3.org/TR/2001/REC-SVG-20010904/DTD/svg10.dtd">
<svg version="1.0" xmlns="http://www.w3.org/2000/svg"
 width="512.000000pt" height="512.000000pt" viewBox="0 0 512.000000 512.000000"
 preserveAspectRatio="xMidYMid meet">

<g transform="translate(0.000000,512.000000) scale(0.100000,-0.100000)"
fill="#000000" stroke="none">
<path d="M4065 5108 c-2 -7 -6 -105 -7 -218 l-3 -205 -40 -90 c-39 -89 -40
-91 -40 -215 0 -123 1 -126 39 -215 37 -86 39 -97 45 -225 l6 -135 73 -3 c61
-2 73 0 79 15 4 9 2 76 -4 149 -10 114 -16 144 -47 220 -20 49 -36 94 -36 101
0 10 83 13 410 13 327 0 410 -3 410 -13 0 -7 -16 -51 -35 -99 -50 -122 -58
-226 -52 -643 5 -362 7 -376 61 -502 14 -34 26 -69 26 -78 0 -13 -49 -15 -410
-15 -464 0 -426 -9 -386 88 52 123 57 156 63 390 l6 222 -81 0 -81 0 -3 -232
c-3 -218 -5 -237 -27 -290 -13 -32 -27 -58 -30 -58 -3 0 -48 132 -100 293
l-95 292 2 150 c2 127 -1 161 -17 215 -23 75 -64 144 -128 215 -63 69 -81 110
-163 362 -39 123 -82 237 -93 255 -63 91 -228 103 -393 28 -159 -72 -315 -214
-382 -349 -57 -113 -57 -155 3 -346 l45 -145 -2 -157 c-2 -141 1 -164 20 -218
26 -69 56 -117 122 -195 62 -73 83 -110 114 -206 l27 -81 69 20 c39 11 70 25
70 32 0 24 -50 157 -79 212 -17 32 -58 89 -91 127 -33 38 -58 72 -55 74 2 3
93 34 202 69 109 36 285 93 392 128 l194 64 -6 -95 c-3 -52 -1 -124 4 -160 5
-36 61 -226 125 -422 87 -269 126 -374 157 -427 52 -87 92 -184 81 -195 -7 -6
-528 -178 -713 -235 l-24 -7 5 93 c3 52 2 123 -3 159 -9 65 -123 437 -139 454
-7 7 -140 -30 -140 -40 0 -2 27 -86 60 -187 33 -102 60 -187 60 -191 0 -3 -31
20 -69 51 -188 159 -453 232 -735 204 -66 -6 -152 -20 -191 -30 -64 -16 -70
-20 -67 -42 4 -40 98 -225 156 -309 l54 -79 -72 -40 c-78 -43 -217 -143 -253
-183 l-23 -24 57 -50 c219 -189 476 -295 718 -296 171 0 318 39 490 131 l95
51 31 -43 c17 -23 38 -58 47 -77 31 -72 232 -707 238 -752 4 -26 3 -76 -1
-112 l-7 -66 -56 44 c-182 139 -407 240 -645 288 -97 20 -142 23 -337 23 -255
-1 -340 -12 -524 -72 -108 -35 -314 -132 -336 -158 -9 -10 -2 -27 26 -69 20
-31 40 -56 44 -56 5 0 37 16 72 36 208 118 439 174 718 174 225 0 400 -32 579
-106 186 -77 355 -198 621 -444 284 -263 417 -369 570 -454 l75 -41 -922 -3
c-508 -1 -1338 -1 -1845 0 l-923 3 75 42 c152 84 272 177 508 395 91 84 204
186 251 226 47 41 87 77 89 82 2 5 -15 34 -38 64 l-42 56 -52 -41 c-28 -22
-116 -100 -195 -172 -274 -251 -306 -279 -396 -347 -257 -195 -491 -281 -822
-305 l-93 -7 0 -74 0 -74 2560 0 2560 0 0 74 0 75 -47 3 -48 3 0 455 0 455 40
95 c39 94 40 97 40 220 0 124 -1 126 -40 215 l-40 90 -3 173 -4 172 -80 0 -81
0 6 -162 c7 -170 17 -222 61 -325 14 -34 26 -69 26 -78 0 -13 -49 -15 -410
-15 -464 0 -426 -9 -386 88 57 136 58 143 63 507 6 417 -2 521 -52 643 -19 48
-35 92 -35 99 0 10 83 13 410 13 327 0 410 -3 410 -13 0 -7 -16 -51 -35 -98
-40 -98 -55 -203 -55 -391 l0 -118 79 0 79 0 4 198 4 197 40 90 c39 89 39 91
39 215 0 124 -1 126 -40 215 l-40 90 0 440 0 440 40 95 c39 94 40 97 40 220 0
124 -1 126 -40 215 l-40 90 -5 215 -5 215 -75 0 -75 0 1 -195 c1 -211 9 -261
56 -372 15 -37 28 -74 28 -82 0 -14 -46 -16 -410 -16 -464 0 -426 -9 -386 88
52 124 58 163 60 376 l1 201 -73 3 c-52 2 -74 -1 -77 -10z m-787 -340 c17 -17
14 -67 -7 -113 -70 -154 -310 -325 -456 -325 -65 0 -75 7 -75 49 0 151 296
400 476 401 27 0 55 -5 62 -12z m127 -363 c42 -128 74 -187 150 -274 30 -36
54 -69 52 -75 -3 -9 -748 -256 -774 -256 -9 0 -11 30 -6 118 4 89 1 133 -11
185 -9 38 -16 70 -16 73 0 2 15 4 33 4 88 0 224 57 339 142 68 50 188 172 188
191 0 23 12 -5 45 -108z m-736 -1665 c160 -39 303 -130 414 -265 51 -61 54
-70 60 -133 3 -37 9 -75 12 -84 7 -17 -2 -18 -104 -18 -245 0 -415 66 -577
225 -76 74 -204 251 -204 282 0 28 270 23 399 -7z m1389 -667 l-3 -388 -40
-90 c-39 -89 -40 -91 -40 -215 0 -119 2 -129 34 -205 18 -44 37 -92 41 -107
l8 -27 -141 -47 c-78 -26 -148 -49 -156 -52 -11 -4 -12 15 -6 109 5 89 3 129
-9 184 -26 111 -226 714 -257 777 -16 31 -56 89 -89 129 -33 39 -60 74 -60 78
0 4 143 53 318 109 174 57 333 109 352 116 19 8 39 14 43 15 4 1 7 -173 5
-386z m-1611 212 c141 -115 359 -193 547 -196 l61 -1 -43 -19 c-134 -62 -337
-79 -486 -40 -88 23 -237 91 -315 143 l-52 35 48 31 c54 34 164 91 176 92 5 0
33 -20 64 -45z m2503 -998 c0 -7 -16 -51 -35 -98 -48 -118 -55 -199 -55 -647
0 -351 -1 -373 -17 -368 -10 2 -44 10 -76 16 -143 29 -332 110 -469 202 l-78
53 0 235 c0 307 -10 399 -55 509 -19 47 -35 91 -35 98 0 10 83 13 410 13 327
0 410 -3 410 -13z m-890 -558 l0 -152 -47 44 c-105 94 -195 181 -191 184 3 3
219 72 231 74 4 1 7 -67 7 -150z"/>
<path d="M4567 3974 c-4 -4 -7 -72 -7 -151 l0 -143 80 0 81 0 -3 148 -3 147
-70 3 c-39 1 -74 0 -78 -4z"/>
<path d="M4567 3524 c-4 -4 -7 -38 -7 -76 l0 -68 80 0 81 0 -3 73 -3 72 -70 3
c-39 1 -74 0 -78 -4z"/>
<path d="M2560 945 l0 -75 75 0 75 0 0 75 0 75 -75 0 -75 0 0 -75z"/>
<path d="M1920 785 l0 -75 75 0 75 0 0 75 0 75 -75 0 -75 0 0 -75z"/>
<path d="M3140 775 l0 -75 75 0 75 0 0 75 0 75 -75 0 -75 0 0 -75z"/>
<path d="M2810 575 l0 -75 75 0 75 0 0 75 0 75 -75 0 -75 0 0 -75z"/>
<path d="M2270 475 l0 -75 75 0 75 0 0 75 0 75 -75 0 -75 0 0 -75z"/>
<path d="M1590 375 l0 -75 75 0 75 0 0 75 0 75 -75 0 -75 0 0 -75z"/>
<path d="M3400 375 l0 -75 75 0 75 0 0 75 0 75 -75 0 -75 0 0 -75z"/>
</g>
</svg>
