<?xml version="1.0" standalone="no"?>
<!DOCTYPE svg PUBLIC "-//W3C//DTD SVG 20010904//EN"
 "http://www.w3.org/TR/2001/REC-SVG-20010904/DTD/svg10.dtd">
<svg version="1.0" xmlns="http://www.w3.org/2000/svg"
 width="512.000000pt" height="512.000000pt" viewBox="0 0 512.000000 512.000000"
 preserveAspectRatio="xMidYMid meet">

<g transform="translate(0.000000,512.000000) scale(0.100000,-0.100000)"
fill="#000000" stroke="none">
<path d="M2360 5114 c-738 -67 -1406 -435 -1844 -1014 -141 -187 -278 -440
-361 -664 -50 -137 -109 -375 -132 -531 -25 -176 -25 -531 0 -695 85 -555 327
-1046 706 -1433 212 -217 415 -367 669 -495 637 -323 1377 -369 2039 -126 231
84 523 248 716 401 104 82 307 284 392 388 493 606 681 1409 511 2175 -40 177
-56 222 -93 259 -31 31 -37 33 -88 29 -63 -5 -98 -31 -115 -83 -9 -27 -5 -55
24 -168 54 -209 76 -380 76 -597 -1 -363 -68 -668 -220 -987 -173 -364 -438
-678 -765 -905 -389 -271 -833 -410 -1310 -410 -194 0 -284 8 -460 43 -699
140 -1304 605 -1614 1243 -220 453 -288 947 -196 1436 69 373 234 732 470
1024 80 100 256 277 349 352 191 154 479 310 713 387 280 92 494 122 801 114
215 -5 352 -25 550 -78 97 -26 118 -29 147 -19 54 18 85 62 85 122 0 43 -4 54
-33 83 -21 21 -53 38 -92 50 -97 28 -265 64 -377 81 -99 14 -455 26 -548 18z"/>
<path d="M4144 4831 c-21 -16 -208 -199 -416 -407 -317 -319 -378 -385 -387
-419 -6 -23 -11 -134 -11 -265 l0 -224 -439 -441 c-384 -384 -440 -445 -446
-477 -10 -51 0 -85 34 -119 34 -34 68 -44 119 -34 32 6 92 62 477 446 l441
439 224 0 c131 0 242 5 265 11 34 9 100 70 419 387 208 208 391 395 407 416
33 45 38 99 14 146 -26 51 -43 55 -275 60 l-215 5 -5 215 c-5 232 -9 249 -60
275 -47 24 -101 19 -146 -14z m-26 -669 c28 -49 67 -62 192 -62 l115 0 -255
-255 -255 -255 -162 0 -163 0 0 162 0 163 253 253 252 252 5 -117 c3 -70 10
-127 18 -141z"/>
<path d="M2305 4334 c-665 -103 -1205 -554 -1424 -1186 -154 -447 -124 -937
85 -1363 388 -796 1309 -1187 2154 -915 128 41 324 137 440 215 392 262 666
673 761 1140 21 106 37 412 25 479 -15 80 -100 132 -168 103 -18 -8 -44 -26
-57 -41 -24 -25 -25 -31 -26 -204 -2 -133 -7 -202 -23 -279 -126 -618 -579
-1078 -1198 -1215 -83 -18 -131 -22 -304 -22 -175 0 -219 3 -303 22 -314 70
-558 202 -778 422 -221 220 -363 486 -426 797 -27 134 -24 453 5 586 32 143
75 265 138 389 218 424 602 713 1077 810 77 16 146 21 281 23 l179 1 33 37
c42 45 46 97 11 148 -40 60 -72 69 -242 68 -82 -1 -190 -7 -240 -15z"/>
<path d="M2426 3579 c-325 -50 -614 -254 -760 -538 -250 -487 -79 -1082 388
-1352 175 -101 349 -144 551 -136 165 7 266 32 410 102 335 163 562 507 568
862 2 100 1 102 -27 132 -73 77 -188 50 -216 -50 -6 -19 -10 -57 -10 -85 0
-70 -33 -195 -75 -280 -97 -198 -281 -349 -492 -405 -93 -25 -258 -30 -348
-10 -286 62 -511 276 -587 559 -28 106 -28 277 0 383 72 270 286 481 556 549
44 11 102 20 130 20 101 0 156 31 175 98 13 43 -2 92 -39 127 -27 26 -39 30
-98 31 -37 2 -94 -2 -126 -7z"/>
</g>
</svg>
