<svg width="30" height="32" viewBox="0 0 30 32" fill="none" xmlns="http://www.w3.org/2000/svg">
<path d="M12.3871 18.5412L12.5449 19.8035C12.5712 20.0139 12.6566 20.1849 12.8013 20.3164C12.9459 20.4479 13.1235 20.5136 13.3338 20.5136H15.0696C15.28 20.5136 15.4575 20.4479 15.6022 20.3164C15.7468 20.1849 15.8323 20.0139 15.8586 19.8035L16.0164 18.5412C16.2268 18.4623 16.4175 18.3702 16.5884 18.265C16.7594 18.1598 16.9106 18.0415 17.0421 17.91L18.2256 18.4228C18.4097 18.5017 18.5938 18.5149 18.7778 18.4623C18.9619 18.4097 19.1066 18.2913 19.2118 18.1072L20.0797 16.6081C20.1849 16.424 20.2177 16.2399 20.1783 16.0558C20.1388 15.8718 20.0402 15.714 19.8824 15.5825L18.8567 14.8329C18.9093 14.6225 18.9356 14.4121 18.9356 14.2017C18.9356 13.9913 18.9093 13.7809 18.8567 13.5705L19.8824 12.821C20.0402 12.6895 20.1388 12.5317 20.1783 12.3476C20.2177 12.1635 20.1849 11.9794 20.0797 11.7953L19.2118 10.2963C19.1066 10.1122 18.9619 9.99381 18.7778 9.94121C18.5938 9.88861 18.4097 9.90176 18.2256 9.98066L17.0421 10.4935C16.9106 10.362 16.7594 10.2437 16.5884 10.1385C16.4175 10.0333 16.2268 9.94121 16.0164 9.86232L15.8586 8.59994C15.8323 8.38954 15.7468 8.2186 15.6022 8.0871C15.4575 7.9556 15.28 7.88985 15.0696 7.88985H13.3338C13.1235 7.88985 12.9459 7.9556 12.8013 8.0871C12.6566 8.2186 12.5712 8.38954 12.5449 8.59994L12.3871 9.86232C12.1767 9.94121 11.986 10.0333 11.8151 10.1385C11.6441 10.2437 11.4929 10.362 11.3614 10.4935L10.1779 9.98066C9.99381 9.90176 9.80972 9.88861 9.62562 9.94121C9.44152 9.99381 9.29688 10.1122 9.19168 10.2963L8.32379 11.7953C8.2186 11.9794 8.18572 12.1635 8.22517 12.3476C8.26462 12.5317 8.36324 12.6895 8.52104 12.821L9.54672 13.5705C9.49412 13.7809 9.46782 13.9913 9.46782 14.2017C9.46782 14.4121 9.49412 14.6225 9.54672 14.8329L8.52104 15.5825C8.36324 15.714 8.26462 15.8718 8.22517 16.0558C8.18572 16.2399 8.2186 16.424 8.32379 16.6081L9.19168 18.1072C9.29688 18.2913 9.44152 18.4097 9.62562 18.4623C9.80972 18.5149 9.99381 18.5017 10.1779 18.4228L11.3614 17.91C11.4929 18.0415 11.6441 18.1598 11.8151 18.265C11.986 18.3702 12.1767 18.4623 12.3871 18.5412ZM14.2017 16.5687C13.5442 16.5687 12.9854 16.3386 12.5251 15.8783C12.0649 15.4181 11.8348 14.8592 11.8348 14.2017C11.8348 13.5442 12.0649 12.9854 12.5251 12.5251C12.9854 12.0649 13.5442 11.8348 14.2017 11.8348C14.8592 11.8348 15.4181 12.0649 15.8783 12.5251C16.3386 12.9854 16.5687 13.5442 16.5687 14.2017C16.5687 14.8592 16.3386 15.4181 15.8783 15.8783C15.4181 16.3386 14.8592 16.5687 14.2017 16.5687ZM4.73391 24.7741C3.23484 23.4066 2.07109 21.8089 1.24265 19.9811C0.414217 18.1532 0 16.2268 0 14.2017C0 10.2568 1.38072 6.90362 4.14217 4.14217C6.90362 1.38072 10.2568 0 14.2017 0C17.4892 0 20.4018 0.966507 22.9397 2.89952C25.4776 4.83253 27.1279 7.35071 27.8906 10.4541L29.942 18.5412C30.0735 19.0408 29.9814 19.4945 29.6658 19.9022C29.3502 20.3098 28.9295 20.5136 28.4035 20.5136H25.2475V25.2475C25.2475 26.1154 24.9385 26.8584 24.3205 27.4764C23.7024 28.0944 22.9595 28.4035 22.0916 28.4035H18.9356V29.9814C18.9356 30.4285 18.7844 30.8033 18.482 31.1057C18.1795 31.4082 17.8048 31.5594 17.3577 31.5594C16.9106 31.5594 16.5358 31.4082 16.2334 31.1057C15.9309 30.8033 15.7797 30.4285 15.7797 29.9814V26.8255C15.7797 26.3784 15.9309 26.0036 16.2334 25.7012C16.5358 25.3987 16.9106 25.2475 17.3577 25.2475H22.0916V18.9356C22.0916 18.4886 22.2428 18.1138 22.5453 17.8113C22.8477 17.5089 23.2225 17.3577 23.6696 17.3577H26.3521L24.853 11.243C24.2481 8.84978 22.9595 6.90362 20.987 5.40455C19.0145 3.90548 16.7528 3.15594 14.2017 3.15594C11.151 3.15594 8.54734 4.22107 6.39078 6.35133C4.23422 8.48159 3.15594 11.0721 3.15594 14.1228C3.15594 15.7008 3.47811 17.1999 4.12245 18.6201C4.76679 20.0402 5.68069 21.3026 6.86417 22.4072L7.88985 23.354V29.9814C7.88985 30.4285 7.73863 30.8033 7.43619 31.1057C7.13374 31.4082 6.75897 31.5594 6.31188 31.5594C5.86479 31.5594 5.49002 31.4082 5.18758 31.1057C4.88513 30.8033 4.73391 30.4285 4.73391 29.9814V24.7741Z" fill="#F58244"/>
</svg>
