<svg width="32" height="30" viewBox="0 0 32 30" fill="none" xmlns="http://www.w3.org/2000/svg">
<path d="M15 15.9L18.75 19.65C19.025 19.925 19.1625 20.275 19.1625 20.7C19.1625 21.125 19.025 21.475 18.75 21.75C18.475 22.025 18.125 22.1625 17.7 22.1625C17.275 22.1625 16.925 22.025 16.65 21.75L12.45 17.55C12.3 17.4 12.1875 17.2313 12.1125 17.0438C12.0375 16.8563 12 16.6625 12 16.4625V10.5C12 10.075 12.1438 9.71875 12.4313 9.43125C12.7188 9.14375 13.075 9 13.5 9C13.925 9 14.2813 9.14375 14.5688 9.43125C14.8563 9.71875 15 10.075 15 10.5V15.9ZM24 7.5H21C20.575 7.5 20.2188 7.35625 19.9313 7.06875C19.6438 6.78125 19.5 6.425 19.5 6C19.5 5.575 19.6438 5.21875 19.9313 4.93125C20.2188 4.64375 20.575 4.5 21 4.5H24V1.5C24 1.075 24.1438 0.71875 24.4313 0.43125C24.7188 0.14375 25.075 0 25.5 0C25.925 0 26.2813 0.14375 26.5688 0.43125C26.8563 0.71875 27 1.075 27 1.5V4.5H30C30.425 4.5 30.7813 4.64375 31.0688 4.93125C31.3563 5.21875 31.5 5.575 31.5 6C31.5 6.425 31.3563 6.78125 31.0688 7.06875C30.7813 7.35625 30.425 7.5 30 7.5H27V10.5C27 10.925 26.8563 11.2812 26.5688 11.5688C26.2813 11.8563 25.925 12 25.5 12C25.075 12 24.7188 11.8563 24.4313 11.5688C24.1438 11.2812 24 10.925 24 10.5V7.5ZM13.5 30C11.625 30 9.86875 29.65 8.23125 28.95C6.59375 28.25 5.1625 27.2875 3.9375 26.0625C2.7125 24.8375 1.75 23.4063 1.05 21.7688C0.35 20.1313 0 18.375 0 16.5C0 14.625 0.35 12.8688 1.05 11.2313C1.75 9.59375 2.7125 8.1625 3.9375 6.9375C5.1625 5.7125 6.59375 4.75 8.23125 4.05C9.86875 3.35 11.625 3 13.5 3C13.775 3 14.0313 3.00625 14.2688 3.01875C14.5063 3.03125 14.7625 3.0625 15.0375 3.1125C15.4625 3.1125 15.8188 3.25625 16.1063 3.54375C16.3938 3.83125 16.5375 4.1875 16.5375 4.6125C16.5375 5.0375 16.3938 5.39375 16.1063 5.68125C15.8188 5.96875 15.4625 6.1125 15.0375 6.1125C14.7625 6.1125 14.5063 6.09375 14.2688 6.05625C14.0313 6.01875 13.775 6 13.5 6C10.55 6 8.0625 7.0125 6.0375 9.0375C4.0125 11.0625 3 13.55 3 16.5C3 19.45 4.0125 21.9375 6.0375 23.9625C8.0625 25.9875 10.55 27 13.5 27C16.45 27 18.9375 25.9875 20.9625 23.9625C22.9875 21.9375 24 19.45 24 16.5C24 16.075 24.1438 15.7188 24.4313 15.4313C24.7188 15.1438 25.075 15 25.5 15C25.925 15 26.2813 15.1438 26.5688 15.4313C26.8563 15.7188 27 16.075 27 16.5C27 18.375 26.65 20.1313 25.95 21.7688C25.25 23.4063 24.2875 24.8375 23.0625 26.0625C21.8375 27.2875 20.4062 28.25 18.7688 28.95C17.1313 29.65 15.375 30 13.5 30Z" fill="#F58244"/>
</svg>
