<svg width="12" height="14" viewBox="0 0 12 14" fill="none" xmlns="http://www.w3.org/2000/svg">
<path d="M1.89375 13.5C1.58438 13.5 1.31953 13.3898 1.09922 13.1695C0.878906 12.9492 0.76875 12.6844 0.76875 12.375V1.6875H0.5625C0.403125 1.6875 0.269531 1.63328 0.161719 1.52484C0.0539063 1.41639 0 1.28202 0 1.12172C0 0.961407 0.0539063 0.828125 0.161719 0.721875C0.269531 0.615625 0.403125 0.5625 0.5625 0.5625H3.525C3.525 0.4 3.57891 0.265625 3.68672 0.159375C3.79453 0.053125 3.92813 0 4.0875 0H7.9125C8.07188 0 8.20547 0.0539063 8.31328 0.161719C8.42109 0.269531 8.475 0.403125 8.475 0.5625H11.4375C11.5969 0.5625 11.7305 0.616719 11.8383 0.725156C11.9461 0.833606 12 0.967981 12 1.12828C12 1.28859 11.9461 1.42188 11.8383 1.52813C11.7305 1.63438 11.5969 1.6875 11.4375 1.6875H11.2313V12.375C11.2313 12.6844 11.1211 12.9492 10.9008 13.1695C10.6805 13.3898 10.4156 13.5 10.1063 13.5H1.89375ZM10.1063 1.6875H1.89375V12.375H10.1063V1.6875ZM4.44703 10.7625C4.60734 10.7625 4.74063 10.7086 4.84688 10.6008C4.95312 10.493 5.00625 10.3594 5.00625 10.2V3.84375C5.00625 3.68438 4.95203 3.55078 4.84359 3.44297C4.73514 3.33516 4.60077 3.28125 4.44047 3.28125C4.28016 3.28125 4.14688 3.33516 4.04063 3.44297C3.93438 3.55078 3.88125 3.68438 3.88125 3.84375V10.2C3.88125 10.3594 3.93547 10.493 4.04391 10.6008C4.15236 10.7086 4.28673 10.7625 4.44703 10.7625ZM7.55953 10.7625C7.71984 10.7625 7.85313 10.7086 7.95938 10.6008C8.06563 10.493 8.11875 10.3594 8.11875 10.2V3.84375C8.11875 3.68438 8.06453 3.55078 7.95609 3.44297C7.84764 3.33516 7.71327 3.28125 7.55297 3.28125C7.39266 3.28125 7.25938 3.33516 7.15313 3.44297C7.04688 3.55078 6.99375 3.68438 6.99375 3.84375V10.2C6.99375 10.3594 7.04797 10.493 7.15641 10.6008C7.26486 10.7086 7.39923 10.7625 7.55953 10.7625Z" fill="#828282"/>
</svg>
